<?xml version="1.0" encoding="UTF-8"?>
<svg width="117px" height="152px" viewBox="0 0 117 152" version="1.1" xmlns="http://www.w3.org/2000/svg" xmlns:xlink="http://www.w3.org/1999/xlink">
    <!-- Generator: Sketch 46.2 (44496) - http://www.bohemiancoding.com/sketch -->
    <title>circleEjecucion Copy</title>
    <desc>Created with Sketch.</desc>
    <defs></defs>
    <g id="Arq-Carlos-Varela" stroke="none" stroke-width="1" fill="none" fill-rule="evenodd">
        <g id="Desktop" transform="translate(-748.000000, -1177.000000)">
            <g id="OBRAS" transform="translate(-3.000000, 800.000000)">
                <g id="Todos" transform="translate(171.000000, 378.000000)">
                    <g id="circleEjecucion-Copy" transform="translate(581.000000, 0.000000)">
                        <g id="ejecucion" transform="translate(25.156250, 25.208059)" fill-rule="nonzero" fill="#FF9800">
                            <path d="M44.748449,33.9735031 C44.1131063,33.3371705 43.2683876,32.9867242 42.370031,32.9867242 C42.1521858,32.9867242 41.9376341,33.0082442 41.728258,33.0484568 L26.930781,18.2280809 L29.7982136,15.3561805 C30.2575863,14.8960921 30.2575863,14.1502745 29.7982136,13.690186 L29.0725334,12.9633752 L39.9588342,2.06011248 C40.2848963,1.73354239 40.3902901,1.24627908 40.2285922,0.813679741 C40.0667374,0.38123748 39.6675898,0.0832560169 39.2074329,0.0516828624 C32.9606548,-0.376675309 26.8377772,1.87302976 22.3499149,6.23012508 L21.6209412,5.50001552 C21.4004297,5.27916052 21.1011866,5.15490995 20.7892398,5.15490995 C20.477293,5.15490995 20.1780499,5.27900344 19.9575385,5.50001552 L8.27560865,17.2001469 C7.81623599,17.6602353 7.81623599,18.4060529 8.27560865,18.8661413 L9.40090698,19.993193 L7.33914086,22.0581716 L6.21384252,20.9311199 C5.75446986,20.4710315 5.00965568,20.4710315 4.55043985,20.9311199 L0.344568703,25.1435442 C0.123900444,25.3645563 0,25.6642656 0,25.9766985 C0,26.2891313 0.123900444,26.5888407 0.344568703,26.8096957 L8.52199801,34.9997091 C8.75160592,35.2298319 9.05273105,35.3448147 9.35369935,35.3448147 C9.65466764,35.3448147 9.95579277,35.2298319 10.1854007,34.9997091 L14.391115,30.7874419 C14.6117833,30.5665869 14.7356837,30.2668776 14.7356837,29.9544447 C14.7356837,29.6420119 14.6117833,29.3423025 14.391115,29.1214475 L13.2653462,27.9939246 L15.3271123,25.9289461 L16.4528811,27.056469 C16.6733925,27.277324 16.9726356,27.4015745 17.2845825,27.4015745 C17.5965293,27.4015745 17.8957724,27.277481 18.1162838,27.056469 L20.9837165,24.1845685 L35.7821346,39.006044 C35.5779341,40.0677502 35.8853327,41.2095674 36.7044871,42.0299982 L54.2538088,59.6065063 C54.8891514,60.2428389 55.7338701,60.5932852 56.6322268,60.5932852 C57.5307402,60.5932852 58.375459,60.2428389 59.0108016,59.6065063 L62.2977706,56.3144159 C62.2977706,56.3144159 62.2977706,56.3144159 62.2977706,56.3144159 C63.6090765,55.0009098 63.6090765,52.8636743 62.2977706,51.5500112 L44.748449,33.9735031 Z M36.2854213,2.40694594 L27.4089739,11.2973808 L24.0128471,7.89580533 C27.3540813,4.66403379 31.7034574,2.73650056 36.2854213,2.40694594 Z M9.35369935,32.5005604 L2.83982955,25.9765414 L5.38214119,23.4302686 L11.896011,29.9542876 L9.35369935,32.5005604 Z M11.6019435,26.3277731 L9.00270037,23.7244801 L11.0644665,21.6595016 L13.6637096,24.2627946 L11.6019435,26.3277731 Z M17.2845825,24.5573203 L10.7707127,18.0333012 L20.789083,7.9993213 L27.3029528,14.5233403 L17.2845825,24.5573203 Z M25.2673783,19.8942324 L39.6581796,34.3072989 L37.0380773,36.9314835 L22.647276,22.518417 L25.2673783,19.8942324 Z M60.6340543,54.6482644 L57.3470853,57.9403548 C57.156059,58.1316787 56.9022984,58.2369225 56.6320699,58.2369225 C56.3619983,58.2369225 56.1080808,58.1315216 55.9170546,57.9403548 L38.3682035,40.3638467 C37.9742314,39.9692608 37.9740746,39.3272734 38.3674193,38.9323733 L41.6559566,35.6387121 C41.8468261,35.4480165 42.100273,35.3429298 42.370031,35.3429298 C42.6401026,35.3429298 42.8940201,35.4483307 43.0850463,35.6394975 L60.6342111,53.2158485 C61.02834,53.6109056 61.02834,54.2535214 60.6340543,54.6482644 Z" id="Shape"></path>
                            <path d="M38.324377,26.5576236 C37.8502077,27.0117822 37.8502077,27.7481425 38.324377,28.2023011 C38.7987082,28.6564597 39.5673514,28.6564597 40.0415207,28.2023011 L42.6349629,25.7183063 C45.7126115,22.7705395 47.2074833,18.7620356 46.7363899,14.7208149 C46.4540576,12.2993077 47.4291077,9.89051499 49.3448877,8.2773139 C49.8946586,7.81431712 50.5091846,7.43132917 51.1696867,7.13703316 L50.1719724,10.2003166 C49.7586728,11.4686735 49.8859166,12.8151785 50.5303919,13.9918973 C51.1745434,15.1686162 52.2588677,16.0344481 53.5829479,16.4301506 C56.3164231,17.2471399 59.2342884,15.7812419 60.0874371,13.1629688 L61.1180147,9.9982788 C61.8397104,11.123209 62.2356879,12.4160647 62.2580284,13.7729585 C62.2915392,15.8089969 61.4822622,17.7231614 59.9794579,19.1626999 C59.0965219,20.0082195 58.0507269,20.6213103 56.8710506,20.9850713 C54.673424,21.6626654 52.6713578,22.8255843 51.0814579,24.3483878 L44.7369139,30.4251818 C44.2627446,30.8793404 44.2627446,31.6155455 44.7369139,32.0697041 C44.9740795,32.296861 45.284904,32.4103618 45.5955667,32.4103618 C45.9062293,32.4103618 46.2170539,32.296861 46.4542195,32.0697041 L52.7987635,25.9929102 C54.1173395,24.7299803 55.7826791,23.7638273 57.6150869,23.1989588 C59.1434694,22.7277441 60.5548071,21.9006762 61.6966016,20.8072223 C63.6685567,18.9184869 64.7302167,16.4072024 64.6861833,13.7360552 C64.6423117,11.064908 63.4958224,8.58494471 61.4584647,6.7526497 C61.1534681,6.47851095 60.7226847,6.37384825 60.3184509,6.475875 C59.9140552,6.5777467 59.5928699,6.87188765 59.4682163,7.25425538 L57.7693659,12.4701792 C57.3152707,13.8641313 55.7613099,14.6445274 54.3062625,14.2097508 C53.6012412,13.9990299 53.0239494,13.5380489 52.6810711,12.9116232 C52.3380309,12.2850425 52.2701999,11.5682193 52.4902054,10.8929511 L54.1696292,5.73672375 C54.2947685,5.35187513 54.2033019,4.93229399 53.9272832,4.62791935 C53.6514264,4.32338966 53.2295469,4.17779221 52.815276,4.24260556 C50.922646,4.53798696 49.1682681,5.32923697 47.7415511,6.53045466 C45.2306716,8.64479627 43.9528914,11.8031289 44.3229668,14.9788278 C44.7118213,18.3136141 43.4706277,21.6283981 40.9178192,24.0736289 L38.324377,26.5576236 Z" id="Shape"></path>
                            <path d="M33.1019784,43.4040522 C30.0524341,46.3414836 28.5711352,50.3359885 29.0379513,54.3635607 C29.3177201,56.7765501 28.3513626,59.1770234 26.4529772,60.7848073 C25.908198,61.246205 25.2990912,61.6278702 24.644907,61.9211498 L25.6335625,58.8684463 C26.042949,57.60447 25.9168605,56.2626155 25.2783973,55.0899608 C24.639934,53.917306 23.5656153,53.0544645 22.2533969,52.6601287 C20.941018,52.2657928 19.5479489,52.3872458 18.3306979,53.0022367 C17.1132864,53.6172276 16.2175129,54.6520502 15.8081264,55.9158719 L14.7867456,59.0696317 C14.0714421,57.9484323 13.6792204,56.6603508 13.6570827,55.3078344 C13.6238762,53.2788281 14.4258053,51.3712746 15.9151251,49.936708 C16.7898839,49.0941086 17.8261836,48.4831353 18.9953093,48.1207851 C21.1729823,47.4456858 23.1567101,46.2866289 24.7321743,44.7690847 L31.1198548,38.6160854 C31.5897189,38.1634954 31.5897189,37.4296784 31.1198548,36.9772429 C30.6499908,36.5246528 29.8881662,36.5246528 29.4184625,36.9772429 L23.030782,43.1302422 C21.7241782,44.3888102 20.0737988,45.3516264 18.258189,45.9145439 C16.7436836,46.3841312 15.3449999,47.2083426 14.2138932,48.2980199 C12.2598428,50.180232 11.2078221,52.6826886 11.2512954,55.3446103 C11.2947687,58.0065319 12.4308482,60.4780845 14.449868,62.3040512 C14.7519349,62.5772431 15.1791278,62.6815443 15.5795309,62.5798699 C15.9802548,62.4783501 16.2985239,62.185225 16.4218853,61.8041779 L18.1053107,56.6062687 C18.3231583,55.9333327 18.8002411,55.3824677 19.4483294,55.0550392 C20.0964178,54.7276106 20.8381901,54.6628666 21.5369705,54.8728597 C22.2355905,55.0828528 22.8076407,55.5422418 23.1475663,56.1665039 C23.4874918,56.790766 23.5547069,57.505268 23.336699,58.178204 L21.6725237,63.3166228 C21.5483602,63.7001423 21.6391567,64.1182743 21.9125088,64.4215977 C22.1430294,64.6773288 22.4755757,64.8207237 22.8209554,64.8207237 C22.885283,64.8207237 22.9499314,64.815779 23.0145798,64.8055807 C24.8898651,64.5112195 26.6284744,63.7227023 28.0420769,62.5256333 C30.5301586,60.4184396 31.7964975,57.2711697 31.4296218,54.1065934 C31.0444584,50.7833248 32.2743825,47.4798348 34.803852,45.0432038 C35.273716,44.5906138 35.273716,43.8569513 34.803852,43.4043612 C34.3336671,42.9514622 33.5720029,42.9514622 33.1019784,43.4040522 Z" id="Shape"></path>
                        </g>
                        <ellipse id="Oval-2" stroke="#FF9800" cx="57.5" cy="57.6184211" rx="57.5" ry="57.6184211"></ellipse>
                        <path d="M24.3477524,133.565461 L23.628011,133.565461 C23.628011,132.3707 23.3699245,131.554779 22.8537438,131.117671 C22.3375631,130.680564 21.6141938,130.476583 20.6836145,130.505724 L18.8079248,130.549434 C18.2844739,130.564004 17.9064317,130.662352 17.6737869,130.84448 C17.4411421,131.026608 17.2957412,131.281584 17.23758,131.609414 C17.1794188,131.937245 17.1503386,132.450839 17.1503386,133.150211 L17.1503386,136.647053 L21.2506834,136.668908 L21.098011,134.789355 L22.0576662,134.789355 L22.0576662,139.378961 L21.3379248,139.378961 C21.3379248,138.839861 21.2724944,138.428258 21.1416317,138.144138 C21.010769,137.860018 20.8108428,137.670608 20.5418472,137.575901 C20.2728516,137.481195 19.8984445,137.433842 19.4186145,137.433842 L18.7424938,137.455697 L17.1503386,137.521263 L17.1503386,142.526118 C17.1503386,143.283771 17.1285285,143.852002 17.0849076,144.230829 L21.2506834,144.165263 C22.2685046,144.150693 23.0463991,143.892075 23.5843903,143.389401 C24.1223815,142.886728 24.3913731,142.016168 24.3913731,140.777697 L25.1329248,140.777697 L25.0020628,145.039474 L13.7479248,145.039474 L13.7479248,144.31825 C14.2568354,144.30368 14.6203375,144.18712 14.8384421,143.968566 C15.0565466,143.750012 15.1801373,143.491394 15.2092179,143.192704 C15.2382985,142.894014 15.2528386,142.373135 15.2528386,141.630053 L15.2528386,132.188579 C15.2528386,131.576629 15.2746487,131.052107 15.3182697,130.615 L13.7479248,130.702421 L13.7479248,129.740789 L24.2387007,129.740789 L24.3477524,133.565461 Z M28.7571934,129.511309 C28.9825681,129.766289 29.0952538,130.075902 29.0952538,130.440158 C29.0952538,130.789844 28.9752981,131.092172 28.7353831,131.347151 C28.4954681,131.602131 28.2155715,131.729618 27.8956848,131.729618 C27.5903385,131.729618 27.3213469,131.602131 27.0887021,131.347151 C26.8560572,131.092172 26.7397366,130.789844 26.7397366,130.440158 C26.7397366,130.090472 26.8596922,129.784501 27.0996072,129.522237 C27.3395222,129.259972 27.6121488,129.128842 27.9174952,129.128842 C28.2519221,129.128842 28.5318188,129.25633 28.7571934,129.511309 Z M28.9643917,145.105039 C28.9643917,147.057453 28.5863495,148.521741 27.8302538,149.497947 C27.0741581,150.474154 26.0708922,150.96225 24.8204262,150.96225 C24.2533544,150.96225 23.8244219,150.84569 23.5336159,150.612566 C23.2428098,150.379442 23.097409,150.088041 23.097409,149.738355 C23.097409,149.44695 23.1882845,149.202902 23.3700383,149.006204 C23.5517921,148.809506 23.7880684,148.711158 24.0788745,148.711158 C24.3842208,148.711158 24.6132272,148.809506 24.7659003,149.006204 C24.9185735,149.202902 24.994909,149.410525 24.994909,149.629079 C24.994909,149.7165 24.9876389,149.782066 24.9730986,149.825776 C25.1766629,149.913198 25.365684,149.956908 25.5401676,149.956908 C25.8745945,149.956908 26.1653962,149.833063 26.4125814,149.585368 C26.8342502,149.177401 27.0450814,148.28863 27.0450814,146.919026 L27.0887021,136.734474 C27.0887021,136.180804 27.1105122,135.707278 27.1541331,135.313882 L25.6055986,135.401303 L25.6055986,134.483382 C26.4780168,134.483382 27.0996054,134.432386 27.4703831,134.330395 C27.8411608,134.228403 28.1283275,134.082703 28.3318917,133.893289 L28.9643917,133.893289 L28.9643917,145.105039 Z M37.5068931,134.308539 C38.175747,134.672796 38.7064601,135.215529 39.0990483,135.936757 C39.4916364,136.657984 39.6879276,137.543113 39.6879276,138.592171 L32.0106862,138.723303 C31.9961459,140.471732 32.2833126,141.83403 32.8721948,142.810237 C33.4610771,143.786443 34.3734674,144.274539 35.6093931,144.274539 C36.278247,144.274539 36.965266,144.099699 37.6704707,143.750013 C38.3756754,143.400327 38.9172935,142.970511 39.2953414,142.460553 L39.8187897,142.897658 C39.2662582,143.742732 38.550159,144.369244 37.6704707,144.777211 C36.7907824,145.185177 35.9292824,145.389158 35.0859448,145.389158 C34.0826639,145.389158 33.1775437,145.152395 32.3705569,144.678862 C31.5635701,144.205329 30.9274414,143.527822 30.4621517,142.646322 C29.996862,141.764822 29.7642207,140.748563 29.7642207,139.597513 C29.7642207,138.577596 29.996862,137.619616 30.4621517,136.723546 C30.9274414,135.827476 31.5781102,135.109902 32.4141776,134.570803 C33.250245,134.031703 34.1989855,133.762158 35.2604276,133.762158 C36.0892248,133.762158 36.8380392,133.944283 37.5068931,134.308539 Z M32.0761172,137.805382 L37.6377552,137.805382 C37.6377552,136.931167 37.441464,136.18081 37.0488759,135.554289 C36.6562877,134.927769 36.0674143,134.614513 35.2822379,134.614513 C33.4792404,134.614513 32.4105442,135.678125 32.0761172,137.805382 Z M48.3176703,134.133697 C48.9283631,134.381392 49.4045508,134.709217 49.7462479,135.117184 C50.087945,135.525151 50.258791,135.969537 50.258791,136.450355 C50.258791,136.785471 50.1642805,137.062302 49.9752566,137.280855 C49.7862326,137.499409 49.5245111,137.608684 49.1900841,137.608684 C48.8701975,137.608684 48.6302861,137.503051 48.4703428,137.291783 C48.3103994,137.080514 48.230429,136.858321 48.230429,136.625197 C48.230429,136.260941 48.3394796,135.969541 48.5575841,135.750987 C48.3976408,135.299309 48.088664,134.989696 47.6306445,134.822138 C47.172625,134.65458 46.7182473,134.570803 46.2674979,134.570803 C45.598644,134.570803 44.9988655,134.752928 44.4681445,135.117184 C43.9374234,135.48144 43.519396,136.013247 43.2140497,136.712618 C42.9087033,137.41199 42.7560324,138.249767 42.7560324,139.225974 C42.7560324,140.20218 42.9123383,141.069097 43.2249548,141.82675 C43.5375713,142.584403 43.9774089,143.178132 44.5444807,143.607954 C45.1115525,144.037776 45.7658563,144.252684 46.5074117,144.252684 C47.1617253,144.252684 47.8051241,144.074201 48.4376272,143.71723 C49.0701304,143.360259 49.5681283,142.912231 49.9316359,142.373132 L50.4987048,142.810237 C49.9607136,143.655311 49.2664246,144.296393 48.4158169,144.7335 C47.5652092,145.170607 46.7327894,145.389158 45.9185324,145.389158 C44.9297918,145.389158 44.0246716,145.163322 43.2031445,144.711645 C42.3816174,144.259967 41.7309486,143.611601 41.2511186,142.766526 C40.7712886,141.921452 40.5313772,140.923405 40.5313772,139.772355 C40.5313772,138.752438 40.7749237,137.779888 41.2620238,136.854678 C41.7491239,135.929467 42.4252379,135.182753 43.2903859,134.614513 C44.1555339,134.046273 45.1333545,133.762158 46.2238772,133.762158 C47.0090536,133.762158 47.7069776,133.886003 48.3176703,134.133697 Z M61.2222407,142.154579 C61.2222407,142.999653 61.1931605,143.684445 61.1349993,144.208974 L62.7053441,144.121553 L62.7053441,145.039474 L59.5864648,145.039474 C59.5137633,144.587796 59.462873,144.150695 59.4337924,143.728158 C58.9539624,144.208976 58.3941692,144.606009 57.7543959,144.91927 C57.1146225,145.23253 56.4893989,145.389158 55.8787062,145.389158 C54.6427805,145.389158 53.7376602,145.032192 53.1633183,144.31825 C52.5889763,143.604308 52.3018097,142.37314 52.3018097,140.624711 L52.3018097,136.734474 C52.3018097,136.122523 52.3308898,135.648997 52.389051,135.313882 L50.8841372,135.379447 L50.8841372,134.483382 L51.5602579,134.483382 C52.1273297,134.483382 52.5562622,134.432386 52.8470683,134.330395 C53.1378743,134.228403 53.3850558,134.082703 53.58862,133.893289 L54.22112,133.893289 L54.22112,140.559145 C54.22112,141.841327 54.399236,142.781094 54.7554734,143.378474 C55.1117109,143.975854 55.7042193,144.274539 56.5330166,144.274539 C57.0710077,144.274539 57.5980858,144.114269 58.1142666,143.793724 C58.6304473,143.473178 59.0484747,143.072502 59.3683614,142.591684 L59.3683614,136.974882 C59.3683614,136.29008 59.4047116,135.736419 59.4774131,135.313882 L57.9070683,135.379447 L57.9070683,134.483382 L58.583189,134.483382 C59.1502608,134.483382 59.5791933,134.432386 59.8699993,134.330395 C60.1608054,134.228403 60.4079868,134.082703 60.611551,133.893289 L61.244051,133.893289 L61.2222407,142.154579 Z M71.0951731,134.133697 C71.7058658,134.381392 72.1820536,134.709217 72.5237507,135.117184 C72.8654478,135.525151 73.0362938,135.969537 73.0362938,136.450355 C73.0362938,136.785471 72.9417832,137.062302 72.7527593,137.280855 C72.5637354,137.499409 72.3020139,137.608684 71.9675869,137.608684 C71.6477002,137.608684 71.4077888,137.503051 71.2478455,137.291783 C71.0879022,137.080514 71.0079317,136.858321 71.0079317,136.625197 C71.0079317,136.260941 71.1169824,135.969541 71.3350869,135.750987 C71.1751436,135.299309 70.8661668,134.989696 70.4081472,134.822138 C69.9501277,134.65458 69.4957501,134.570803 69.0450007,134.570803 C68.3761468,134.570803 67.7763683,134.752928 67.2456472,135.117184 C66.7149262,135.48144 66.2968988,136.013247 65.9915524,136.712618 C65.6862061,137.41199 65.5335352,138.249767 65.5335352,139.225974 C65.5335352,140.20218 65.6898411,141.069097 66.0024576,141.82675 C66.3150741,142.584403 66.7549116,143.178132 67.3219834,143.607954 C67.8890552,144.037776 68.5433591,144.252684 69.2849145,144.252684 C69.9392281,144.252684 70.5826268,144.074201 71.21513,143.71723 C71.8476332,143.360259 72.3456311,142.912231 72.7091386,142.373132 L73.2762076,142.810237 C72.7382164,143.655311 72.0439274,144.296393 71.1933197,144.7335 C70.342712,145.170607 69.5102921,145.389158 68.6960352,145.389158 C67.7072946,145.389158 66.8021743,145.163322 65.9806472,144.711645 C65.1591201,144.259967 64.5084514,143.611601 64.0286214,142.766526 C63.5487914,141.921452 63.30888,140.923405 63.30888,139.772355 C63.30888,138.752438 63.5524264,137.779888 64.0395266,136.854678 C64.5266267,135.929467 65.2027406,135.182753 66.0678886,134.614513 C66.9330366,134.046273 67.9108573,133.762158 69.00138,133.762158 C69.7865563,133.762158 70.4844804,133.886003 71.0951731,134.133697 Z M77.074959,129.511309 C77.3003337,129.766289 77.4130193,130.075902 77.4130193,130.440158 C77.4130193,130.789844 77.2930636,131.092172 77.0531486,131.347151 C76.8132336,131.602131 76.533337,131.729618 76.2134503,131.729618 C75.908104,131.729618 75.6391124,131.602131 75.4064676,131.347151 C75.1738227,131.092172 75.0575021,130.789844 75.0575021,130.440158 C75.0575021,130.090472 75.1774578,129.784501 75.4173728,129.522237 C75.6572878,129.259972 75.9299143,129.128842 76.2352607,129.128842 C76.5696876,129.128842 76.8495843,129.25633 77.074959,129.511309 Z M77.2167262,142.722816 C77.2167262,143.378477 77.187646,143.873858 77.1294848,144.208974 L78.5035366,144.143408 L78.5035366,145.039474 L74.0542262,145.039474 L74.0542262,144.383816 C74.475895,144.383816 74.7776017,144.278183 74.9593555,144.066914 C75.1411093,143.855646 75.2501599,143.5861 75.2865107,143.25827 C75.3228614,142.930439 75.3410366,142.416846 75.3410366,141.717474 L75.3410366,136.734474 C75.3410366,136.311936 75.3701167,135.838411 75.4282779,135.313882 L73.8797434,135.401303 L73.8797434,134.483382 C74.7376213,134.483382 75.3519399,134.432386 75.7227176,134.330395 C76.0934953,134.228403 76.380662,134.082703 76.5842262,133.893289 L77.2167262,133.893289 L77.2167262,142.722816 Z M87.4386241,134.494309 C88.2819617,134.982413 88.9471706,135.648991 89.4342707,136.494066 C89.9213708,137.33914 90.1649172,138.278907 90.1649172,139.313395 C90.1649172,140.420734 89.9213708,141.440636 89.4342707,142.373132 C88.9471706,143.305627 88.2855967,144.041414 87.4495293,144.580513 C86.6134619,145.119612 85.6865315,145.389158 84.6687103,145.389158 C83.6654295,145.389158 82.7457691,145.152395 81.9097017,144.678862 C81.0736343,144.205329 80.4120605,143.546035 79.9249603,142.700961 C79.4378602,141.855886 79.1943138,140.901549 79.1943138,139.837921 C79.1943138,138.701442 79.4342252,137.670612 79.9140552,136.745401 C80.3938852,135.820191 81.051824,135.091689 81.8878914,134.559875 C82.7239588,134.028061 83.6508892,133.762158 84.6687103,133.762158 C85.6719912,133.762158 86.5952866,134.006206 87.4386241,134.494309 Z M82.2368569,135.925829 C81.6915955,136.814614 81.418969,137.907366 81.418969,139.204118 C81.418969,140.136614 81.5461947,141.007174 81.80065,141.815822 C82.0551053,142.624471 82.4404175,143.27648 82.9565983,143.771868 C83.472779,144.267257 84.1016377,144.514947 84.8431931,144.514947 C85.9046352,144.514947 86.6861647,144.077846 87.1878052,143.203632 C87.6894456,142.329417 87.9402621,141.243949 87.9402621,139.947197 C87.9402621,138.475602 87.6676355,137.215295 87.1223741,136.166237 C86.5771128,135.117179 85.759233,134.592658 84.6687103,134.592658 C83.592728,134.592658 82.7821182,135.037044 82.2368569,135.925829 Z M100.561298,134.95327 C101.14291,135.747348 101.433712,136.982158 101.433712,138.657737 L101.433712,142.722816 C101.433712,143.378477 101.404632,143.873858 101.34647,144.208974 L102.720522,144.143408 L102.720522,145.039474 L98.2712117,145.039474 L98.2712117,144.383816 C98.6928805,144.383816 98.9945873,144.278183 99.176341,144.066914 C99.3580948,143.855646 99.4671455,143.5861 99.5034962,143.25827 C99.539847,142.930439 99.5580221,142.416846 99.5580221,141.717474 L99.5580221,138.657737 C99.5434818,137.404695 99.3399206,136.461286 98.9473324,135.82748 C98.5547442,135.193674 97.9367907,134.876776 97.0934531,134.876776 C96.5700022,134.876776 96.0501942,135.007907 95.5340134,135.270171 C95.0178327,135.532436 94.5925352,135.874831 94.2581083,136.297368 C94.2726486,136.457641 94.2799186,136.741757 94.2799186,137.149724 L94.2581083,142.722816 C94.2581083,143.378477 94.2290281,143.873858 94.1708669,144.208974 L95.5449186,144.143408 L95.5449186,145.039474 L91.0956083,145.039474 L91.0956083,144.383816 C91.5172771,144.383816 91.8189838,144.278183 92.0007376,144.066914 C92.1824914,143.855646 92.287907,143.593385 92.3169876,143.280125 C92.3460682,142.966865 92.3678783,142.445986 92.3824186,141.717474 L92.404229,136.734474 C92.404229,136.122523 92.4333091,135.648997 92.4914703,135.313882 L90.9429359,135.401303 L90.9429359,134.483382 C91.8008137,134.483382 92.3896871,134.436029 92.7095738,134.341322 C93.0294605,134.246616 93.298452,134.097273 93.5165566,133.893289 L94.1490566,133.893289 C94.1781372,134.170124 94.2072173,134.61451 94.2362979,135.226461 C94.7306682,134.789353 95.2940965,134.43603 95.9265997,134.16648 C96.5591028,133.896931 97.1806914,133.762158 97.7913841,133.762158 C99.0563905,133.762158 99.9796858,134.159191 100.561298,134.95327 Z" id="Ejecucion" fill="#FF9800"></path>
                    </g>
                </g>
            </g>
        </g>
    </g>
</svg>