<?xml version="1.0" encoding="UTF-8"?>
<svg width="184px" height="157px" viewBox="0 0 184 157" version="1.1" xmlns="http://www.w3.org/2000/svg" xmlns:xlink="http://www.w3.org/1999/xlink">
    <!-- Generator: Sketch 46.2 (44496) - http://www.bohemiancoding.com/sketch -->
    <title>circleEmprendimientos</title>
    <desc>Created with Sketch.</desc>
    <defs></defs>
    <g id="Arq-Carlos-Varela" stroke="none" stroke-width="1" fill="none" fill-rule="evenodd">
        <g id="Desktop" transform="translate(-719.000000, -2020.000000)">
            <g id="TASACIONES" transform="translate(-9.000000, 1643.000000)">
                <g id="Todos" transform="translate(177.000000, 378.000000)">
                    <g id="circleEmprendimientos" transform="translate(551.000000, 0.000000)">
                        <g id="002-informe-grafico-de-empresa-con-linea-descendente-simbolo-dibujado-a-mano" transform="translate(57.000000, 28.000000)" fill-rule="nonzero" fill="#FF9800">
                            <path d="M59.1067891,55.009904 C57.4815113,55.0105687 55.856101,55.0166836 54.2301611,55.0192094 C54.1850035,54.3577303 54.1030311,53.7002393 53.9490184,53.0467363 C53.7023067,52.0051993 52.5415832,51.3983561 51.540964,51.6751245 C50.4857849,51.9654521 49.9269425,53.0501926 50.1737866,54.0918626 C50.2215928,54.2909975 50.2639695,54.4907972 50.3009166,54.6927237 C50.3048894,54.7149237 50.3063461,54.7250267 50.3089947,54.7425739 C50.318397,54.8370899 50.3251508,54.9316059 50.3312424,55.0261219 C46.9501137,55.0329015 43.568985,55.0376872 40.1870617,55.0451315 L40.1870617,53.0450082 C40.1870617,51.973694 39.2967543,51.0799794 38.2303189,51.0799794 C37.1630889,51.0799794 36.2727815,51.9738269 36.2727815,53.0450082 L36.2727815,55.0477901 C32.967666,55.0517782 29.6617558,55.0618811 26.3563754,55.0517782 L26.3563754,53.8313121 C26.3563754,52.759865 25.466068,51.8662834 24.3995002,51.8662834 C23.3326674,51.8662834 22.4423601,52.7599979 22.4423601,53.8313121 L22.4423601,55.0294453 C19.6590073,55.0140249 16.8749923,55.0004657 14.0916396,54.9653711 L14.0916396,53.5687677 C14.0916396,52.4981182 13.2013322,51.6044036 12.1347643,51.6044036 C11.0679316,51.6044036 10.1776242,52.4982511 10.1776242,53.5687677 L10.1776242,54.913394 C8.11043717,54.8789641 6.04325014,54.8412109 3.97685768,54.7912277 C4.09829333,51.808856 4.18291424,48.8252878 4.25283575,45.840922 L6.3939171,45.840922 C7.46048497,45.840922 8.35079236,44.9464099 8.35079236,43.8758932 C8.35079236,42.8053766 7.46048497,41.9116621 6.3939171,41.9116621 L4.34129706,41.9116621 C4.38592499,39.3802021 4.40857002,36.8474127 4.42936108,34.3148892 L5.6115378,34.3148892 C6.67797323,34.3148892 7.56867791,33.4210417 7.56867791,32.3505251 C7.56867791,31.2800085 6.67797323,30.386294 5.6115378,30.386294 L4.45558164,30.386294 C4.47067833,26.9813254 4.46498397,23.5755592 4.46101115,20.1699259 L6.65625519,20.1699259 C9.18058057,20.1699259 9.18058057,16.2409319 6.65625519,16.2409319 L4.46021659,16.2409319 C4.45452223,13.5339992 4.44975485,10.8270664 4.4451199,8.12026656 L6.91713657,8.12026656 C9.44146195,8.12026656 9.44146195,4.19113963 6.91713657,4.19113963 L4.43810127,4.19113963 L4.43810127,1.96462993 C4.43810127,0.893581596 3.54779387,0 2.48122601,0 C1.41399601,0 0.524350755,0.89371453 0.524350755,1.96462993 L0.524350755,4.32181364 C0.524350755,4.32181364 0.524350755,4.32181364 0.524350755,4.32247831 C0.53097211,21.699862 0.769473317,39.0844242 0.00219070068,56.4510403 C-0.0137005513,56.8108923 0.0579425097,57.113184 0.182026702,57.370544 C0.414701117,58.0745618 1.00678268,58.6524255 1.95933081,58.6780817 C21.0051287,59.180173 40.0579453,58.9467411 59.1081133,58.9399615 C61.6305847,58.9386321 61.6311144,55.0091064 59.1067891,55.009904 Z" id="Shape"></path>
                            <path d="M11.9056476,13.9246564 L15.1077513,13.9246564 C16.2140392,16.3486375 17.2770086,18.7828686 18.1483103,21.3033044 C18.3844961,21.9872913 18.8752615,22.3799431 19.4289386,22.5453878 C20.2871781,23.1439584 21.5782027,23.1726057 22.2732981,22.0259257 C23.0662266,20.7180061 23.831298,19.3968142 24.5751767,18.0635326 C26.3383064,23.4172903 27.9468224,28.8159902 29.4412441,34.2510905 C29.4571053,34.3090421 29.4828298,34.3551668 29.5021566,34.4085191 C29.8599007,35.7344418 31.5597188,36.6799338 32.733317,35.3667578 C34.0597962,33.8834064 35.448654,32.4586638 36.8571052,31.0520556 C38.0984135,33.5731484 39.1916393,36.1548211 40.1647728,38.7953652 C40.1856989,39.0969502 40.2622061,39.3893365 40.4084227,39.6355981 C40.9932891,40.6197244 42.1242352,40.7665089 43.1036333,40.3328573 C44.649504,39.6468993 45.9435943,38.5872124 47.1578453,37.4428978 C48.6516005,39.510759 50.104703,41.6062161 51.4401125,43.7788108 C51.5795315,44.0057551 51.7468075,44.1779017 51.9255463,44.3181157 C52.2883554,44.7304789 52.8169745,45 53.4037069,45 L56.0305409,45 C57.1040401,45 58,44.116402 58,43.058292 C58,41.9991308 57.1039068,41.1157956 56.0305409,41.1157956 L54.3940345,41.1157956 C52.8101768,38.6040328 51.088233,36.1851767 49.3264362,33.7915512 C48.5440374,32.728579 47.2194242,32.777989 46.365983,33.3571111 C45.961988,33.3865468 45.5511953,33.5518601 45.182255,33.9163903 C44.5283455,34.5609543 43.8793677,35.1722716 43.1781411,35.7167015 C41.9801512,32.6724672 40.6379441,29.6880241 39.0832764,26.8005614 C38.4152384,25.5587409 37.0527715,25.6320674 36.1938656,26.3247273 C36.0333872,26.4127717 35.8763743,26.5189507 35.7268255,26.6657352 C34.5897481,27.7863961 33.4586687,28.9124448 32.3483821,30.0578107 C30.6989468,24.2459591 28.9224883,18.4736619 26.9366349,12.7626015 C26.4524007,11.3686086 24.9247903,11.1600616 23.926732,11.7102735 C23.8922105,11.7252542 23.8600882,11.7482509 23.8262331,11.766254 C23.7991757,11.7832058 23.7713186,11.7976609 23.7450609,11.8154012 C23.4851499,11.9745382 23.2502969,12.2104184 23.0735575,12.5573397 C22.3138176,14.0456846 21.5107592,15.5084047 20.6850419,16.9598235 C19.8681215,14.9526735 18.9793591,12.9740395 18.0707369,11.0035528 C17.6494145,10.0893363 16.8511544,9.86777978 16.1130071,10.068048 C16.0250373,10.0580609 15.9397331,10.0420289 15.8445657,10.0420289 L11.9056476,10.0420289 C9.36478414,10.0399263 9.36478414,13.9246564 11.9056476,13.9246564 Z" id="Shape"></path>
                        </g>
                        <ellipse id="Oval-2" stroke="#FF9800" cx="87.5" cy="57.6184211" rx="57.5" ry="57.6184211"></ellipse>
                        <path d="M11.79904,136.4 L11.00704,136.4 C11.00704,135.087993 10.7230428,134.192002 10.15504,133.712 C9.58703716,133.231998 8.79104512,133.008 7.76704,133.04 L5.70304,133.088 C5.12703712,133.104 4.71104128,133.211999 4.45504,133.412 C4.19903872,133.612001 4.03904032,133.891998 3.97504,134.252 C3.91103968,134.612002 3.87904,135.175996 3.87904,135.944 L3.87904,139.784 L8.39104,139.808 L8.22304,137.744 L9.27904,137.744 L9.27904,142.784 L8.48704,142.784 C8.48704,142.191997 8.41504072,141.740002 8.27104,141.428 C8.12703928,141.115998 7.90704148,140.908001 7.61104,140.804 C7.31503852,140.699999 6.90304264,140.648 6.37504,140.648 L5.63104,140.672 L3.87904,140.744 L3.87904,146.24 C3.87904,147.072004 3.85504024,147.695998 3.80704,148.112 L8.39104,148.04 C9.5110456,148.024 10.367037,147.740003 10.95904,147.188 C11.551043,146.635997 11.84704,145.680007 11.84704,144.32 L12.66304,144.32 L12.51904,149 L0.13504,149 L0.13504,148.208 C0.6950428,148.192 1.0950388,148.064001 1.33504,147.824 C1.5750412,147.583999 1.71103984,147.300002 1.74304,146.972 C1.77504016,146.643998 1.79104,146.072004 1.79104,145.256 L1.79104,134.888 C1.79104,134.215997 1.81503976,133.640002 1.86304,133.16 L0.13504,133.256 L0.13504,132.2 L11.67904,132.2 L11.79904,136.4 Z M31.099168,137.9 C31.7471712,138.756004 32.0551682,140.119991 32.023168,141.992 L31.999168,146.456 C31.999168,147.176004 31.9671683,147.719998 31.903168,148.088 L33.415168,148.016 L33.415168,149 L28.519168,149 L28.519168,148.28 C28.9831703,148.28 29.315167,148.164001 29.515168,147.932 C29.715169,147.699999 29.8351678,147.404002 29.875168,147.044 C29.9151682,146.683998 29.935168,146.120004 29.935168,145.352 L29.935168,141.992 C29.935168,140.615993 29.7191702,139.588003 29.287168,138.908 C28.8551658,138.227997 28.1751726,137.888 27.247168,137.888 C26.7511655,137.888 26.2511705,137.995999 25.747168,138.212 C25.2431655,138.428001 24.7991699,138.711998 24.415168,139.064 C24.5751688,139.560002 24.655168,140.143997 24.655168,140.816 L24.607168,146.456 C24.607168,147.176004 24.5751683,147.719998 24.511168,148.088 L26.023168,148.016 L26.023168,149 L21.127168,149 L21.127168,148.28 C21.5911703,148.28 21.923167,148.164001 22.123168,147.932 C22.323169,147.699999 22.4391678,147.412002 22.471168,147.068 C22.5031682,146.723998 22.5271679,146.152004 22.543168,145.352 L22.567168,141.992 C22.5831681,140.599993 22.3831701,139.560003 21.967168,138.872 C21.5511659,138.183997 20.8871726,137.84 19.975168,137.84 C19.4791655,137.84 18.9871704,137.943999 18.499168,138.152 C18.0111656,138.360001 17.5911698,138.639998 17.239168,138.992 L17.263168,140.288 L17.263168,146.456 C17.263168,147.176004 17.2311683,147.719998 17.167168,148.088 L18.679168,148.016 L18.679168,149 L13.783168,149 L13.783168,148.28 C14.2471703,148.28 14.579167,148.164001 14.779168,147.932 C14.979169,147.699999 15.0991678,147.404002 15.139168,147.044 C15.1791682,146.683998 15.199168,146.120004 15.199168,145.352 L15.199168,139.88 C15.199168,139.207997 15.2311677,138.688002 15.295168,138.32 L13.591168,138.416 L13.591168,137.408 C14.5351727,137.408 15.1831662,137.356001 15.535168,137.252 C15.8871698,137.147999 16.1831668,136.984001 16.423168,136.76 L17.119168,136.76 C17.1511682,137.000001 17.1831678,137.423997 17.215168,138.032 C17.7111705,137.599998 18.2711649,137.256001 18.895168,137 C19.5191711,136.743999 20.135165,136.616 20.743168,136.616 C21.5271719,136.616 22.1951652,136.755999 22.747168,137.036 C23.2991708,137.316001 23.7271665,137.711997 24.031168,138.224 C24.6071709,137.759998 25.2511644,137.376002 25.963168,137.072 C26.6751716,136.767998 27.3591647,136.616 28.015168,136.616 C29.423175,136.616 30.4511648,137.043996 31.099168,137.9 Z M43.823296,137.348 C44.6233,137.836002 45.2672936,138.531995 45.755296,139.436 C46.2432984,140.340005 46.487296,141.383994 46.487296,142.568 C46.487296,143.896007 46.2072988,145.075995 45.647296,146.108 C45.0872932,147.140005 44.3393007,147.943997 43.403296,148.52 C42.4672913,149.096003 41.4553014,149.384 40.367296,149.384 C39.2632905,149.384 38.3033001,149.120003 37.487296,148.592 L37.487296,152.576 C37.487296,153.296004 37.4552963,153.839998 37.391296,154.208 L38.903296,154.136 L38.903296,155.12 L34.007296,155.12 L34.007296,154.4 C34.4712983,154.4 34.803295,154.284001 35.003296,154.052 C35.203297,153.819999 35.3192958,153.532002 35.351296,153.188 C35.3832962,152.843998 35.4072959,152.272004 35.423296,151.472 L35.471296,139.88 C35.471296,139.207997 35.5032957,138.688002 35.567296,138.32 L33.863296,138.416 L33.863296,137.408 C34.8073007,137.408 35.4552942,137.356001 35.807296,137.252 C36.1592978,137.147999 36.4472949,136.984001 36.671296,136.76 L37.391296,136.76 C37.4552963,137.544004 37.487296,137.976 37.487296,138.056 C37.9672984,137.623998 38.5432926,137.276001 39.215296,137.012 C39.8872994,136.747999 40.5512927,136.616 41.207296,136.616 C42.1513007,136.616 43.023292,136.859998 43.823296,137.348 Z M38.807296,138.176 C38.3112935,138.432001 37.8792978,138.751998 37.511296,139.136 C37.5272961,139.248001 37.535296,139.735996 37.535296,140.6 L37.511296,147.488 C38.3273001,148.112003 39.2632907,148.424 40.319296,148.424 C41.0712998,148.424 41.7232932,148.192002 42.275296,147.728 C42.8272988,147.263998 43.2552945,146.616004 43.559296,145.784 C43.8632975,144.951996 44.015296,144.008005 44.015296,142.952 C44.015296,141.511993 43.7072991,140.292005 43.091296,139.292 C42.4752929,138.291995 41.5593021,137.792 40.343296,137.792 C39.8152934,137.792 39.3032985,137.919999 38.807296,138.176 Z M56.223424,137 C56.5434256,137.256001 56.703424,137.631998 56.703424,138.128 C56.703424,138.384001 56.603425,138.639999 56.403424,138.896 C56.203423,139.152001 55.9194258,139.28 55.551424,139.28 C55.1994222,139.28 54.9114251,139.148001 54.687424,138.884 C54.4634229,138.619999 54.3754238,138.304002 54.423424,137.936 C53.815421,137.92 53.2034271,138.151998 52.587424,138.632 C51.9714209,139.112002 51.4474262,139.751996 51.015424,140.552 L51.039424,146.456 C51.039424,147.176004 51.0074243,147.719998 50.943424,148.088 L52.455424,148.016 L52.455424,149 L47.535424,149 L47.535424,148.28 C47.9994263,148.28 48.331423,148.164001 48.531424,147.932 C48.731425,147.699999 48.8514238,147.404002 48.891424,147.044 C48.9314242,146.683998 48.951424,146.120004 48.951424,145.352 L48.951424,139.88 C48.951424,139.207997 48.9834237,138.688002 49.047424,138.32 L47.343424,138.392 L47.343424,137.408 L48.087424,137.408 C48.695427,137.408 49.1354226,137.356001 49.407424,137.252 C49.6794254,137.147999 49.9354228,136.984001 50.175424,136.76 L50.871424,136.76 C50.9354243,137.384003 50.9754239,138.175995 50.991424,139.136 C51.391426,138.479997 51.9634203,137.896003 52.707424,137.384 C53.4514277,136.871997 54.22342,136.616 55.023424,136.616 C55.5034264,136.616 55.9034224,136.743999 56.223424,137 Z M65.215552,137.216 C65.9515557,137.616002 66.5355498,138.211996 66.967552,139.004 C67.3995542,139.796004 67.615552,140.767994 67.615552,141.92 L59.167552,142.064 C59.1515519,143.98401 59.4675488,145.479995 60.115552,146.552 C60.7635552,147.624005 61.7675452,148.16 63.127552,148.16 C63.8635557,148.16 64.6195481,147.968002 65.395552,147.584 C66.1715559,147.199998 66.7675499,146.728003 67.183552,146.168 L67.759552,146.648 C67.151549,147.576005 66.3635568,148.263998 65.395552,148.712 C64.4275472,149.160002 63.4795566,149.384 62.551552,149.384 C61.4475465,149.384 60.4515564,149.124003 59.563552,148.604 C58.6755476,148.083997 57.9755546,147.340005 57.463552,146.372 C56.9515494,145.403995 56.695552,144.288006 56.695552,143.024 C56.695552,141.903994 56.9515494,140.852005 57.463552,139.868 C57.9755546,138.883995 58.6915474,138.096003 59.611552,137.504 C60.5315566,136.911997 61.5755462,136.616 62.743552,136.616 C63.6555566,136.616 64.4795483,136.815998 65.215552,137.216 Z M59.239552,141.056 L65.359552,141.056 C65.359552,140.095995 65.1435542,139.272003 64.711552,138.584 C64.2795498,137.895997 63.6315563,137.552 62.767552,137.552 C60.7835421,137.552 59.6075538,138.719988 59.239552,141.056 Z M79.15168,137.924 C79.7916832,138.796004 80.11168,140.151991 80.11168,141.992 L80.11168,146.456 C80.11168,147.176004 80.0796803,147.719998 80.01568,148.088 L81.52768,148.016 L81.52768,149 L76.63168,149 L76.63168,148.28 C77.0956823,148.28 77.427679,148.164001 77.62768,147.932 C77.827681,147.699999 77.9476798,147.404002 77.98768,147.044 C78.0276802,146.683998 78.04768,146.120004 78.04768,145.352 L78.04768,141.992 C78.0316799,140.615993 77.8076822,139.580003 77.37568,138.884 C76.9436778,138.187997 76.2636846,137.84 75.33568,137.84 C74.7596771,137.84 74.1876828,137.983999 73.61968,138.272 C73.0516772,138.560001 72.5836818,138.935998 72.21568,139.4 C72.2316801,139.576001 72.23968,139.887998 72.23968,140.336 L72.21568,146.456 C72.21568,147.176004 72.1836803,147.719998 72.11968,148.088 L73.63168,148.016 L73.63168,149 L68.73568,149 L68.73568,148.28 C69.1996823,148.28 69.531679,148.164001 69.73168,147.932 C69.931681,147.699999 70.0476798,147.412002 70.07968,147.068 C70.1116802,146.723998 70.1356799,146.152004 70.15168,145.352 L70.17568,139.88 C70.17568,139.207997 70.2076797,138.688002 70.27168,138.32 L68.56768,138.416 L68.56768,137.408 C69.5116847,137.408 70.1596782,137.356001 70.51168,137.252 C70.8636818,137.147999 71.1596788,136.984001 71.39968,136.76 L72.09568,136.76 C72.1276802,137.064002 72.1596798,137.551997 72.19168,138.224 C72.7356827,137.743998 73.3556765,137.356001 74.05168,137.06 C74.7476835,136.763999 75.4316766,136.616 76.10368,136.616 C77.495687,136.616 78.5116768,137.051996 79.15168,137.924 Z M93.255808,146.456 C93.255808,146.968003 93.2238083,147.511997 93.159808,148.088 L94.863808,147.992 L94.863808,149 L91.431808,149 C91.3518076,148.567998 91.2958082,148.152002 91.263808,147.752 C90.7998057,148.264003 90.2358113,148.663999 89.571808,148.952 C88.9078047,149.240001 88.1918118,149.384 87.423808,149.384 C86.431803,149.384 85.5438119,149.136002 84.759808,148.64 C83.9758041,148.143998 83.3598102,147.440005 82.911808,146.528 C82.4638058,145.615995 82.239808,144.552006 82.239808,143.336 C82.239808,142.055994 82.5038054,140.904005 83.031808,139.88 C83.5598106,138.855995 84.2918033,138.056003 85.227808,137.48 C86.1638127,136.903997 87.2238021,136.616 88.407808,136.616 C88.9038105,136.616 89.4118054,136.683999 89.931808,136.82 C90.4518106,136.956001 90.8798063,137.111999 91.215808,137.288 L91.215808,134 C91.215808,133.391997 91.2398078,132.872002 91.287808,132.44 L89.583808,132.536 L89.583808,131.528 C90.5278127,131.528 91.203806,131.472001 91.611808,131.36 C92.01981,131.247999 92.3358069,131.088001 92.559808,130.88 L93.255808,130.88 L93.255808,146.456 Z M85.767808,138.98 C85.0638045,139.932005 84.711808,141.191992 84.711808,142.76 C84.711808,144.392008 85.0238049,145.707995 85.647808,146.708 C86.2718111,147.708005 87.1518023,148.208 88.287808,148.208 C88.7998106,148.208 89.3238053,148.060001 89.859808,147.764 C90.3958107,147.467999 90.8478062,147.088002 91.215808,146.624 C91.1998079,146.367999 91.191808,145.928003 91.191808,145.304 L91.215808,138.392 C90.4638042,137.831997 89.5758131,137.552 88.551808,137.552 C87.3998022,137.552 86.4718115,138.027995 85.767808,138.98 Z M98.947936,131.948 C99.1959372,132.228001 99.319936,132.567998 99.319936,132.968 C99.319936,133.352002 99.1879373,133.683999 98.923936,133.964 C98.6599347,134.244001 98.3519378,134.384 97.999936,134.384 C97.6639343,134.384 97.3679373,134.244001 97.111936,133.964 C96.8559347,133.683999 96.727936,133.352002 96.727936,132.968 C96.727936,132.583998 96.8599347,132.248001 97.123936,131.96 C97.3879373,131.671999 97.6879343,131.528 98.023936,131.528 C98.3919378,131.528 98.6999348,131.667999 98.947936,131.948 Z M99.103936,146.456 C99.103936,147.176004 99.0719363,147.719998 99.007936,148.088 L100.519936,148.016 L100.519936,149 L95.623936,149 L95.623936,148.28 C96.0879383,148.28 96.419935,148.164001 96.619936,147.932 C96.819937,147.699999 96.9399358,147.404002 96.979936,147.044 C97.0199362,146.683998 97.039936,146.120004 97.039936,145.352 L97.039936,139.88 C97.039936,139.415998 97.0719357,138.896003 97.135936,138.32 L95.431936,138.416 L95.431936,137.408 C96.3759407,137.408 97.051934,137.352001 97.459936,137.24 C97.867938,137.127999 98.1839349,136.968001 98.407936,136.76 L99.103936,136.76 L99.103936,146.456 Z M118.668064,137.9 C119.316067,138.756004 119.624064,140.119991 119.592064,141.992 L119.568064,146.456 C119.568064,147.176004 119.536064,147.719998 119.472064,148.088 L120.984064,148.016 L120.984064,149 L116.088064,149 L116.088064,148.28 C116.552066,148.28 116.884063,148.164001 117.084064,147.932 C117.284065,147.699999 117.404064,147.404002 117.444064,147.044 C117.484064,146.683998 117.504064,146.120004 117.504064,145.352 L117.504064,141.992 C117.504064,140.615993 117.288066,139.588003 116.856064,138.908 C116.424062,138.227997 115.744069,137.888 114.816064,137.888 C114.320062,137.888 113.820067,137.995999 113.316064,138.212 C112.812061,138.428001 112.368066,138.711998 111.984064,139.064 C112.144065,139.560002 112.224064,140.143997 112.224064,140.816 L112.176064,146.456 C112.176064,147.176004 112.144064,147.719998 112.080064,148.088 L113.592064,148.016 L113.592064,149 L108.696064,149 L108.696064,148.28 C109.160066,148.28 109.492063,148.164001 109.692064,147.932 C109.892065,147.699999 110.008064,147.412002 110.040064,147.068 C110.072064,146.723998 110.096064,146.152004 110.112064,145.352 L110.136064,141.992 C110.152064,140.599993 109.952066,139.560003 109.536064,138.872 C109.120062,138.183997 108.456069,137.84 107.544064,137.84 C107.048062,137.84 106.556066,137.943999 106.068064,138.152 C105.580062,138.360001 105.160066,138.639998 104.808064,138.992 L104.832064,140.288 L104.832064,146.456 C104.832064,147.176004 104.800064,147.719998 104.736064,148.088 L106.248064,148.016 L106.248064,149 L101.352064,149 L101.352064,148.28 C101.816066,148.28 102.148063,148.164001 102.348064,147.932 C102.548065,147.699999 102.668064,147.404002 102.708064,147.044 C102.748064,146.683998 102.768064,146.120004 102.768064,145.352 L102.768064,139.88 C102.768064,139.207997 102.800064,138.688002 102.864064,138.32 L101.160064,138.416 L101.160064,137.408 C102.104069,137.408 102.752062,137.356001 103.104064,137.252 C103.456066,137.147999 103.752063,136.984001 103.992064,136.76 L104.688064,136.76 C104.720064,137.000001 104.752064,137.423997 104.784064,138.032 C105.280066,137.599998 105.840061,137.256001 106.464064,137 C107.088067,136.743999 107.704061,136.616 108.312064,136.616 C109.096068,136.616 109.764061,136.755999 110.316064,137.036 C110.868067,137.316001 111.296062,137.711997 111.600064,138.224 C112.176067,137.759998 112.82006,137.376002 113.532064,137.072 C114.244068,136.767998 114.928061,136.616 115.584064,136.616 C116.992071,136.616 118.020061,137.043996 118.668064,137.9 Z M125.116192,131.948 C125.364193,132.228001 125.488192,132.567998 125.488192,132.968 C125.488192,133.352002 125.356193,133.683999 125.092192,133.964 C124.828191,134.244001 124.520194,134.384 124.168192,134.384 C123.83219,134.384 123.536193,134.244001 123.280192,133.964 C123.024191,133.683999 122.896192,133.352002 122.896192,132.968 C122.896192,132.583998 123.028191,132.248001 123.292192,131.96 C123.556193,131.671999 123.85619,131.528 124.192192,131.528 C124.560194,131.528 124.868191,131.667999 125.116192,131.948 Z M125.272192,146.456 C125.272192,147.176004 125.240192,147.719998 125.176192,148.088 L126.688192,148.016 L126.688192,149 L121.792192,149 L121.792192,148.28 C122.256194,148.28 122.588191,148.164001 122.788192,147.932 C122.988193,147.699999 123.108192,147.404002 123.148192,147.044 C123.188192,146.683998 123.208192,146.120004 123.208192,145.352 L123.208192,139.88 C123.208192,139.415998 123.240192,138.896003 123.304192,138.32 L121.600192,138.416 L121.600192,137.408 C122.544197,137.408 123.22019,137.352001 123.628192,137.24 C124.036194,137.127999 124.352191,136.968001 124.576192,136.76 L125.272192,136.76 L125.272192,146.456 Z M135.99232,137.216 C136.728324,137.616002 137.312318,138.211996 137.74432,139.004 C138.176322,139.796004 138.39232,140.767994 138.39232,141.92 L129.94432,142.064 C129.92832,143.98401 130.244317,145.479995 130.89232,146.552 C131.540323,147.624005 132.544313,148.16 133.90432,148.16 C134.640324,148.16 135.396316,147.968002 136.17232,147.584 C136.948324,147.199998 137.544318,146.728003 137.96032,146.168 L138.53632,146.648 C137.928317,147.576005 137.140325,148.263998 136.17232,148.712 C135.204315,149.160002 134.256325,149.384 133.32832,149.384 C132.224314,149.384 131.228324,149.124003 130.34032,148.604 C129.452316,148.083997 128.752323,147.340005 128.24032,146.372 C127.728317,145.403995 127.47232,144.288006 127.47232,143.024 C127.47232,141.903994 127.728317,140.852005 128.24032,139.868 C128.752323,138.883995 129.468315,138.096003 130.38832,137.504 C131.308325,136.911997 132.352314,136.616 133.52032,136.616 C134.432325,136.616 135.256316,136.815998 135.99232,137.216 Z M130.01632,141.056 L136.13632,141.056 C136.13632,140.095995 135.920322,139.272003 135.48832,138.584 C135.056318,137.895997 134.408324,137.552 133.54432,137.552 C131.56031,137.552 130.384322,138.719988 130.01632,141.056 Z M149.928448,137.924 C150.568451,138.796004 150.888448,140.151991 150.888448,141.992 L150.888448,146.456 C150.888448,147.176004 150.856448,147.719998 150.792448,148.088 L152.304448,148.016 L152.304448,149 L147.408448,149 L147.408448,148.28 C147.87245,148.28 148.204447,148.164001 148.404448,147.932 C148.604449,147.699999 148.724448,147.404002 148.764448,147.044 C148.804448,146.683998 148.824448,146.120004 148.824448,145.352 L148.824448,141.992 C148.808448,140.615993 148.58445,139.580003 148.152448,138.884 C147.720446,138.187997 147.040453,137.84 146.112448,137.84 C145.536445,137.84 144.964451,137.983999 144.396448,138.272 C143.828445,138.560001 143.36045,138.935998 142.992448,139.4 C143.008448,139.576001 143.016448,139.887998 143.016448,140.336 L142.992448,146.456 C142.992448,147.176004 142.960448,147.719998 142.896448,148.088 L144.408448,148.016 L144.408448,149 L139.512448,149 L139.512448,148.28 C139.97645,148.28 140.308447,148.164001 140.508448,147.932 C140.708449,147.699999 140.824448,147.412002 140.856448,147.068 C140.888448,146.723998 140.912448,146.152004 140.928448,145.352 L140.952448,139.88 C140.952448,139.207997 140.984448,138.688002 141.048448,138.32 L139.344448,138.416 L139.344448,137.408 C140.288453,137.408 140.936446,137.356001 141.288448,137.252 C141.64045,137.147999 141.936447,136.984001 142.176448,136.76 L142.872448,136.76 C142.904448,137.064002 142.936448,137.551997 142.968448,138.224 C143.512451,137.743998 144.132445,137.356001 144.828448,137.06 C145.524451,136.763999 146.208445,136.616 146.880448,136.616 C148.272455,136.616 149.288445,137.051996 149.928448,137.924 Z M156.256576,137 L160.288576,137 L160.288576,137.936 L156.256576,137.984 C156.240576,140.432012 156.228576,142.127995 156.220576,143.072 C156.212576,144.016005 156.208576,144.543999 156.208576,144.656 C156.208576,145.792006 156.344575,146.635997 156.616576,147.188 C156.888577,147.740003 157.360573,148.016 158.032576,148.016 C158.448578,148.016 158.860574,147.888001 159.268576,147.632 C159.676578,147.375999 160.032574,147.024002 160.336576,146.576 L160.984576,147.104 C160.360573,148.032005 159.744579,148.643999 159.136576,148.94 C158.528573,149.236001 157.936579,149.384 157.360576,149.384 C155.168565,149.384 154.080576,147.912015 154.096576,144.968 L154.144576,138.008 L152.296576,138.032 L152.296576,137 C153.06458,136.984 153.716573,136.636003 154.252576,135.956 C154.788579,135.275997 155.184575,134.504004 155.440576,133.64 L156.256576,133.64 L156.256576,137 Z M170.120704,137.42 C171.048709,137.956003 171.780701,138.687995 172.316704,139.616 C172.852707,140.544005 173.120704,141.575994 173.120704,142.712 C173.120704,143.928006 172.852707,145.047995 172.316704,146.072 C171.780701,147.096005 171.052709,147.903997 170.132704,148.496 C169.212699,149.088003 168.19271,149.384 167.072704,149.384 C165.968698,149.384 164.956709,149.124003 164.036704,148.604 C163.116699,148.083997 162.388707,147.360005 161.852704,146.432 C161.316701,145.503995 161.048704,144.456006 161.048704,143.288 C161.048704,142.039994 161.312701,140.908005 161.840704,139.892 C162.368707,138.875995 163.092699,138.076003 164.012704,137.492 C164.932709,136.907997 165.952698,136.616 167.072704,136.616 C168.17671,136.616 169.192699,136.883997 170.120704,137.42 Z M164.396704,138.992 C163.796701,139.968005 163.496704,141.167993 163.496704,142.592 C163.496704,143.616005 163.636703,144.571996 163.916704,145.46 C164.196705,146.348004 164.620701,147.063997 165.188704,147.608 C165.756707,148.152003 166.4487,148.424 167.264704,148.424 C168.43271,148.424 169.292701,147.944005 169.844704,146.984 C170.396707,146.023995 170.672704,144.832007 170.672704,143.408 C170.672704,141.791992 170.372707,140.408006 169.772704,139.256 C169.172701,138.103994 168.27271,137.528 167.072704,137.528 C165.888698,137.528 164.996707,138.015995 164.396704,138.992 Z M179.964832,136.856 C180.484835,137.016001 180.96883,137.279998 181.416832,137.648 L181.368832,136.736 L182.376832,136.736 L182.376832,140.936 L181.608832,140.936 C181.560832,140.007995 181.276835,139.204003 180.756832,138.524 C180.236829,137.843997 179.504837,137.504 178.560832,137.504 C177.840828,137.504 177.268834,137.683998 176.844832,138.044 C176.42083,138.404002 176.208832,138.831998 176.208832,139.328 C176.208832,139.792002 176.348831,140.183998 176.628832,140.504 C176.908833,140.824002 177.25683,141.095999 177.672832,141.32 C178.088834,141.544001 178.648828,141.791999 179.352832,142.064 C180.184836,142.400002 180.856829,142.711999 181.368832,143 C181.880835,143.288001 182.31683,143.667998 182.676832,144.14 C183.036834,144.612002 183.216832,145.183997 183.216832,145.856 C183.216832,146.624004 183.020834,147.271997 182.628832,147.8 C182.23683,148.328003 181.724835,148.723999 181.092832,148.988 C180.460829,149.252001 179.784836,149.384 179.064832,149.384 C178.312828,149.384 177.624835,149.284001 177.000832,149.084 C176.376829,148.883999 175.840834,148.632002 175.392832,148.328 L175.488832,149.168 L174.480832,149.168 L174.336832,145.04 L175.080832,145.04 C175.112832,145.696003 175.29283,146.279997 175.620832,146.792 C175.948834,147.304003 176.380829,147.707999 176.916832,148.004 C177.452835,148.300001 178.024829,148.448 178.632832,148.448 C179.320835,148.448 179.932829,148.284002 180.468832,147.956 C181.004835,147.627998 181.272832,147.160003 181.272832,146.552 C181.272832,146.103998 181.140833,145.728002 180.876832,145.424 C180.612831,145.119998 180.284834,144.868001 179.892832,144.668 C179.50083,144.467999 178.952836,144.232001 178.248832,143.96 C177.400828,143.639998 176.720835,143.340001 176.208832,143.06 C175.696829,142.779999 175.256834,142.400002 174.888832,141.92 C174.52083,141.439998 174.336832,140.832004 174.336832,140.096 C174.336832,139.567997 174.464831,139.040003 174.720832,138.512 C174.976833,137.983997 175.408829,137.536002 176.016832,137.168 C176.624835,136.799998 177.432827,136.616 178.440832,136.616 C178.936834,136.616 179.444829,136.695999 179.964832,136.856 Z" id="Emprendimientos" fill="#FF9800"></path>
                    </g>
                </g>
            </g>
        </g>
    </g>
</svg>