<?xml version="1.0" encoding="UTF-8"?>
<svg width="117px" height="151px" viewBox="0 0 117 151" version="1.1" xmlns="http://www.w3.org/2000/svg" xmlns:xlink="http://www.w3.org/1999/xlink">
    <!-- Generator: Sketch 46.2 (44496) - http://www.bohemiancoding.com/sketch -->
    <title>CircleRurales</title>
    <desc>Created with Sketch.</desc>
    <defs></defs>
    <g id="Arq-Carlos-Varela" stroke="none" stroke-width="1" fill="none" fill-rule="evenodd">
        <g id="Desktop" transform="translate(-456.000000, -2020.000000)">
            <g id="TASACIONES" transform="translate(-9.000000, 1643.000000)">
                <g id="Todos" transform="translate(177.000000, 378.000000)">
                    <g id="CircleRurales" transform="translate(289.000000, 0.000000)">
                        <ellipse id="Oval-2" stroke="#FF9800" cx="57.5" cy="57.6184211" rx="57.5" ry="57.6184211"></ellipse>
                        <path d="M28.999552,133.316 C30.0475572,134.044004 30.571552,135.095993 30.571552,136.472 C30.5875521,137.576006 30.2595554,138.567996 29.587552,139.448 C28.9155486,140.328004 27.7475603,140.935998 26.083552,141.272 C26.3555534,141.480001 26.6035509,141.727999 26.827552,142.016 C27.0515531,142.304001 27.3555501,142.751997 27.739552,143.36 L29.371552,145.928 C29.7235538,146.488003 30.0155508,146.915999 30.247552,147.212 C30.4795532,147.508001 30.7595504,147.747999 31.087552,147.932 C31.4155536,148.116001 31.8195496,148.208 32.299552,148.208 L32.299552,149 L29.275552,149 C28.8435498,148.631998 28.4795535,148.252002 28.183552,147.86 C27.8875505,147.467998 27.539554,146.960003 27.139552,146.336 L25.531552,143.768 L25.219552,143.264 C24.9635507,142.831998 24.739553,142.480001 24.547552,142.208 C24.355551,141.935999 24.1475531,141.696001 23.923552,141.488 C23.7795513,141.504 23.5555535,141.512 23.251552,141.512 C22.8195498,141.512 22.499553,141.504 22.291552,141.488 L22.291552,146.144 C22.291552,146.992004 22.2675522,147.623998 22.219552,148.04 L23.947552,147.944 L23.947552,149 L18.547552,149 L18.547552,148.208 C19.1075548,148.192 19.5075508,148.064001 19.747552,147.824 C19.9875532,147.583999 20.1235518,147.300002 20.155552,146.972 C20.1875522,146.643998 20.203552,146.072004 20.203552,145.256 L20.203552,134.888 C20.203552,134.215997 20.2275518,133.640002 20.275552,133.16 L18.547552,133.256 L18.547552,132.2 C20.2115603,132.168 21.4675478,132.152 22.315552,132.152 C23.0835558,132.152 23.6595501,132.16 24.043552,132.176 C26.2995633,132.208 27.9515468,132.587996 28.999552,133.316 Z M22.747552,133.424 C22.5075508,133.648001 22.3715522,133.919998 22.339552,134.24 C22.3075518,134.560002 22.291552,135.127996 22.291552,135.944 L22.291552,140.552 C22.7715544,140.584 23.1235509,140.6 23.347552,140.6 C26.6115683,140.6 28.243552,139.312013 28.243552,136.736 C28.243552,135.519994 27.8915555,134.608003 27.187552,134 C26.4835485,133.391997 25.4035593,133.088 23.947552,133.088 C23.3875492,133.088 22.9875532,133.199999 22.747552,133.424 Z M43.28368,145.832 C43.28368,146.760005 43.2516803,147.511997 43.18768,148.088 L44.91568,147.992 L44.91568,149 L41.48368,149 C41.4036796,148.503998 41.3476802,148.024002 41.31568,147.56 C40.7876774,148.088003 40.1716835,148.523998 39.46768,148.868 C38.7636765,149.212002 38.0756834,149.384 37.40368,149.384 C36.0436732,149.384 35.0476832,148.992004 34.41568,148.208 C33.7836768,147.423996 33.46768,146.07201 33.46768,144.152 L33.46768,139.88 C33.46768,139.207997 33.4996797,138.688002 33.56368,138.32 L31.90768,138.392 L31.90768,137.408 L32.65168,137.408 C33.2756831,137.408 33.7476784,137.352001 34.06768,137.24 C34.3876816,137.127999 34.6596789,136.968001 34.88368,136.76 L35.57968,136.76 L35.57968,144.08 C35.57968,145.488007 35.775678,146.519997 36.16768,147.176 C36.559682,147.832003 37.2116754,148.16 38.12368,148.16 C38.715683,148.16 39.2956772,147.984002 39.86368,147.632 C40.4316828,147.279998 40.8916782,146.840003 41.24368,146.312 L41.24368,140.144 C41.24368,139.391996 41.2836796,138.784002 41.36368,138.32 L39.63568,138.392 L39.63568,137.408 L40.37968,137.408 C41.0036831,137.408 41.4756784,137.352001 41.79568,137.24 C42.1156816,137.127999 42.3876789,136.968001 42.61168,136.76 L43.30768,136.76 L43.28368,145.832 Z M54.339808,137 C54.6598096,137.256001 54.819808,137.631998 54.819808,138.128 C54.819808,138.384001 54.719809,138.639999 54.519808,138.896 C54.319807,139.152001 54.0358098,139.28 53.667808,139.28 C53.3158062,139.28 53.0278091,139.148001 52.803808,138.884 C52.5798069,138.619999 52.4918078,138.304002 52.539808,137.936 C51.931805,137.92 51.3198111,138.151998 50.703808,138.632 C50.0878049,139.112002 49.5638102,139.751996 49.131808,140.552 L49.155808,146.456 C49.155808,147.176004 49.1238083,147.719998 49.059808,148.088 L50.571808,148.016 L50.571808,149 L45.651808,149 L45.651808,148.28 C46.1158103,148.28 46.447807,148.164001 46.647808,147.932 C46.847809,147.699999 46.9678078,147.404002 47.007808,147.044 C47.0478082,146.683998 47.067808,146.120004 47.067808,145.352 L47.067808,139.88 C47.067808,139.207997 47.0998077,138.688002 47.163808,138.32 L45.459808,138.392 L45.459808,137.408 L46.203808,137.408 C46.811811,137.408 47.2518066,137.356001 47.523808,137.252 C47.7958094,137.147999 48.0518068,136.984001 48.291808,136.76 L48.987808,136.76 C49.0518083,137.384003 49.0918079,138.175995 49.107808,139.136 C49.50781,138.479997 50.0798043,137.896003 50.823808,137.384 C51.5678117,136.871997 52.339804,136.616 53.139808,136.616 C53.6198104,136.616 54.0198064,136.743999 54.339808,137 Z M63.067936,137.684 C63.7079392,138.396004 64.0199361,139.519992 64.003936,141.056 L63.979936,146.456 C63.979936,146.968003 63.9479363,147.511997 63.883936,148.088 L65.587936,147.992 L65.587936,149 L62.155936,149 C62.1079358,148.759999 62.0519363,148.304003 61.987936,147.632 C60.8199302,148.800006 59.5639427,149.384 58.219936,149.384 C57.0519302,149.384 56.1599391,149.120003 55.543936,148.592 C54.9279329,148.063997 54.619936,147.376004 54.619936,146.528 C54.619936,145.599995 54.9919323,144.816003 55.735936,144.176 C56.4799397,143.535997 57.4159304,143.060002 58.543936,142.748 C59.6719416,142.435998 60.8039303,142.288 61.939936,142.304 L61.939936,140.816 C61.939936,139.775995 61.7879375,138.964003 61.483936,138.38 C61.1799345,137.795997 60.531941,137.504 59.539936,137.504 C59.0439335,137.504 58.5719382,137.607999 58.123936,137.816 C57.6759338,138.024001 57.347937,138.335998 57.139936,138.752 C57.347937,138.976001 57.451936,139.279998 57.451936,139.664 C57.451936,139.904001 57.3639369,140.131999 57.187936,140.348 C57.0119351,140.564001 56.7559377,140.672 56.419936,140.672 C56.0839343,140.672 55.819937,140.564001 55.627936,140.348 C55.435935,140.131999 55.339936,139.848002 55.339936,139.496 C55.339936,138.967997 55.543934,138.484002 55.951936,138.044 C56.359938,137.603998 56.9279324,137.256001 57.655936,137 C58.3839396,136.743999 59.1959315,136.616 60.091936,136.616 C61.4359427,136.616 62.4279328,136.971996 63.067936,137.684 Z M58.435936,143.924 C57.4119309,144.412002 56.899936,145.159995 56.899936,146.168 C56.899936,146.760003 57.0759342,147.215998 57.427936,147.536 C57.7799378,147.856002 58.2279333,148.016 58.771936,148.016 C59.379939,148.016 59.9319335,147.900001 60.427936,147.668 C60.9239385,147.435999 61.4279334,147.080002 61.939936,146.6 C61.9239359,146.359999 61.915936,145.952003 61.915936,145.376 L61.939936,143.12 C60.6279294,143.168 59.4599411,143.435998 58.435936,143.924 Z M69.492064,146.456 C69.492064,147.080003 69.4520644,147.623998 69.372064,148.088 L70.884064,148.016 L70.884064,149 L65.988064,149 L65.988064,148.28 C66.4520663,148.28 66.784063,148.164001 66.984064,147.932 C67.184065,147.699999 67.3040638,147.404002 67.344064,147.044 C67.3840642,146.683998 67.404064,146.120004 67.404064,145.352 L67.404064,134 C67.404064,133.391997 67.4280638,132.872002 67.476064,132.44 L65.772064,132.536 L65.772064,131.528 C66.7320688,131.528 67.416062,131.472001 67.824064,131.36 C68.232066,131.247999 68.5480629,131.088001 68.772064,130.88 L69.468064,130.88 L69.492064,146.456 Z M80.212192,137.216 C80.9481957,137.616002 81.5321898,138.211996 81.964192,139.004 C82.3961942,139.796004 82.612192,140.767994 82.612192,141.92 L74.164192,142.064 C74.1481919,143.98401 74.4641888,145.479995 75.112192,146.552 C75.7601952,147.624005 76.7641852,148.16 78.124192,148.16 C78.8601957,148.16 79.6161881,147.968002 80.392192,147.584 C81.1681959,147.199998 81.7641899,146.728003 82.180192,146.168 L82.756192,146.648 C82.148189,147.576005 81.3601968,148.263998 80.392192,148.712 C79.4241872,149.160002 78.4761966,149.384 77.548192,149.384 C76.4441865,149.384 75.4481964,149.124003 74.560192,148.604 C73.6721876,148.083997 72.9721946,147.340005 72.460192,146.372 C71.9481894,145.403995 71.692192,144.288006 71.692192,143.024 C71.692192,141.903994 71.9481894,140.852005 72.460192,139.868 C72.9721946,138.883995 73.6881874,138.096003 74.608192,137.504 C75.5281966,136.911997 76.5721862,136.616 77.740192,136.616 C78.6521966,136.616 79.4761883,136.815998 80.212192,137.216 Z M74.236192,141.056 L80.356192,141.056 C80.356192,140.095995 80.1401942,139.272003 79.708192,138.584 C79.2761898,137.895997 78.6281963,137.552 77.764192,137.552 C75.7801821,137.552 74.6041938,138.719988 74.236192,141.056 Z M89.55232,136.856 C90.0723226,137.016001 90.5563178,137.279998 91.00432,137.648 L90.95632,136.736 L91.96432,136.736 L91.96432,140.936 L91.19632,140.936 C91.1483198,140.007995 90.8643226,139.204003 90.34432,138.524 C89.8243174,137.843997 89.0923247,137.504 88.14832,137.504 C87.4283164,137.504 86.8563221,137.683998 86.43232,138.044 C86.0083179,138.404002 85.79632,138.831998 85.79632,139.328 C85.79632,139.792002 85.9363186,140.183998 86.21632,140.504 C86.4963214,140.824002 86.8443179,141.095999 87.26032,141.32 C87.6763221,141.544001 88.2363165,141.791999 88.94032,142.064 C89.7723242,142.400002 90.4443174,142.711999 90.95632,143 C91.4683226,143.288001 91.9043182,143.667998 92.26432,144.14 C92.6243218,144.612002 92.80432,145.183997 92.80432,145.856 C92.80432,146.624004 92.608322,147.271997 92.21632,147.8 C91.824318,148.328003 91.3123232,148.723999 90.68032,148.988 C90.0483168,149.252001 89.3723236,149.384 88.65232,149.384 C87.9003162,149.384 87.2123231,149.284001 86.58832,149.084 C85.9643169,148.883999 85.4283222,148.632002 84.98032,148.328 L85.07632,149.168 L84.06832,149.168 L83.92432,145.04 L84.66832,145.04 C84.7003202,145.696003 84.8803184,146.279997 85.20832,146.792 C85.5363216,147.304003 85.9683173,147.707999 86.50432,148.004 C87.0403227,148.300001 87.612317,148.448 88.22032,148.448 C88.9083234,148.448 89.5203173,148.284002 90.05632,147.956 C90.5923227,147.627998 90.86032,147.160003 90.86032,146.552 C90.86032,146.103998 90.7283213,145.728002 90.46432,145.424 C90.2003187,145.119998 89.872322,144.868001 89.48032,144.668 C89.088318,144.467999 88.5403235,144.232001 87.83632,143.96 C86.9883158,143.639998 86.3083226,143.340001 85.79632,143.06 C85.2843174,142.779999 84.8443218,142.400002 84.47632,141.92 C84.1083182,141.439998 83.92432,140.832004 83.92432,140.096 C83.92432,139.567997 84.0523187,139.040003 84.30832,138.512 C84.5643213,137.983997 84.996317,137.536002 85.60432,137.168 C86.212323,136.799998 87.020315,136.616 88.02832,136.616 C88.5243225,136.616 89.0323174,136.695999 89.55232,136.856 Z" id="Rurales" fill="#FF9800"></path>
                        <g id="003-terreno" transform="translate(19.000000, 28.000000)" fill-rule="nonzero" fill="#FF9800">
                            <path d="M76.8669798,46.683758 L47.399764,1.0931855 C46.9547803,0.40484303 46.2570007,0 45.5155706,0 C44.7741404,0 44.0760468,0.40484303 43.6313771,1.0931855 L31.4142666,19.995456 L26.5634105,12.4903731 C26.1187409,11.8020307 25.4206472,11.3971876 24.6792171,11.3971876 C23.9377869,11.3971876 23.2400073,11.8020307 22.7950236,12.4903731 L0.694690276,46.683758 C0.15957933,47.5116638 0.0735344945,48.6201539 0.472355446,49.546082 C0.871176398,50.4716458 1.68671814,51.0565 2.57888375,51.0565 L74.9827863,51.0565 C75.8749519,51.0565 76.6904937,50.4716458 77.0893146,49.546082 C77.4884496,48.6197895 77.4024048,47.5116638 76.8669798,46.683758 Z M7.28936743,45.5905725 L24.6792171,18.685091 L29.5297591,26.1901738 C29.9744288,26.8785163 30.6725225,27.2833593 31.4139526,27.2833593 C32.1553827,27.2833593 32.8531624,26.8785163 33.2981461,26.1901738 L45.5152565,7.28790334 L70.2723026,45.5905725 L7.28936743,45.5905725 Z" id="Shape"></path>
                        </g>
                    </g>
                </g>
            </g>
        </g>
    </g>
</svg>