<?xml version="1.0" encoding="UTF-8"?>
<svg width="433px" height="240px" viewBox="0 0 433 240" version="1.1" xmlns="http://www.w3.org/2000/svg" xmlns:xlink="http://www.w3.org/1999/xlink">
    <!-- Generator: Sketch 46.2 (44496) - http://www.bohemiancoding.com/sketch -->
    <title>CircleAfines</title>
    <desc>Created with Sketch.</desc>
    <defs></defs>
    <g id="Arq-Carlos-Varela" stroke="none" stroke-width="1" fill="none" fill-rule="evenodd">
        <g id="Desktop" transform="translate(-297.000000, -2848.000000)">
            <g id="AFINES" transform="translate(-32.000000, 2486.000000)">
                <g id="Todos" transform="translate(329.000000, 363.000000)">
                    <g id="CircleAfines">
                        <g id="planeamiento" transform="translate(145.000000, 0.000000)">
                            <g id="001-infinito-simbolo" transform="translate(19.000000, 48.000000)" fill-rule="nonzero" fill="#FF9800">
                                <path d="M81.0587928,0 C69.5702149,0 56.9982477,16.5002067 52.9813209,22.226989 C48.9267746,16.4533816 36.3955618,0.0515337167 24.9412072,0.0515337167 C11.1891893,0.0515337167 0,11.2555392 0,25.0257669 C0,38.7959945 11.1891893,50 24.9412072,50 C36.4297851,50 49.0017523,33.4997933 53.0186791,27.773011 C57.0732254,33.5466184 69.6046995,49.9484663 81.0587928,49.9484663 C94.8108107,49.9484663 106,38.7444608 106,24.9742331 C106,11.2040055 94.8108107,0 81.0587928,0 Z M24.9412072,46.8781555 C12.9071466,46.8781555 3.11771621,37.0757624 3.11771621,25.0257669 C3.11771621,12.9757713 12.9071466,3.17337826 24.9412072,3.17337826 C35.5240433,3.17337826 48.292468,20.9004536 51.121768,25.0257669 C48.292468,29.1510801 35.5240433,46.8781555 24.9412072,46.8781555 Z M81.0587928,46.8266217 C70.4759567,46.8266217 57.707532,29.0995464 54.878232,24.9742331 C57.7059646,20.8489199 70.4756954,3.12184454 81.0587928,3.12184454 C93.0928534,3.12184454 102.882284,12.9242376 102.882284,24.9742331 C102.882284,37.0242287 93.0928534,46.8266217 81.0587928,46.8266217 Z" id="Shape"></path>
                            </g>
                            <circle id="Oval-2" stroke="#FF9800" cx="72" cy="72" r="72"></circle>
                        </g>
                        <path d="M17.496,175.28 L16.308,175.28 C16.308,173.31199 15.8820043,171.968004 15.03,171.248 C14.1779957,170.527996 12.9840077,170.192 11.448,170.24 L8.352,170.312 C7.48799568,170.336 6.86400192,170.497998 6.48,170.798 C6.09599808,171.098002 5.85600048,171.517997 5.76,172.058 C5.66399952,172.598003 5.616,173.443994 5.616,174.596 L5.616,180.356 L12.384,180.392 L12.132,177.296 L13.716,177.296 L13.716,184.856 L12.528,184.856 C12.528,183.967996 12.4200011,183.290002 12.204,182.822 C11.9879989,182.353998 11.6580022,182.042001 11.214,181.886 C10.7699978,181.729999 10.152004,181.652 9.36,181.652 L8.244,181.688 L5.616,181.796 L5.616,190.04 C5.616,191.288006 5.58000036,192.223997 5.508,192.848 L12.384,192.74 C14.0640084,192.716 15.3479956,192.290004 16.236,191.462 C17.1240044,190.633996 17.568,189.20001 17.568,187.16 L18.792,187.16 L18.576,194.18 L0,194.18 L0,192.992 C0.8400042,192.968 1.4399982,192.776002 1.8,192.416 C2.1600018,192.055998 2.36399976,191.630002 2.412,191.138 C2.46000024,190.645998 2.484,189.788006 2.484,188.564 L2.484,173.012 C2.484,172.003995 2.51999964,171.140004 2.592,170.42 L0,170.564 L0,168.98 L17.316,168.98 L17.496,175.28 Z M46.446192,177.53 C47.4181969,178.814006 47.8801922,180.859986 47.832192,183.668 L47.796192,190.364 C47.796192,191.444005 47.7481925,192.259997 47.652192,192.812 L49.920192,192.704 L49.920192,194.18 L42.576192,194.18 L42.576192,193.1 C43.2721955,193.1 43.7701905,192.926002 44.070192,192.578 C44.3701935,192.229998 44.5501917,191.786003 44.610192,191.246 C44.6701923,190.705997 44.700192,189.860006 44.700192,188.708 L44.700192,183.668 C44.700192,181.60399 44.3761952,180.062005 43.728192,179.042 C43.0801888,178.021995 42.060199,177.512 40.668192,177.512 C39.9241883,177.512 39.1741958,177.673998 38.418192,177.998 C37.6621882,178.322002 36.9961949,178.747997 36.420192,179.276 C36.6601932,180.020004 36.780192,180.895995 36.780192,181.904 L36.708192,190.364 C36.708192,191.444005 36.6601925,192.259997 36.564192,192.812 L38.832192,192.704 L38.832192,194.18 L31.488192,194.18 L31.488192,193.1 C32.1841955,193.1 32.6821905,192.926002 32.982192,192.578 C33.2821935,192.229998 33.4561918,191.798003 33.504192,191.282 C33.5521922,190.765997 33.5881919,189.908006 33.612192,188.708 L33.648192,183.668 C33.6721921,181.57999 33.3721951,180.020005 32.748192,178.988 C32.1241889,177.955995 31.1281988,177.44 29.760192,177.44 C29.0161883,177.44 28.2781957,177.595998 27.546192,177.908 C26.8141883,178.220002 26.1841946,178.639997 25.656192,179.168 L25.692192,181.112 L25.692192,190.364 C25.692192,191.444005 25.6441925,192.259997 25.548192,192.812 L27.816192,192.704 L27.816192,194.18 L20.472192,194.18 L20.472192,193.1 C21.1681955,193.1 21.6661905,192.926002 21.966192,192.578 C22.2661935,192.229998 22.4461917,191.786003 22.506192,191.246 C22.5661923,190.705997 22.596192,189.860006 22.596192,188.708 L22.596192,180.5 C22.596192,179.491995 22.6441915,178.712003 22.740192,178.16 L20.184192,178.304 L20.184192,176.792 C21.6001991,176.792 22.5721894,176.714001 23.100192,176.558 C23.6281946,176.401999 24.0721902,176.156002 24.432192,175.82 L25.476192,175.82 C25.5241922,176.180002 25.5721918,176.815995 25.620192,177.728 C26.3641957,177.079997 27.2041873,176.564002 28.140192,176.18 C29.0761967,175.795998 30.0001874,175.604 30.912192,175.604 C32.0881979,175.604 33.0901879,175.813998 33.918192,176.234 C34.7461961,176.654002 35.3881897,177.247996 35.844192,178.016 C36.7081963,177.319997 37.6741867,176.744002 38.742192,176.288 C39.8101973,175.831998 40.8361871,175.604 41.820192,175.604 C43.9322026,175.604 45.4741871,176.245994 46.446192,177.53 Z M65.532384,176.702 C66.73239,177.434004 67.6983803,178.477993 68.430384,179.834 C69.1623877,181.190007 69.528384,182.755991 69.528384,184.532 C69.528384,186.52401 69.1083882,188.293992 68.268384,189.842 C67.4283798,191.390008 66.306391,192.595996 64.902384,193.46 C63.498377,194.324004 61.9803922,194.756 60.348384,194.756 C58.6923757,194.756 57.2523901,194.360004 56.028384,193.568 L56.028384,199.544 C56.028384,200.624005 55.9803845,201.439997 55.884384,201.992 L58.152384,201.884 L58.152384,203.36 L50.808384,203.36 L50.808384,202.28 C51.5043875,202.28 52.0023825,202.106002 52.302384,201.758 C52.6023855,201.409998 52.7763838,200.978003 52.824384,200.462 C52.8723842,199.945997 52.9083839,199.088006 52.932384,197.888 L53.004384,180.5 C53.004384,179.491995 53.0523835,178.712003 53.148384,178.16 L50.592384,178.304 L50.592384,176.792 C52.0083911,176.792 52.9803814,176.714001 53.508384,176.558 C54.0363866,176.401999 54.4683823,176.156002 54.804384,175.82 L55.884384,175.82 C55.9803845,176.996006 56.028384,177.643999 56.028384,177.764 C56.7483876,177.115997 57.612379,176.594002 58.620384,176.198 C59.628389,175.801998 60.6243791,175.604 61.608384,175.604 C63.0243911,175.604 64.332378,175.969996 65.532384,176.702 Z M58.008384,177.944 C57.2643803,178.328002 56.6163868,178.807997 56.064384,179.384 C56.0883841,179.552001 56.100384,180.283994 56.100384,181.58 L56.064384,191.912 C57.2883901,192.848005 58.6923761,193.316 60.276384,193.316 C61.4043896,193.316 62.3823799,192.968003 63.210384,192.272 C64.0383881,191.575997 64.6803817,190.604006 65.136384,189.356 C65.5923863,188.107994 65.820384,186.692008 65.820384,185.108 C65.820384,182.947989 65.3583886,181.118008 64.434384,179.618 C63.5103794,178.117993 62.1363931,177.368 60.312384,177.368 C59.52038,177.368 58.7523877,177.559998 58.008384,177.944 Z M84.132576,176.18 C84.6125784,176.564002 84.852576,177.127996 84.852576,177.872 C84.852576,178.256002 84.7025775,178.639998 84.402576,179.024 C84.1025745,179.408002 83.6765788,179.6 83.124576,179.6 C82.5965734,179.6 82.1645777,179.402002 81.828576,179.006 C81.4925743,178.609998 81.3605756,178.136003 81.432576,177.584 C80.5205714,177.56 79.6025806,177.907996 78.678576,178.628 C77.7545714,179.348004 76.9685792,180.307994 76.320576,181.508 L76.356576,190.364 C76.356576,191.444005 76.3085765,192.259997 76.212576,192.812 L78.480576,192.704 L78.480576,194.18 L71.100576,194.18 L71.100576,193.1 C71.7965795,193.1 72.2945745,192.926002 72.594576,192.578 C72.8945775,192.229998 73.0745757,191.786003 73.134576,191.246 C73.1945763,190.705997 73.224576,189.860006 73.224576,188.708 L73.224576,180.5 C73.224576,179.491995 73.2725755,178.712003 73.368576,178.16 L70.812576,178.268 L70.812576,176.792 L71.928576,176.792 C72.8405806,176.792 73.500574,176.714001 73.908576,176.558 C74.316578,176.401999 74.7005742,176.156002 75.060576,175.82 L76.104576,175.82 C76.2005765,176.756005 76.2605759,177.943993 76.284576,179.384 C76.884579,178.399995 77.7425704,177.524004 78.858576,176.756 C79.9745816,175.987996 81.13257,175.604 82.332576,175.604 C83.0525796,175.604 83.6525736,175.795998 84.132576,176.18 Z M97.620768,176.504 C98.7247735,177.104003 99.6007648,177.997994 100.248768,179.186 C100.896771,180.374006 101.220768,181.831991 101.220768,183.56 L88.548768,183.776 C88.5247679,186.656014 88.9987631,188.899992 89.970768,190.508 C90.9427729,192.116008 92.4487578,192.92 94.488768,192.92 C95.5927735,192.92 96.7267622,192.632003 97.890768,192.056 C99.0547738,191.479997 99.9487649,190.772004 100.572768,189.932 L101.436768,190.652 C100.524763,192.044007 99.3427753,193.075997 97.890768,193.748 C96.4387607,194.420003 95.016775,194.756 93.624768,194.756 C91.9687597,194.756 90.4747747,194.366004 89.142768,193.586 C87.8107613,192.805996 86.7607718,191.690007 85.992768,190.238 C85.2247642,188.785993 84.840768,187.112009 84.840768,185.216 C84.840768,183.535992 85.2247642,181.958007 85.992768,180.482 C86.7607718,179.005993 87.8347611,177.824004 89.214768,176.936 C90.5947749,176.047996 92.1607592,175.604 93.912768,175.604 C95.2807748,175.604 96.5167625,175.903997 97.620768,176.504 Z M88.656768,182.264 L97.836768,182.264 C97.836768,180.823993 97.5127712,179.588005 96.864768,178.556 C96.2167648,177.523995 95.2447745,177.008 93.948768,177.008 C90.9727531,177.008 89.2087708,178.759982 88.656768,182.264 Z M118.52496,177.566 C119.484965,178.874007 119.96496,180.907986 119.96496,183.668 L119.96496,190.364 C119.96496,191.444005 119.91696,192.259997 119.82096,192.812 L122.08896,192.704 L122.08896,194.18 L114.74496,194.18 L114.74496,193.1 C115.440963,193.1 115.938958,192.926002 116.23896,192.578 C116.538961,192.229998 116.71896,191.786003 116.77896,191.246 C116.83896,190.705997 116.86896,189.860006 116.86896,188.708 L116.86896,183.668 C116.84496,181.60399 116.508963,180.050005 115.86096,179.006 C115.212957,177.961995 114.192967,177.44 112.80096,177.44 C111.936956,177.44 111.078964,177.655998 110.22696,178.088 C109.374956,178.520002 108.672963,179.083997 108.12096,179.78 C108.14496,180.044001 108.15696,180.511997 108.15696,181.184 L108.12096,190.364 C108.12096,191.444005 108.07296,192.259997 107.97696,192.812 L110.24496,192.704 L110.24496,194.18 L102.90096,194.18 L102.90096,193.1 C103.596963,193.1 104.094958,192.926002 104.39496,192.578 C104.694961,192.229998 104.86896,191.798003 104.91696,191.282 C104.96496,190.765997 105.00096,189.908006 105.02496,188.708 L105.06096,180.5 C105.06096,179.491995 105.10896,178.712003 105.20496,178.16 L102.64896,178.304 L102.64896,176.792 C104.064967,176.792 105.036957,176.714001 105.56496,176.558 C106.092963,176.401999 106.536958,176.156002 106.89696,175.82 L107.94096,175.82 C107.98896,176.276002 108.03696,177.007995 108.08496,178.016 C108.900964,177.295996 109.830955,176.714002 110.87496,176.27 C111.918965,175.825998 112.944955,175.604 113.95296,175.604 C116.04097,175.604 117.564955,176.257993 118.52496,177.566 Z M139.681152,190.364 C139.681152,191.132004 139.633152,191.947996 139.537152,192.812 L142.093152,192.668 L142.093152,194.18 L136.945152,194.18 C136.825151,193.531997 136.741152,192.908003 136.693152,192.308 C135.997149,193.076004 135.151157,193.675998 134.155152,194.108 C133.159147,194.540002 132.085158,194.756 130.933152,194.756 C129.445145,194.756 128.113158,194.384004 126.937152,193.64 C125.761146,192.895996 124.837155,191.840007 124.165152,190.472 C123.493149,189.103993 123.157152,187.508009 123.157152,185.684 C123.157152,183.76399 123.553148,182.036008 124.345152,180.5 C125.137156,178.963992 126.235145,177.764004 127.639152,176.9 C129.043159,176.035996 130.633143,175.604 132.409152,175.604 C133.153156,175.604 133.915148,175.705999 134.695152,175.91 C135.475156,176.114001 136.117149,176.347999 136.621152,176.612 L136.621152,171.68 C136.621152,170.767995 136.657152,169.988003 136.729152,169.34 L134.173152,169.484 L134.173152,167.972 C135.589159,167.972 136.603149,167.888001 137.215152,167.72 C137.827155,167.551999 138.30115,167.312002 138.637152,167 L139.681152,167 L139.681152,190.364 Z M128.449152,179.15 C127.393147,180.578007 126.865152,182.467988 126.865152,184.82 C126.865152,187.268012 127.333147,189.241993 128.269152,190.742 C129.205157,192.242007 130.525143,192.992 132.229152,192.992 C132.997156,192.992 133.783148,192.770002 134.587152,192.326 C135.391156,191.881998 136.069149,191.312003 136.621152,190.616 C136.597152,190.231998 136.585152,189.572005 136.585152,188.636 L136.621152,178.268 C135.493146,177.427996 134.16116,177.008 132.625152,177.008 C130.897143,177.008 129.505157,177.721993 128.449152,179.15 Z M148.219344,168.602 C148.591346,169.022002 148.777344,169.531997 148.777344,170.132 C148.777344,170.708003 148.579346,171.205998 148.183344,171.626 C147.787342,172.046002 147.325347,172.256 146.797344,172.256 C146.293341,172.256 145.849346,172.046002 145.465344,171.626 C145.081342,171.205998 144.889344,170.708003 144.889344,170.132 C144.889344,169.555997 145.087342,169.052002 145.483344,168.62 C145.879346,168.187998 146.329341,167.972 146.833344,167.972 C147.385347,167.972 147.847342,168.181998 148.219344,168.602 Z M148.453344,190.364 C148.453344,191.444005 148.405344,192.259997 148.309344,192.812 L150.577344,192.704 L150.577344,194.18 L143.233344,194.18 L143.233344,193.1 C143.929347,193.1 144.427342,192.926002 144.727344,192.578 C145.027345,192.229998 145.207344,191.786003 145.267344,191.246 C145.327344,190.705997 145.357344,189.860006 145.357344,188.708 L145.357344,180.5 C145.357344,179.803997 145.405344,179.024004 145.501344,178.16 L142.945344,178.304 L142.945344,176.792 C144.361351,176.792 145.375341,176.708001 145.987344,176.54 C146.599347,176.371999 147.073342,176.132002 147.409344,175.82 L148.453344,175.82 L148.453344,190.364 Z M177.799536,177.53 C178.771541,178.814006 179.233536,180.859986 179.185536,183.668 L179.149536,190.364 C179.149536,191.444005 179.101536,192.259997 179.005536,192.812 L181.273536,192.704 L181.273536,194.18 L173.929536,194.18 L173.929536,193.1 C174.625539,193.1 175.123534,192.926002 175.423536,192.578 C175.723537,192.229998 175.903536,191.786003 175.963536,191.246 C176.023536,190.705997 176.053536,189.860006 176.053536,188.708 L176.053536,183.668 C176.053536,181.60399 175.729539,180.062005 175.081536,179.042 C174.433533,178.021995 173.413543,177.512 172.021536,177.512 C171.277532,177.512 170.52754,177.673998 169.771536,177.998 C169.015532,178.322002 168.349539,178.747997 167.773536,179.276 C168.013537,180.020004 168.133536,180.895995 168.133536,181.904 L168.061536,190.364 C168.061536,191.444005 168.013536,192.259997 167.917536,192.812 L170.185536,192.704 L170.185536,194.18 L162.841536,194.18 L162.841536,193.1 C163.537539,193.1 164.035534,192.926002 164.335536,192.578 C164.635537,192.229998 164.809536,191.798003 164.857536,191.282 C164.905536,190.765997 164.941536,189.908006 164.965536,188.708 L165.001536,183.668 C165.025536,181.57999 164.725539,180.020005 164.101536,178.988 C163.477533,177.955995 162.481543,177.44 161.113536,177.44 C160.369532,177.44 159.63154,177.595998 158.899536,177.908 C158.167532,178.220002 157.537539,178.639997 157.009536,179.168 L157.045536,181.112 L157.045536,190.364 C157.045536,191.444005 156.997536,192.259997 156.901536,192.812 L159.169536,192.704 L159.169536,194.18 L151.825536,194.18 L151.825536,193.1 C152.521539,193.1 153.019534,192.926002 153.319536,192.578 C153.619537,192.229998 153.799536,191.786003 153.859536,191.246 C153.919536,190.705997 153.949536,189.860006 153.949536,188.708 L153.949536,180.5 C153.949536,179.491995 153.997536,178.712003 154.093536,178.16 L151.537536,178.304 L151.537536,176.792 C152.953543,176.792 153.925533,176.714001 154.453536,176.558 C154.981539,176.401999 155.425534,176.156002 155.785536,175.82 L156.829536,175.82 C156.877536,176.180002 156.925536,176.815995 156.973536,177.728 C157.71754,177.079997 158.557531,176.564002 159.493536,176.18 C160.429541,175.795998 161.353531,175.604 162.265536,175.604 C163.441542,175.604 164.443532,175.813998 165.271536,176.234 C166.09954,176.654002 166.741534,177.247996 167.197536,178.016 C168.06154,177.319997 169.027531,176.744002 170.095536,176.288 C171.163541,175.831998 172.189531,175.604 173.173536,175.604 C175.285547,175.604 176.827531,176.245994 177.799536,177.53 Z M187.471728,168.602 C187.84373,169.022002 188.029728,169.531997 188.029728,170.132 C188.029728,170.708003 187.83173,171.205998 187.435728,171.626 C187.039726,172.046002 186.577731,172.256 186.049728,172.256 C185.545725,172.256 185.10173,172.046002 184.717728,171.626 C184.333726,171.205998 184.141728,170.708003 184.141728,170.132 C184.141728,169.555997 184.339726,169.052002 184.735728,168.62 C185.13173,168.187998 185.581725,167.972 186.085728,167.972 C186.637731,167.972 187.099726,168.181998 187.471728,168.602 Z M187.705728,190.364 C187.705728,191.444005 187.657728,192.259997 187.561728,192.812 L189.829728,192.704 L189.829728,194.18 L182.485728,194.18 L182.485728,193.1 C183.181731,193.1 183.679726,192.926002 183.979728,192.578 C184.279729,192.229998 184.459728,191.786003 184.519728,191.246 C184.579728,190.705997 184.609728,189.860006 184.609728,188.708 L184.609728,180.5 C184.609728,179.803997 184.657727,179.024004 184.753728,178.16 L182.197728,178.304 L182.197728,176.792 C183.613735,176.792 184.627725,176.708001 185.239728,176.54 C185.851731,176.371999 186.325726,176.132002 186.661728,175.82 L187.705728,175.82 L187.705728,190.364 Z M203.78592,176.504 C204.889925,177.104003 205.765917,177.997994 206.41392,179.186 C207.061923,180.374006 207.38592,181.831991 207.38592,183.56 L194.71392,183.776 C194.68992,186.656014 195.163915,188.899992 196.13592,190.508 C197.107925,192.116008 198.61391,192.92 200.65392,192.92 C201.757925,192.92 202.891914,192.632003 204.05592,192.056 C205.219926,191.479997 206.113917,190.772004 206.73792,189.932 L207.60192,190.652 C206.689915,192.044007 205.507927,193.075997 204.05592,193.748 C202.603913,194.420003 201.181927,194.756 199.78992,194.756 C198.133912,194.756 196.639927,194.366004 195.30792,193.586 C193.975913,192.805996 192.925924,191.690007 192.15792,190.238 C191.389916,188.785993 191.00592,187.112009 191.00592,185.216 C191.00592,183.535992 191.389916,181.958007 192.15792,180.482 C192.925924,179.005993 193.999913,177.824004 195.37992,176.936 C196.759927,176.047996 198.325911,175.604 200.07792,175.604 C201.445927,175.604 202.681914,175.903997 203.78592,176.504 Z M194.82192,182.264 L204.00192,182.264 C204.00192,180.823993 203.677923,179.588005 203.02992,178.556 C202.381917,177.523995 201.409926,177.008 200.11392,177.008 C197.137905,177.008 195.373923,178.759982 194.82192,182.264 Z M224.690112,177.566 C225.650117,178.874007 226.130112,180.907986 226.130112,183.668 L226.130112,190.364 C226.130112,191.444005 226.082112,192.259997 225.986112,192.812 L228.254112,192.704 L228.254112,194.18 L220.910112,194.18 L220.910112,193.1 C221.606115,193.1 222.10411,192.926002 222.404112,192.578 C222.704113,192.229998 222.884112,191.786003 222.944112,191.246 C223.004112,190.705997 223.034112,189.860006 223.034112,188.708 L223.034112,183.668 C223.010112,181.60399 222.674115,180.050005 222.026112,179.006 C221.378109,177.961995 220.358119,177.44 218.966112,177.44 C218.102108,177.44 217.244116,177.655998 216.392112,178.088 C215.540108,178.520002 214.838115,179.083997 214.286112,179.78 C214.310112,180.044001 214.322112,180.511997 214.322112,181.184 L214.286112,190.364 C214.286112,191.444005 214.238112,192.259997 214.142112,192.812 L216.410112,192.704 L216.410112,194.18 L209.066112,194.18 L209.066112,193.1 C209.762115,193.1 210.26011,192.926002 210.560112,192.578 C210.860113,192.229998 211.034112,191.798003 211.082112,191.282 C211.130112,190.765997 211.166112,189.908006 211.190112,188.708 L211.226112,180.5 C211.226112,179.491995 211.274111,178.712003 211.370112,178.16 L208.814112,178.304 L208.814112,176.792 C210.230119,176.792 211.202109,176.714001 211.730112,176.558 C212.258115,176.401999 212.70211,176.156002 213.062112,175.82 L214.106112,175.82 C214.154112,176.276002 214.202112,177.007995 214.250112,178.016 C215.066116,177.295996 215.996107,176.714002 217.040112,176.27 C218.084117,175.825998 219.110107,175.604 220.118112,175.604 C222.206122,175.604 223.730107,176.257993 224.690112,177.566 Z M234.182304,176.18 L240.230304,176.18 L240.230304,177.584 L234.182304,177.656 C234.158304,181.328018 234.140304,183.871993 234.128304,185.288 C234.116304,186.704007 234.110304,187.495999 234.110304,187.664 C234.110304,189.368009 234.314302,190.633996 234.722304,191.462 C235.130306,192.290004 235.838299,192.704 236.846304,192.704 C237.470307,192.704 238.088301,192.512002 238.700304,192.128 C239.312307,191.743998 239.846302,191.216003 240.302304,190.544 L241.274304,191.336 C240.338299,192.728007 239.414309,193.645998 238.502304,194.09 C237.590299,194.534002 236.702308,194.756 235.838304,194.756 C232.550288,194.756 230.918304,192.548022 230.942304,188.132 L231.014304,177.692 L228.242304,177.728 L228.242304,176.18 C229.39431,176.156 230.3723,175.634005 231.176304,174.614 C231.980308,173.593995 232.574302,172.436006 232.958304,171.14 L234.182304,171.14 L234.182304,176.18 Z M254.978496,176.81 C256.370503,177.614004 257.468492,178.711993 258.272496,180.104 C259.0765,181.496007 259.478496,183.043991 259.478496,184.748 C259.478496,186.572009 259.0765,188.251992 258.272496,189.788 C257.468492,191.324008 256.376503,192.535996 254.996496,193.424 C253.616489,194.312004 252.086504,194.756 250.406496,194.756 C248.750488,194.756 247.232503,194.366004 245.852496,193.586 C244.472489,192.805996 243.3805,191.720007 242.576496,190.328 C241.772492,188.935993 241.370496,187.364009 241.370496,185.612 C241.370496,183.739991 241.766492,182.042008 242.558496,180.518 C243.3505,178.993992 244.436489,177.794004 245.816496,176.918 C247.196503,176.041996 248.726488,175.604 250.406496,175.604 C252.062504,175.604 253.586489,176.005996 254.978496,176.81 Z M246.392496,179.168 C245.492491,180.632007 245.042496,182.431989 245.042496,184.568 C245.042496,186.104008 245.252494,187.537993 245.672496,188.87 C246.092498,190.202007 246.728492,191.275996 247.580496,192.092 C248.4325,192.908004 249.47049,193.316 250.694496,193.316 C252.446505,193.316 253.736492,192.596007 254.564496,191.156 C255.3925,189.715993 255.806496,187.928011 255.806496,185.792 C255.806496,183.367988 255.3565,181.292009 254.456496,179.564 C253.556491,177.835991 252.206505,176.972 250.406496,176.972 C248.630487,176.972 247.2925,177.703993 246.392496,179.168 Z M285.41088,190.364 C285.41088,191.132004 285.36288,191.947996 285.26688,192.812 L287.82288,192.668 L287.82288,194.18 L282.67488,194.18 C282.554879,193.531997 282.47088,192.908003 282.42288,192.308 C281.726876,193.076004 280.880885,193.675998 279.88488,194.108 C278.888875,194.540002 277.814886,194.756 276.66288,194.756 C275.174873,194.756 273.842886,194.384004 272.66688,193.64 C271.490874,192.895996 270.566883,191.840007 269.89488,190.472 C269.222877,189.103993 268.88688,187.508009 268.88688,185.684 C268.88688,183.76399 269.282876,182.036008 270.07488,180.5 C270.866884,178.963992 271.964873,177.764004 273.36888,176.9 C274.772887,176.035996 276.362871,175.604 278.13888,175.604 C278.882884,175.604 279.644876,175.705999 280.42488,175.91 C281.204884,176.114001 281.846877,176.347999 282.35088,176.612 L282.35088,171.68 C282.35088,170.767995 282.38688,169.988003 282.45888,169.34 L279.90288,169.484 L279.90288,167.972 C281.318887,167.972 282.332877,167.888001 282.94488,167.72 C283.556883,167.551999 284.030878,167.312002 284.36688,167 L285.41088,167 L285.41088,190.364 Z M274.17888,179.15 C273.122875,180.578007 272.59488,182.467988 272.59488,184.82 C272.59488,187.268012 273.062875,189.241993 273.99888,190.742 C274.934885,192.242007 276.254871,192.992 277.95888,192.992 C278.726884,192.992 279.512876,192.770002 280.31688,192.326 C281.120884,191.881998 281.798877,191.312003 282.35088,190.616 C282.32688,190.231998 282.31488,189.572005 282.31488,188.636 L282.35088,178.268 C281.222874,177.427996 279.890888,177.008 278.35488,177.008 C276.626871,177.008 275.234885,177.721993 274.17888,179.15 Z M301.671072,176.504 C302.775077,177.104003 303.651069,177.997994 304.299072,179.186 C304.947075,180.374006 305.271072,181.831991 305.271072,183.56 L292.599072,183.776 C292.575072,186.656014 293.049067,188.899992 294.021072,190.508 C294.993077,192.116008 296.499062,192.92 298.539072,192.92 C299.643077,192.92 300.777066,192.632003 301.941072,192.056 C303.105078,191.479997 303.999069,190.772004 304.623072,189.932 L305.487072,190.652 C304.575067,192.044007 303.393079,193.075997 301.941072,193.748 C300.489065,194.420003 299.067079,194.756 297.675072,194.756 C296.019064,194.756 294.525079,194.366004 293.193072,193.586 C291.861065,192.805996 290.811076,191.690007 290.043072,190.238 C289.275068,188.785993 288.891072,187.112009 288.891072,185.216 C288.891072,183.535992 289.275068,181.958007 290.043072,180.482 C290.811076,179.005993 291.885065,177.824004 293.265072,176.936 C294.645079,176.047996 296.211063,175.604 297.963072,175.604 C299.331079,175.604 300.567066,175.903997 301.671072,176.504 Z M292.707072,182.264 L301.887072,182.264 C301.887072,180.823993 301.563075,179.588005 300.915072,178.556 C300.267069,177.523995 299.295078,177.008 297.999072,177.008 C295.023057,177.008 293.259075,178.759982 292.707072,182.264 Z M319.791456,190.364 C319.791456,191.300005 319.731457,192.115997 319.611456,192.812 L321.879456,192.704 L321.879456,194.18 L314.535456,194.18 L314.535456,193.1 C315.231459,193.1 315.729454,192.926002 316.029456,192.578 C316.329457,192.229998 316.509456,191.786003 316.569456,191.246 C316.629456,190.705997 316.659456,189.860006 316.659456,188.708 L316.659456,171.68 C316.659456,170.767995 316.695456,169.988003 316.767456,169.34 L314.211456,169.484 L314.211456,167.972 C315.651463,167.972 316.677453,167.888001 317.289456,167.72 C317.901459,167.551999 318.375454,167.312002 318.711456,167 L319.755456,167 L319.791456,190.364 Z M336.663648,176.81 C338.055655,177.614004 339.153644,178.711993 339.957648,180.104 C340.761652,181.496007 341.163648,183.043991 341.163648,184.748 C341.163648,186.572009 340.761652,188.251992 339.957648,189.788 C339.153644,191.324008 338.061655,192.535996 336.681648,193.424 C335.301641,194.312004 333.771656,194.756 332.091648,194.756 C330.43564,194.756 328.917655,194.366004 327.537648,193.586 C326.157641,192.805996 325.065652,191.720007 324.261648,190.328 C323.457644,188.935993 323.055648,187.364009 323.055648,185.612 C323.055648,183.739991 323.451644,182.042008 324.243648,180.518 C325.035652,178.993992 326.121641,177.794004 327.501648,176.918 C328.881655,176.041996 330.41164,175.604 332.091648,175.604 C333.747656,175.604 335.271641,176.005996 336.663648,176.81 Z M328.077648,179.168 C327.177643,180.632007 326.727648,182.431989 326.727648,184.568 C326.727648,186.104008 326.937646,187.537993 327.357648,188.87 C327.77765,190.202007 328.413644,191.275996 329.265648,192.092 C330.117652,192.908004 331.155642,193.316 332.379648,193.316 C334.131657,193.316 335.421644,192.596007 336.249648,191.156 C337.077652,189.715993 337.491648,187.928011 337.491648,185.792 C337.491648,183.367988 337.041652,181.292009 336.141648,179.564 C335.241643,177.835991 333.891657,176.972 332.091648,176.972 C330.315639,176.972 328.977652,177.703993 328.077648,179.168 Z M347.81184,176.18 L353.85984,176.18 L353.85984,177.584 L347.81184,177.656 C347.78784,181.328018 347.76984,183.871993 347.75784,185.288 C347.74584,186.704007 347.73984,187.495999 347.73984,187.664 C347.73984,189.368009 347.943838,190.633996 348.35184,191.462 C348.759842,192.290004 349.467835,192.704 350.47584,192.704 C351.099843,192.704 351.717837,192.512002 352.32984,192.128 C352.941843,191.743998 353.475838,191.216003 353.93184,190.544 L354.90384,191.336 C353.967835,192.728007 353.043845,193.645998 352.13184,194.09 C351.219835,194.534002 350.331844,194.756 349.46784,194.756 C346.179824,194.756 344.54784,192.548022 344.57184,188.132 L344.64384,177.692 L341.87184,177.728 L341.87184,176.18 C343.023846,176.156 344.001836,175.634005 344.80584,174.614 C345.609844,173.593995 346.203838,172.436006 346.58784,171.14 L347.81184,171.14 L347.81184,176.18 Z M367.816032,176.504 C368.920037,177.104003 369.796029,177.997994 370.444032,179.186 C371.092035,180.374006 371.416032,181.831991 371.416032,183.56 L358.744032,183.776 C358.720032,186.656014 359.194027,188.899992 360.166032,190.508 C361.138037,192.116008 362.644022,192.92 364.684032,192.92 C365.788037,192.92 366.922026,192.632003 368.086032,192.056 C369.250038,191.479997 370.144029,190.772004 370.768032,189.932 L371.632032,190.652 C370.720027,192.044007 369.538039,193.075997 368.086032,193.748 C366.634025,194.420003 365.212039,194.756 363.820032,194.756 C362.164024,194.756 360.670039,194.366004 359.338032,193.586 C358.006025,192.805996 356.956036,191.690007 356.188032,190.238 C355.420028,188.785993 355.036032,187.112009 355.036032,185.216 C355.036032,183.535992 355.420028,181.958007 356.188032,180.482 C356.956036,179.005993 358.030025,177.824004 359.410032,176.936 C360.790039,176.047996 362.356023,175.604 364.108032,175.604 C365.476039,175.604 366.712026,175.903997 367.816032,176.504 Z M358.852032,182.264 L368.032032,182.264 C368.032032,180.823993 367.708035,179.588005 367.060032,178.556 C366.412029,177.523995 365.440038,177.008 364.144032,177.008 C361.168017,177.008 359.404035,178.759982 358.852032,182.264 Z M386.416224,176.81 C387.808231,177.614004 388.90622,178.711993 389.710224,180.104 C390.514228,181.496007 390.916224,183.043991 390.916224,184.748 C390.916224,186.572009 390.514228,188.251992 389.710224,189.788 C388.90622,191.324008 387.814231,192.535996 386.434224,193.424 C385.054217,194.312004 383.524232,194.756 381.844224,194.756 C380.188216,194.756 378.670231,194.366004 377.290224,193.586 C375.910217,192.805996 374.818228,191.720007 374.014224,190.328 C373.21022,188.935993 372.808224,187.364009 372.808224,185.612 C372.808224,183.739991 373.20422,182.042008 373.996224,180.518 C374.788228,178.993992 375.874217,177.794004 377.254224,176.918 C378.634231,176.041996 380.164216,175.604 381.844224,175.604 C383.500232,175.604 385.024217,176.005996 386.416224,176.81 Z M377.830224,179.168 C376.930219,180.632007 376.480224,182.431989 376.480224,184.568 C376.480224,186.104008 376.690222,187.537993 377.110224,188.87 C377.530226,190.202007 378.16622,191.275996 379.018224,192.092 C379.870228,192.908004 380.908218,193.316 382.132224,193.316 C383.884233,193.316 385.17422,192.596007 386.002224,191.156 C386.830228,189.715993 387.244224,187.928011 387.244224,185.792 C387.244224,183.367988 386.794228,181.292009 385.894224,179.564 C384.994219,177.835991 383.644233,176.972 381.844224,176.972 C380.068215,176.972 378.730228,177.703993 377.830224,179.168 Z M401.182416,175.964 C401.96242,176.204001 402.688413,176.599997 403.360416,177.152 L403.288416,175.784 L404.800416,175.784 L404.800416,182.084 L403.648416,182.084 C403.576416,180.691993 403.15042,179.486005 402.370416,178.466 C401.590412,177.445995 400.492423,176.936 399.076416,176.936 C397.996411,176.936 397.138419,177.205997 396.502416,177.746 C395.866413,178.286003 395.548416,178.927996 395.548416,179.672 C395.548416,180.368003 395.758414,180.955998 396.178416,181.436 C396.598418,181.916002 397.120413,182.323998 397.744416,182.66 C398.368419,182.996002 399.208411,183.367998 400.264416,183.776 C401.512422,184.280003 402.520412,184.747998 403.288416,185.18 C404.05642,185.612002 404.710413,186.181996 405.250416,186.89 C405.790419,187.598004 406.060416,188.455995 406.060416,189.464 C406.060416,190.616006 405.766419,191.587996 405.178416,192.38 C404.590413,193.172004 403.822421,193.765998 402.874416,194.162 C401.926411,194.558002 400.912421,194.756 399.832416,194.756 C398.70441,194.756 397.672421,194.606001 396.736416,194.306 C395.800411,194.005999 394.996419,193.628002 394.324416,193.172 L394.468416,194.432 L392.956416,194.432 L392.740416,188.24 L393.856416,188.24 C393.904416,189.224005 394.174413,190.099996 394.666416,190.868 C395.158418,191.636004 395.806412,192.241998 396.610416,192.686 C397.41442,193.130002 398.272411,193.352 399.184416,193.352 C400.216421,193.352 401.134412,193.106002 401.938416,192.614 C402.74242,192.121998 403.144416,191.420005 403.144416,190.508 C403.144416,189.835997 402.946418,189.272002 402.550416,188.816 C402.154414,188.359998 401.662419,187.982001 401.074416,187.682 C400.486413,187.381999 399.664421,187.028002 398.608416,186.62 C397.33641,186.139998 396.31642,185.690002 395.548416,185.27 C394.780412,184.849998 394.120419,184.280004 393.568416,183.56 C393.016413,182.839996 392.740416,181.928006 392.740416,180.824 C392.740416,180.031996 392.932414,179.240004 393.316416,178.448 C393.700418,177.655996 394.348411,176.984003 395.260416,176.432 C396.172421,175.879997 397.384408,175.604 398.896416,175.604 C399.64042,175.604 400.402412,175.723999 401.182416,175.964 Z M432.8208,177.26 C432.004796,177.572002 431.374802,178.069997 430.9308,178.754 C430.486798,179.438003 430.000803,180.499993 429.4728,181.94 L424.9728,194.504 C424.108796,196.928012 423.394803,198.757994 422.8308,199.994 C422.266797,201.230006 421.630803,202.195997 420.9228,202.892 C420.214796,203.588003 419.344805,203.936 418.3128,203.936 C417.520796,203.936 416.872802,203.744002 416.3688,203.36 C415.864797,202.975998 415.6128,202.436003 415.6128,201.74 C415.6128,201.283998 415.762798,200.882002 416.0628,200.534 C416.362801,200.185998 416.752798,200.012 417.2328,200.012 C417.712802,200.012 418.066799,200.179998 418.2948,200.516 C418.522801,200.852002 418.6368,201.199998 418.6368,201.56 C418.6368,201.776001 418.6248,201.943999 418.6008,202.064 C418.6728,202.112 418.804799,202.136 418.9968,202.136 C419.308801,202.136 419.626798,202.016001 419.9508,201.776 C420.274802,201.535999 420.568799,201.188002 420.8328,200.732 C421.384803,199.819995 422.224794,197.768016 423.3528,194.576 L417.7368,182.552 C416.728795,180.391989 416.092801,178.736006 415.8288,177.584 L414.1008,177.656 L414.1008,176.18 L421.5528,176.18 L421.5528,177.26 L421.4088,177.26 C420.280794,177.332 419.7168,177.811996 419.7168,178.7 C419.7168,179.300003 420.004797,180.235994 420.5808,181.508 L424.7928,190.544 C425.512804,188.50399 426.544793,185.49202 427.8888,181.508 C428.704804,179.131988 429.292798,177.800001 429.6528,177.512 L427.1688,177.656 L427.1688,176.18 L432.8208,176.18 L432.8208,177.26 Z M135.32544,211.702 C136.441446,212.290003 136.99944,213.051995 136.99944,213.988 C136.99944,214.492003 136.855441,214.899998 136.56744,215.212 C136.279439,215.524002 135.883443,215.68 135.37944,215.68 C134.875437,215.68 134.491441,215.518002 134.22744,215.194 C133.963439,214.869998 133.83144,214.528002 133.83144,214.168 C133.83144,213.759998 133.891439,213.436001 134.01144,213.196 C133.099435,212.523997 131.923447,212.188 130.48344,212.188 C128.779431,212.188 127.423445,212.751994 126.41544,213.88 C125.407435,215.008006 124.90344,216.663989 124.90344,218.848 L124.90344,220.18 L133.14744,220.18 C133.891444,220.18 134.521437,220.144 135.03744,220.072 C135.553443,220 135.85944,219.916 135.95544,219.82 L136.99944,219.82 L136.99944,234.364 C136.99944,235.444005 136.95144,236.259997 136.85544,236.812 L139.12344,236.704 L139.12344,238.18 L131.77944,238.18 L131.77944,237.1 C132.475443,237.1 132.973438,236.926002 133.27344,236.578 C133.573441,236.229998 133.75344,235.786003 133.81344,235.246 C133.87344,234.705997 133.90344,233.860006 133.90344,232.708 L133.90344,223.78 C133.90344,223.083997 133.95144,222.304004 134.04744,221.44 L124.90344,221.656 L124.93944,234.4 C124.93944,235.456005 124.89144,236.259997 124.79544,236.812 L127.06344,236.704 L127.06344,238.18 L119.75544,238.18 L119.75544,237.1 C120.451443,237.1 120.949438,236.926002 121.24944,236.578 C121.549441,236.229998 121.72944,235.786003 121.78944,235.246 C121.84944,234.705997 121.87944,233.860006 121.87944,232.708 L121.80744,221.728 L118.85544,221.8 L118.85544,220.18 L121.80744,220.18 L121.80744,220.108 C121.80744,217.179985 122.557432,214.900008 124.05744,213.268 C125.557447,211.635992 127.939424,210.82 131.20344,210.82 C132.835448,210.82 134.209434,211.113997 135.32544,211.702 Z M156.895632,234.364 C156.895632,235.132004 156.847632,235.947996 156.751632,236.812 L159.307632,236.668 L159.307632,238.18 L154.159632,238.18 C154.039631,237.531997 153.955632,236.908003 153.907632,236.308 C153.211628,237.076004 152.365637,237.675998 151.369632,238.108 C150.373627,238.540002 149.299638,238.756 148.147632,238.756 C146.659625,238.756 145.327638,238.384004 144.151632,237.64 C142.975626,236.895996 142.051635,235.840007 141.379632,234.472 C140.707629,233.103993 140.371632,231.508009 140.371632,229.684 C140.371632,227.76399 140.767628,226.036008 141.559632,224.5 C142.351636,222.963992 143.449625,221.764004 144.853632,220.9 C146.257639,220.035996 147.847623,219.604 149.623632,219.604 C150.367636,219.604 151.129628,219.705999 151.909632,219.91 C152.689636,220.114001 153.331629,220.347999 153.835632,220.612 L153.835632,215.68 C153.835632,214.767995 153.871632,213.988003 153.943632,213.34 L151.387632,213.484 L151.387632,211.972 C152.803639,211.972 153.817629,211.888001 154.429632,211.72 C155.041635,211.551999 155.51563,211.312002 155.851632,211 L156.895632,211 L156.895632,234.364 Z M145.663632,223.15 C144.607627,224.578007 144.079632,226.467988 144.079632,228.82 C144.079632,231.268012 144.547627,233.241993 145.483632,234.742 C146.419637,236.242007 147.739623,236.992 149.443632,236.992 C150.211636,236.992 150.997628,236.770002 151.801632,236.326 C152.605636,235.881998 153.283629,235.312003 153.835632,234.616 C153.811632,234.231998 153.799632,233.572005 153.799632,232.636 L153.835632,222.268 C152.707626,221.427996 151.37564,221.008 149.839632,221.008 C148.111623,221.008 146.719637,221.721993 145.663632,223.15 Z M173.155824,220.504 C174.259829,221.104003 175.135821,221.997994 175.783824,223.186 C176.431827,224.374006 176.755824,225.831991 176.755824,227.56 L164.083824,227.776 C164.059824,230.656014 164.533819,232.899992 165.505824,234.508 C166.477829,236.116008 167.983814,236.92 170.023824,236.92 C171.127829,236.92 172.261818,236.632003 173.425824,236.056 C174.58983,235.479997 175.483821,234.772004 176.107824,233.932 L176.971824,234.652 C176.059819,236.044007 174.877831,237.075997 173.425824,237.748 C171.973817,238.420003 170.551831,238.756 169.159824,238.756 C167.503816,238.756 166.009831,238.366004 164.677824,237.586 C163.345817,236.805996 162.295828,235.690007 161.527824,234.238 C160.75982,232.785993 160.375824,231.112009 160.375824,229.216 C160.375824,227.535992 160.75982,225.958007 161.527824,224.482 C162.295828,223.005993 163.369817,221.824004 164.749824,220.936 C166.129831,220.047996 167.695815,219.604 169.447824,219.604 C170.815831,219.604 172.051818,219.903997 173.155824,220.504 Z M164.191824,226.264 L173.371824,226.264 C173.371824,224.823993 173.047827,223.588005 172.399824,222.556 C171.751821,221.523995 170.77983,221.008 169.483824,221.008 C166.507809,221.008 164.743827,222.759982 164.191824,226.264 Z M183.422016,212.602 C183.794018,213.022002 183.980016,213.531997 183.980016,214.132 C183.980016,214.708003 183.782018,215.205998 183.386016,215.626 C182.990014,216.046002 182.528019,216.256 182.000016,216.256 C181.496013,216.256 181.052018,216.046002 180.668016,215.626 C180.284014,215.205998 180.092016,214.708003 180.092016,214.132 C180.092016,213.555997 180.290014,213.052002 180.686016,212.62 C181.082018,212.187998 181.532013,211.972 182.036016,211.972 C182.588019,211.972 183.050014,212.181998 183.422016,212.602 Z M183.656016,234.364 C183.656016,235.444005 183.608016,236.259997 183.512016,236.812 L185.780016,236.704 L185.780016,238.18 L178.436016,238.18 L178.436016,237.1 C179.132019,237.1 179.630014,236.926002 179.930016,236.578 C180.230017,236.229998 180.410016,235.786003 180.470016,235.246 C180.530016,234.705997 180.560016,233.860006 180.560016,232.708 L180.560016,224.5 C180.560016,223.803997 180.608015,223.024004 180.704016,222.16 L178.148016,222.304 L178.148016,220.792 C179.564023,220.792 180.578013,220.708001 181.190016,220.54 C181.802019,220.371999 182.276014,220.132002 182.612016,219.82 L183.656016,219.82 L183.656016,234.364 Z M199.772208,220.216 C200.780213,220.624002 201.566205,221.163997 202.130208,221.836 C202.694211,222.508003 202.976208,223.239996 202.976208,224.032 C202.976208,224.584003 202.82021,225.039998 202.508208,225.4 C202.196206,225.760002 201.764211,225.94 201.212208,225.94 C200.684205,225.94 200.288209,225.766002 200.024208,225.418 C199.760207,225.069998 199.628208,224.704002 199.628208,224.32 C199.628208,223.719997 199.808206,223.240002 200.168208,222.88 C199.904207,222.135996 199.394212,221.626001 198.638208,221.35 C197.882204,221.073999 197.132212,220.936 196.388208,220.936 C195.284202,220.936 194.294212,221.235997 193.418208,221.836 C192.542204,222.436003 191.85221,223.311994 191.348208,224.464 C190.844205,225.616006 190.592208,226.995992 190.592208,228.604 C190.592208,230.212008 190.850205,231.639994 191.366208,232.888 C191.882211,234.136006 192.608203,235.113996 193.544208,235.822 C194.480213,236.530004 195.560202,236.884 196.784208,236.884 C197.864213,236.884 198.926203,236.590003 199.970208,236.002 C201.014213,235.413997 201.836205,234.676004 202.436208,233.788 L203.372208,234.508 C202.484204,235.900007 201.338215,236.955996 199.934208,237.676 C198.530201,238.396004 197.156215,238.756 195.812208,238.756 C194.1802,238.756 192.686215,238.384004 191.330208,237.64 C189.974201,236.895996 188.900212,235.828007 188.108208,234.436 C187.316204,233.043993 186.920208,231.400009 186.920208,229.504 C186.920208,227.823992 187.322204,226.222008 188.126208,224.698 C188.930212,223.173992 190.046201,221.944005 191.474208,221.008 C192.902215,220.071995 194.516199,219.604 196.316208,219.604 C197.612214,219.604 198.764203,219.807998 199.772208,220.216 Z M217.9764,220.81 C219.368407,221.614004 220.466396,222.711993 221.2704,224.104 C222.074404,225.496007 222.4764,227.043991 222.4764,228.748 C222.4764,230.572009 222.074404,232.251992 221.2704,233.788 C220.466396,235.324008 219.374407,236.535996 217.9944,237.424 C216.614393,238.312004 215.084408,238.756 213.4044,238.756 C211.748392,238.756 210.230407,238.366004 208.8504,237.586 C207.470393,236.805996 206.378404,235.720007 205.5744,234.328 C204.770396,232.935993 204.3684,231.364009 204.3684,229.612 C204.3684,227.739991 204.764396,226.042008 205.5564,224.518 C206.348404,222.993992 207.434393,221.794004 208.8144,220.918 C210.194407,220.041996 211.724392,219.604 213.4044,219.604 C215.060408,219.604 216.584393,220.005996 217.9764,220.81 Z M209.3904,223.168 C208.490395,224.632007 208.0404,226.431989 208.0404,228.568 C208.0404,230.104008 208.250398,231.537993 208.6704,232.87 C209.090402,234.202007 209.726396,235.275996 210.5784,236.092 C211.430404,236.908004 212.468394,237.316 213.6924,237.316 C215.444409,237.316 216.734396,236.596007 217.5624,235.156 C218.390404,233.715993 218.8044,231.928011 218.8044,229.792 C218.8044,227.367988 218.354404,225.292009 217.4544,223.564 C216.554395,221.835991 215.204409,220.972 213.4044,220.972 C211.628391,220.972 210.290404,221.703993 209.3904,223.168 Z M249.986592,221.53 C250.958597,222.814006 251.420592,224.859986 251.372592,227.668 L251.336592,234.364 C251.336592,235.444005 251.288592,236.259997 251.192592,236.812 L253.460592,236.704 L253.460592,238.18 L246.116592,238.18 L246.116592,237.1 C246.812595,237.1 247.31059,236.926002 247.610592,236.578 C247.910593,236.229998 248.090592,235.786003 248.150592,235.246 C248.210592,234.705997 248.240592,233.860006 248.240592,232.708 L248.240592,227.668 C248.240592,225.60399 247.916595,224.062005 247.268592,223.042 C246.620589,222.021995 245.600599,221.512 244.208592,221.512 C243.464588,221.512 242.714596,221.673998 241.958592,221.998 C241.202588,222.322002 240.536595,222.747997 239.960592,223.276 C240.200593,224.020004 240.320592,224.895995 240.320592,225.904 L240.248592,234.364 C240.248592,235.444005 240.200592,236.259997 240.104592,236.812 L242.372592,236.704 L242.372592,238.18 L235.028592,238.18 L235.028592,237.1 C235.724595,237.1 236.22259,236.926002 236.522592,236.578 C236.822593,236.229998 236.996592,235.798003 237.044592,235.282 C237.092592,234.765997 237.128592,233.908006 237.152592,232.708 L237.188592,227.668 C237.212592,225.57999 236.912595,224.020005 236.288592,222.988 C235.664589,221.955995 234.668599,221.44 233.300592,221.44 C232.556588,221.44 231.818596,221.595998 231.086592,221.908 C230.354588,222.220002 229.724595,222.639997 229.196592,223.168 L229.232592,225.112 L229.232592,234.364 C229.232592,235.444005 229.184592,236.259997 229.088592,236.812 L231.356592,236.704 L231.356592,238.18 L224.012592,238.18 L224.012592,237.1 C224.708595,237.1 225.20659,236.926002 225.506592,236.578 C225.806593,236.229998 225.986592,235.786003 226.046592,235.246 C226.106592,234.705997 226.136592,233.860006 226.136592,232.708 L226.136592,224.5 C226.136592,223.491995 226.184591,222.712003 226.280592,222.16 L223.724592,222.304 L223.724592,220.792 C225.140599,220.792 226.112589,220.714001 226.640592,220.558 C227.168595,220.401999 227.61259,220.156002 227.972592,219.82 L229.016592,219.82 C229.064592,220.180002 229.112592,220.815995 229.160592,221.728 C229.904596,221.079997 230.744587,220.564002 231.680592,220.18 C232.616597,219.795998 233.540587,219.604 234.452592,219.604 C235.628598,219.604 236.630588,219.813998 237.458592,220.234 C238.286596,220.654002 238.92859,221.247996 239.384592,222.016 C240.248596,221.319997 241.214587,220.744002 242.282592,220.288 C243.350597,219.831998 244.376587,219.604 245.360592,219.604 C247.472603,219.604 249.014587,220.245994 249.986592,221.53 Z M259.658784,212.602 C260.030786,213.022002 260.216784,213.531997 260.216784,214.132 C260.216784,214.708003 260.018786,215.205998 259.622784,215.626 C259.226782,216.046002 258.764787,216.256 258.236784,216.256 C257.732781,216.256 257.288786,216.046002 256.904784,215.626 C256.520782,215.205998 256.328784,214.708003 256.328784,214.132 C256.328784,213.555997 256.526782,213.052002 256.922784,212.62 C257.318786,212.187998 257.768781,211.972 258.272784,211.972 C258.824787,211.972 259.286782,212.181998 259.658784,212.602 Z M259.892784,234.364 C259.892784,235.444005 259.844784,236.259997 259.748784,236.812 L262.016784,236.704 L262.016784,238.18 L254.672784,238.18 L254.672784,237.1 C255.368787,237.1 255.866782,236.926002 256.166784,236.578 C256.466785,236.229998 256.646784,235.786003 256.706784,235.246 C256.766784,234.705997 256.796784,233.860006 256.796784,232.708 L256.796784,224.5 C256.796784,223.803997 256.844783,223.024004 256.940784,222.16 L254.384784,222.304 L254.384784,220.792 C255.800791,220.792 256.814781,220.708001 257.426784,220.54 C258.038787,220.371999 258.512782,220.132002 258.848784,219.82 L259.892784,219.82 L259.892784,234.364 Z M271.994976,219.964 C272.77498,220.204001 273.500973,220.599997 274.172976,221.152 L274.100976,219.784 L275.612976,219.784 L275.612976,226.084 L274.460976,226.084 C274.388976,224.691993 273.96298,223.486005 273.182976,222.466 C272.402972,221.445995 271.304983,220.936 269.888976,220.936 C268.808971,220.936 267.950979,221.205997 267.314976,221.746 C266.678973,222.286003 266.360976,222.927996 266.360976,223.672 C266.360976,224.368003 266.570974,224.955998 266.990976,225.436 C267.410978,225.916002 267.932973,226.323998 268.556976,226.66 C269.180979,226.996002 270.020971,227.367998 271.076976,227.776 C272.324982,228.280003 273.332972,228.747998 274.100976,229.18 C274.86898,229.612002 275.522973,230.181996 276.062976,230.89 C276.602979,231.598004 276.872976,232.455995 276.872976,233.464 C276.872976,234.616006 276.578979,235.587996 275.990976,236.38 C275.402973,237.172004 274.634981,237.765998 273.686976,238.162 C272.738971,238.558002 271.724981,238.756 270.644976,238.756 C269.51697,238.756 268.484981,238.606001 267.548976,238.306 C266.612971,238.005999 265.808979,237.628002 265.136976,237.172 L265.280976,238.432 L263.768976,238.432 L263.552976,232.24 L264.668976,232.24 C264.716976,233.224005 264.986974,234.099996 265.478976,234.868 C265.970978,235.636004 266.618972,236.241998 267.422976,236.686 C268.22698,237.130002 269.084971,237.352 269.996976,237.352 C271.028981,237.352 271.946972,237.106002 272.750976,236.614 C273.55498,236.121998 273.956976,235.420005 273.956976,234.508 C273.956976,233.835997 273.758978,233.272002 273.362976,232.816 C272.966974,232.359998 272.474979,231.982002 271.886976,231.682 C271.298973,231.381999 270.476981,231.028002 269.420976,230.62 C268.14897,230.139998 267.12898,229.690002 266.360976,229.27 C265.592972,228.849998 264.932979,228.280004 264.380976,227.56 C263.828973,226.839996 263.552976,225.928006 263.552976,224.824 C263.552976,224.031996 263.744974,223.240004 264.128976,222.448 C264.512978,221.655996 265.160971,220.984003 266.072976,220.432 C266.984981,219.879997 268.196968,219.604 269.708976,219.604 C270.45298,219.604 271.214972,219.723999 271.994976,219.964 Z M291.909168,220.81 C293.301175,221.614004 294.399164,222.711993 295.203168,224.104 C296.007172,225.496007 296.409168,227.043991 296.409168,228.748 C296.409168,230.572009 296.007172,232.251992 295.203168,233.788 C294.399164,235.324008 293.307175,236.535996 291.927168,237.424 C290.547161,238.312004 289.017176,238.756 287.337168,238.756 C285.68116,238.756 284.163175,238.366004 282.783168,237.586 C281.403161,236.805996 280.311172,235.720007 279.507168,234.328 C278.703164,232.935993 278.301168,231.364009 278.301168,229.612 C278.301168,227.739991 278.697164,226.042008 279.489168,224.518 C280.281172,222.993992 281.367161,221.794004 282.747168,220.918 C284.127175,220.041996 285.65716,219.604 287.337168,219.604 C288.993176,219.604 290.517161,220.005996 291.909168,220.81 Z M283.323168,223.168 C282.423163,224.632007 281.973168,226.431989 281.973168,228.568 C281.973168,230.104008 282.183166,231.537993 282.603168,232.87 C283.02317,234.202007 283.659164,235.275996 284.511168,236.092 C285.363172,236.908004 286.401162,237.316 287.625168,237.316 C289.377177,237.316 290.667164,236.596007 291.495168,235.156 C292.323172,233.715993 292.737168,231.928011 292.737168,229.792 C292.737168,227.367988 292.287172,225.292009 291.387168,223.564 C290.487163,221.835991 289.137177,220.972 287.337168,220.972 C285.561159,220.972 284.223172,221.703993 283.323168,223.168 Z M306.67536,219.964 C307.455364,220.204001 308.181357,220.599997 308.85336,221.152 L308.78136,219.784 L310.29336,219.784 L310.29336,226.084 L309.14136,226.084 C309.06936,224.691993 308.643364,223.486005 307.86336,222.466 C307.083356,221.445995 305.985367,220.936 304.56936,220.936 C303.489355,220.936 302.631363,221.205997 301.99536,221.746 C301.359357,222.286003 301.04136,222.927996 301.04136,223.672 C301.04136,224.368003 301.251358,224.955998 301.67136,225.436 C302.091362,225.916002 302.613357,226.323998 303.23736,226.66 C303.861363,226.996002 304.701355,227.367998 305.75736,227.776 C307.005366,228.280003 308.013356,228.747998 308.78136,229.18 C309.549364,229.612002 310.203357,230.181996 310.74336,230.89 C311.283363,231.598004 311.55336,232.455995 311.55336,233.464 C311.55336,234.616006 311.259363,235.587996 310.67136,236.38 C310.083357,237.172004 309.315365,237.765998 308.36736,238.162 C307.419355,238.558002 306.405365,238.756 305.32536,238.756 C304.197354,238.756 303.165365,238.606001 302.22936,238.306 C301.293355,238.005999 300.489363,237.628002 299.81736,237.172 L299.96136,238.432 L298.44936,238.432 L298.23336,232.24 L299.34936,232.24 C299.39736,233.224005 299.667357,234.099996 300.15936,234.868 C300.651362,235.636004 301.299356,236.241998 302.10336,236.686 C302.907364,237.130002 303.765355,237.352 304.67736,237.352 C305.709365,237.352 306.627356,237.106002 307.43136,236.614 C308.235364,236.121998 308.63736,235.420005 308.63736,234.508 C308.63736,233.835997 308.439362,233.272002 308.04336,232.816 C307.647358,232.359998 307.155363,231.982002 306.56736,231.682 C305.979357,231.381999 305.157365,231.028002 304.10136,230.62 C302.829354,230.139998 301.809364,229.690002 301.04136,229.27 C300.273356,228.849998 299.613363,228.280004 299.06136,227.56 C298.509357,226.839996 298.23336,225.928006 298.23336,224.824 C298.23336,224.031996 298.425358,223.240004 298.80936,222.448 C299.193362,221.655996 299.841355,220.984003 300.75336,220.432 C301.665365,219.879997 302.877352,219.604 304.38936,219.604 C305.133364,219.604 305.895356,219.723999 306.67536,219.964 Z" id="Emprendimiento-de-lo" fill="#FF9800"></path>
                    </g>
                </g>
            </g>
        </g>
    </g>
</svg>