<?xml version="1.0" encoding="UTF-8"?>
<svg width="117px" height="151px" viewBox="0 0 117 151" version="1.1" xmlns="http://www.w3.org/2000/svg" xmlns:xlink="http://www.w3.org/1999/xlink">
    <!-- Generator: Sketch 46.2 (44496) - http://www.bohemiancoding.com/sketch -->
    <title>CircleUrbanas</title>
    <desc>Created with Sketch.</desc>
    <defs></defs>
    <g id="Arq-Carlos-Varela" stroke="none" stroke-width="1" fill="none" fill-rule="evenodd">
        <g id="Desktop" transform="translate(-167.000000, -2020.000000)">
            <g id="TASACIONES" transform="translate(-9.000000, 1643.000000)">
                <g id="Todos" transform="translate(177.000000, 378.000000)">
                    <g id="CircleUrbanas">
                        <circle id="Oval-2" stroke="#FF9800" cx="57.5" cy="57.5" r="57.5"></circle>
                        <g id="planeamiento" transform="translate(28.000000, 25.000000)" fill-rule="nonzero" fill="#FF9800">
                            <g id="004-horizonte">
                                <path d="M57.9074355,62.809043 L56.0864526,62.809043 L56.0864526,5.47751953 C56.0864526,4.87233398 55.5972106,4.38204102 54.9938881,4.38204102 L34.5988029,4.38204102 C33.9953539,4.38204102 33.5062385,4.87233398 33.5062385,5.47751953 L33.5062385,10.2246777 L31.3211096,10.2246777 L31.3211096,5.47751953 C31.3211096,4.87233398 30.8318676,4.38204102 30.2285451,4.38204102 L25.4938881,4.38204102 L25.4938881,1.09547852 C25.4938881,0.490292969 25.0046461,0 24.4013237,0 C23.7980012,0 23.3087592,0.490292969 23.3087592,1.09547852 L23.3087592,4.38204102 L18.5742288,4.38204102 C17.9707797,4.38204102 17.4816644,4.87233398 17.4816644,5.47751953 L17.4816644,10.2246777 L14.2038444,10.2246777 C13.6003953,10.2246777 13.1112799,10.7149707 13.1112799,11.3201563 L13.1112799,20.4493555 L4.00636511,20.4493555 C3.40291602,20.4493555 2.91380065,20.9396484 2.91380065,21.544834 L2.91380065,62.808916 L1.09256446,62.808916 C0.489115366,62.808916 0,63.299209 0,63.9043945 C0,64.5095801 0.489241981,65 1.09256446,65 L57.9074355,65 C58.5108846,65 59,64.509707 59,63.9045215 C59,63.2993359 58.510758,62.809043 57.9074355,62.809043 Z M19.6666667,6.57299805 L29.1357274,6.57299805 L29.1357274,10.2246777 L19.6666667,10.2246777 L19.6666667,6.57299805 Z M16.0247007,62.809043 L15.2962822,62.809043 L15.2962822,60.9832031 C15.2962822,60.3780176 14.8070402,59.8877246 14.2037178,59.8877246 C13.6003953,59.8877246 13.1111533,60.3780176 13.1111533,60.9832031 L13.1111533,62.809043 L12.3827348,62.809043 L12.3827348,59.1573633 L16.0247007,59.1573633 L16.0247007,62.809043 Z M23.3086326,34.690957 L23.3086326,36.5755762 L23.3086326,62.809043 L18.2098296,62.809043 L18.2098296,58.0618848 C18.2098296,57.4566992 17.7205877,56.9664063 17.1172652,56.9664063 L11.2901704,56.9664063 C10.6867213,56.9664063 10.1976059,57.4566992 10.1976059,58.0618848 L10.1976059,62.809043 L5.09880295,62.809043 L5.09880295,22.6404395 L23.3086326,22.6404395 L23.3086326,34.690957 Z M24.4011971,20.4494824 L15.2962822,20.4494824 L15.2962822,12.4157617 L33.5061119,12.4157617 L33.5061119,33.5954785 L25.4938881,33.5954785 L25.4938881,29.9437988 L28.7717081,29.9437988 C29.3751572,29.9437988 29.8642726,29.4535059 29.8642726,28.8483203 C29.8642726,28.2431348 29.3750306,27.7528418 28.7717081,27.7528418 L25.4938881,27.7528418 L25.4938881,24.1011621 L28.7717081,24.1011621 C29.3751572,24.1011621 29.8642726,23.6108691 29.8642726,23.0056836 C29.8642726,22.400498 29.3750306,21.9102051 28.7717081,21.9102051 L25.4938881,21.9102051 L25.4938881,21.5450879 C25.4938881,20.9397754 25.0046461,20.4494824 24.4011971,20.4494824 Z M43.7037178,62.809043 L25.4938881,62.809043 L25.4938881,36.5755762 L25.4938881,35.7865625 L43.7037178,35.7865625 L43.7037178,62.809043 Z M53.9011971,62.809043 L45.8888467,62.809043 L45.8888467,34.690957 L45.8888467,33.2302344 C45.8888467,32.6250488 45.3996047,32.1347559 44.7962822,32.1347559 C44.1929598,32.1347559 43.7037178,32.6250488 43.7037178,33.2302344 L43.7037178,33.5953516 L41.5185889,33.5953516 L41.5185889,33.2302344 C41.5185889,32.6250488 41.0293469,32.1347559 40.4260244,32.1347559 C39.8227019,32.1347559 39.3334599,32.6250488 39.3334599,33.2302344 L39.3334599,33.5953516 L35.691494,33.5953516 L35.691494,11.3202832 L35.691494,6.57299805 L53.9013237,6.57299805 L53.9013237,62.809043 L53.9011971,62.809043 Z" id="Shape"></path>
                                <path d="M30,61 C30.5523236,61 31,60.5016598 31,59.8871176 L31,39.1128824 C31,38.4980823 30.5522077,38 30,38 C29.4477923,38 29,38.4980823 29,39.1128824 L29,59.8872465 C29,60.5017888 29.4476764,61 30,61 Z" id="Shape"></path>
                                <path d="M34,61 C34.5523236,61 35,60.5016598 35,59.8871176 L35,39.1128824 C35,38.4980823 34.5522077,38 34,38 C33.4477923,38 33,38.4980823 33,39.1128824 L33,59.8872465 C32.9998841,60.5017888 33.4476765,61 34,61 Z" id="Shape"></path>
                                <path d="M39,61 C39.5523236,61 40,60.5016598 40,59.8871176 L40,39.1128824 C40,38.4980823 39.5522077,38 39,38 C38.4477923,38 38,38.4980823 38,39.1128824 L38,59.8872465 C38,60.5017888 38.4477923,61 39,61 Z" id="Shape"></path>
                                <path d="M40,14 C40.5523236,14 41,13.4629211 41,12.7999861 L41,11.2000139 C41,10.5370789 40.5522077,10 40,10 C39.4477923,10 39,10.5370789 39,11.2000139 L39,12.8001252 C39,13.4629211 39.4476764,14 40,14 Z" id="Shape"></path>
                                <path d="M45,14 C45.5523236,14 46,13.4629211 46,12.7999861 L46,11.2000139 C46,10.5370789 45.5522077,10 45,10 C44.4477923,10 44,10.5370789 44,11.2000139 L44,12.8001252 C44,13.4629211 44.4476764,14 45,14 Z" id="Shape"></path>
                                <path d="M49,14 C49.5523236,14 50,13.4629211 50,12.7999861 L50,11.2000139 C50,10.5370789 49.5522077,10 49,10 C48.4477923,10 48,10.5370789 48,11.2000139 L48,12.8001252 C48,13.4629211 48.4476764,14 49,14 Z" id="Shape"></path>
                                <path d="M40,21 C40.5523236,21 41,20.4629398 41,19.8000278 L41,18.1999722 C41,17.5370602 40.5522077,17 40,17 C39.4477923,17 39,17.5370602 39,18.1999722 L39,19.8000278 C39,20.4629398 39.4476764,21 40,21 Z" id="Shape"></path>
                                <path d="M45,21 C45.5523236,21 46,20.4629398 46,19.8000278 L46,18.1999722 C46,17.5370602 45.5522077,17 45,17 C44.4477923,17 44,17.5370602 44,18.1999722 L44,19.8000278 C44,20.4629398 44.4476764,21 45,21 Z" id="Shape"></path>
                                <path d="M49,21 C49.5523236,21 50,20.4629398 50,19.8000278 L50,18.1999722 C50,17.5370602 49.5522077,17 49,17 C48.4477923,17 48,17.5370602 48,18.1999722 L48,19.8000278 C48,20.4629398 48.4476764,21 49,21 Z" id="Shape"></path>
                                <path d="M40,29 C40.5523236,29 41,28.4629398 41,27.8000278 L41,26.1999722 C41,25.5370602 40.5522077,25 40,25 C39.4477923,25 39,25.5370602 39,26.1999722 L39,27.8000278 C39,28.4628007 39.4476764,29 40,29 Z" id="Shape"></path>
                                <path d="M45,29 C45.5523236,29 46,28.4629398 46,27.8000278 L46,26.1999722 C46,25.5370602 45.5522077,25 45,25 C44.4477923,25 44,25.5370602 44,26.1999722 L44,27.8000278 C44,28.4628007 44.4476764,29 45,29 Z" id="Shape"></path>
                                <path d="M49,29 C49.5523236,29 50,28.4629398 50,27.8000278 L50,26.1999722 C50,25.5370602 49.5522077,25 49,25 C48.4477923,25 48,25.5370602 48,26.1999722 L48,27.8000278 C48,28.4628007 48.4476764,29 49,29 Z" id="Shape"></path>
                                <path d="M10,32 C10.5523236,32 11,31.4629398 11,30.8000278 L11,29.1999722 C11,28.5370602 10.5522077,28 10,28 C9.44779233,28 9,28.5370602 9,29.1999722 L9,30.8000278 C9,31.4628007 9.44779233,32 10,32 Z" id="Shape"></path>
                                <path d="M14,32 C14.5523236,32 15,31.4629398 15,30.8000278 L15,29.1999722 C15,28.5370602 14.5522077,28 14,28 C13.4477923,28 13,28.5370602 13,29.1999722 L13,30.8000278 C13,31.4628007 13.4476764,32 14,32 Z" id="Shape"></path>
                                <path d="M18,32 C18.5523236,32 19,31.4629398 19,30.8000278 L19,29.1999722 C19,28.5370602 18.5522077,28 18,28 C17.4477923,28 17,28.5370602 17,29.1999722 L17,30.8000278 C17,31.4628007 17.4476764,32 18,32 Z" id="Shape"></path>
                                <path d="M10,39 C10.5523236,39 11,38.4629398 11,37.8000278 L11,36.1999722 C11,35.5370602 10.5522077,35 10,35 C9.44779233,35 9,35.5370602 9,36.1999722 L9,37.8000278 C9,38.4628007 9.44779233,39 10,39 Z" id="Shape"></path>
                                <path d="M14,39 C14.5523236,39 15,38.4629398 15,37.8000278 L15,36.1999722 C15,35.5370602 14.5522077,35 14,35 C13.4477923,35 13,35.5370602 13,36.1999722 L13,37.8000278 C13,38.4628007 13.4476764,39 14,39 Z" id="Shape"></path>
                                <path d="M18,39 C18.5523236,39 19,38.4629398 19,37.8000278 L19,36.1999722 C19,35.5370602 18.5522077,35 18,35 C17.4477923,35 17,35.5370602 17,36.1999722 L17,37.8000278 C17,38.4628007 17.4476764,39 18,39 Z" id="Shape"></path>
                                <path d="M10,46 C10.5523236,46 11,45.4629398 11,44.8000278 L11,43.1999722 C11,42.5370602 10.5522077,42 10,42 C9.44779233,42 9,42.5370602 9,43.1999722 L9,44.8000278 C9,45.4629398 9.44779233,46 10,46 Z" id="Shape"></path>
                                <path d="M14,46 C14.5523236,46 15,45.4629398 15,44.8000278 L15,43.1999722 C15,42.5370602 14.5522077,42 14,42 C13.4477923,42 13,42.5370602 13,43.1999722 L13,44.8000278 C13,45.4629398 13.4476764,46 14,46 Z" id="Shape"></path>
                                <path d="M18,46 C18.5523236,46 19,45.4629398 19,44.8000278 L19,43.1999722 C19,42.5370602 18.5522077,42 18,42 C17.4477923,42 17,42.5370602 17,43.1999722 L17,44.8000278 C17,45.4629398 17.4476764,46 18,46 Z" id="Shape"></path>
                                <path d="M10,54 C10.5523236,54 11,53.4629398 11,52.8000278 L11,51.1999722 C11,50.5370602 10.5522077,50 10,50 C9.44779233,50 9,50.5370602 9,51.1999722 L9,52.8000278 C9,53.4629398 9.44779233,54 10,54 Z" id="Shape"></path>
                                <path d="M14,54 C14.5523236,54 15,53.4629398 15,52.8000278 L15,51.1999722 C15,50.5370602 14.5522077,50 14,50 C13.4477923,50 13,50.5370602 13,51.1999722 L13,52.8000278 C13,53.4629398 13.4476764,54 14,54 Z" id="Shape"></path>
                                <path d="M18,54 C18.5523236,54 19,53.4629398 19,52.8000278 L19,51.1999722 C19,50.5370602 18.5522077,50 18,50 C17.4477923,50 17,50.5370602 17,51.1999722 L17,52.8000278 C17,53.4629398 17.4476764,54 18,54 Z" id="Shape"></path>
                                <path d="M49,36 C49.5523236,36 50,35.4629398 50,34.8000278 L50,33.1999722 C50,32.5370602 49.5522077,32 49,32 C48.4477923,32 48,32.5370602 48,33.1999722 L48,34.8000278 C48,35.4628007 48.4476764,36 49,36 Z" id="Shape"></path>
                                <path d="M49,43 C49.5523236,43 50,42.4629398 50,41.8000278 L50,40.1999722 C50,39.5370602 49.5522077,39 49,39 C48.4477923,39 48,39.5370602 48,40.1999722 L48,41.8000278 C48,42.4628007 48.4476764,43 49,43 Z" id="Shape"></path>
                                <path d="M49,51 C49.5523236,51 50,50.4629398 50,49.8000278 L50,48.1999722 C50,47.5370602 49.5522077,47 49,47 C48.4477923,47 48,47.5370602 48,48.1999722 L48,49.8000278 C48,50.4628007 48.4476764,51 49,51 Z" id="Shape"></path>
                                <path d="M49,58 C49.5523236,58 50,57.4629398 50,56.8000278 L50,55.1999722 C50,54.5370602 49.5522077,54 49,54 C48.4477923,54 48,54.5370602 48,55.1999722 L48,56.8000278 C48,57.4628007 48.4476764,58 49,58 Z" id="Shape"></path>
                                <path d="M30,17 C30,16.4475606 29.5074399,16 28.9000255,16 L20.0999745,16 C19.4924327,16 19,16.4475606 19,17 C19,17.5524394 19.4925601,18 20.0999745,18 L28.9000255,18 C29.5075673,18 30,17.5524394 30,17 Z" id="Shape"></path>
                            </g>
                        </g>
                        <path d="M29.455552,132.992 C28.8795491,133.008 28.4715532,133.135999 28.231552,133.376 C27.9915508,133.616001 27.8555522,133.899998 27.823552,134.228 C27.7915518,134.556002 27.775552,135.127996 27.775552,135.944 L27.727552,141.512 C27.7115519,143.832012 27.1955571,145.723993 26.179552,147.188 C25.1635469,148.652007 23.5275633,149.384 21.271552,149.384 C19.5755435,149.384 18.2355569,149.084003 17.251552,148.484 C16.2675471,147.883997 15.5635541,146.964006 15.139552,145.724 C14.7155499,144.483994 14.503552,142.84801 14.503552,140.816 L14.503552,135.944 C14.503552,134.919995 14.5355517,133.992004 14.599552,133.16 L12.871552,133.232 L12.871552,132.2 L18.247552,132.2 L18.247552,132.992 C17.5435485,132.992 17.095553,133.175998 16.903552,133.544 C16.711551,133.912002 16.615552,134.359997 16.615552,134.888 L16.615552,140.936 C16.615552,142.328007 16.7395508,143.531995 16.987552,144.548 C17.2355532,145.564005 17.7235484,146.395997 18.451552,147.044 C19.1795556,147.692003 20.2235452,148.016 21.583552,148.016 C23.2475603,148.016 24.483548,147.444006 25.291552,146.3 C26.099556,145.155994 26.5195518,143.60001 26.551552,141.632 L26.623552,134.888 C26.623552,134.215997 26.6475518,133.640002 26.695552,133.16 L24.991552,133.256 L24.991552,132.2 L29.455552,132.2 L29.455552,132.992 Z M38.90368,137 C39.2236816,137.256001 39.38368,137.631998 39.38368,138.128 C39.38368,138.384001 39.283681,138.639999 39.08368,138.896 C38.883679,139.152001 38.5996818,139.28 38.23168,139.28 C37.8796782,139.28 37.5916811,139.148001 37.36768,138.884 C37.1436789,138.619999 37.0556798,138.304002 37.10368,137.936 C36.495677,137.92 35.8836831,138.151998 35.26768,138.632 C34.6516769,139.112002 34.1276822,139.751996 33.69568,140.552 L33.71968,146.456 C33.71968,147.176004 33.6876803,147.719998 33.62368,148.088 L35.13568,148.016 L35.13568,149 L30.21568,149 L30.21568,148.28 C30.6796823,148.28 31.011679,148.164001 31.21168,147.932 C31.411681,147.699999 31.5316798,147.404002 31.57168,147.044 C31.6116802,146.683998 31.63168,146.120004 31.63168,145.352 L31.63168,139.88 C31.63168,139.207997 31.6636797,138.688002 31.72768,138.32 L30.02368,138.392 L30.02368,137.408 L30.76768,137.408 C31.375683,137.408 31.8156786,137.356001 32.08768,137.252 C32.3596814,137.147999 32.6156788,136.984001 32.85568,136.76 L33.55168,136.76 C33.6156803,137.384003 33.6556799,138.175995 33.67168,139.136 C34.071682,138.479997 34.6436763,137.896003 35.38768,137.384 C36.1316837,136.871997 36.903676,136.616 37.70368,136.616 C38.1836824,136.616 38.5836784,136.743999 38.90368,137 Z M42.423808,138.032 C42.8718102,137.583998 43.4038049,137.236001 44.019808,136.988 C44.6358111,136.739999 45.3118043,136.616 46.047808,136.616 C47.0718131,136.616 47.9998038,136.863998 48.831808,137.36 C49.6638122,137.856002 50.3158056,138.567995 50.787808,139.496 C51.2598104,140.424005 51.495808,141.495994 51.495808,142.712 C51.495808,144.040007 51.2078109,145.207995 50.631808,146.216 C50.0558051,147.224005 49.2878128,148.003997 48.327808,148.556 C47.3678032,149.108003 46.3438134,149.384 45.255808,149.384 C44.6158048,149.384 43.9838111,149.272001 43.359808,149.048 C42.7358049,148.823999 42.1918103,148.448003 41.727808,147.92 L41.151808,149 L40.311808,149 L40.359808,134 C40.359808,133.391997 40.3838078,132.872002 40.431808,132.44 L38.727808,132.536 L38.727808,131.528 C39.6878128,131.528 40.371806,131.472001 40.779808,131.36 C41.18781,131.247999 41.5038069,131.088001 41.727808,130.88 L42.423808,130.88 L42.423808,138.032 Z M43.755808,138.164 C43.2358054,138.412001 42.7918098,138.743998 42.423808,139.16 L42.423808,145.232 C42.423808,147.344011 43.3677986,148.4 45.255808,148.4 C46.4078138,148.4 47.3238046,147.932005 48.003808,146.996 C48.6838114,146.059995 49.023808,144.832008 49.023808,143.312 C49.023808,141.631992 48.7118111,140.292005 48.087808,139.292 C47.4638049,138.291995 46.5438141,137.792 45.327808,137.792 C44.7998054,137.792 44.2758106,137.915999 43.755808,138.164 Z M60.751936,137.684 C61.3919392,138.396004 61.7039361,139.519992 61.687936,141.056 L61.663936,146.456 C61.663936,146.968003 61.6319363,147.511997 61.567936,148.088 L63.271936,147.992 L63.271936,149 L59.839936,149 C59.7919358,148.759999 59.7359363,148.304003 59.671936,147.632 C58.5039302,148.800006 57.2479427,149.384 55.903936,149.384 C54.7359302,149.384 53.8439391,149.120003 53.227936,148.592 C52.6119329,148.063997 52.303936,147.376004 52.303936,146.528 C52.303936,145.599995 52.6759323,144.816003 53.419936,144.176 C54.1639397,143.535997 55.0999304,143.060002 56.227936,142.748 C57.3559416,142.435998 58.4879303,142.288 59.623936,142.304 L59.623936,140.816 C59.623936,139.775995 59.4719375,138.964003 59.167936,138.38 C58.8639345,137.795997 58.215941,137.504 57.223936,137.504 C56.7279335,137.504 56.2559382,137.607999 55.807936,137.816 C55.3599338,138.024001 55.031937,138.335998 54.823936,138.752 C55.031937,138.976001 55.135936,139.279998 55.135936,139.664 C55.135936,139.904001 55.0479369,140.131999 54.871936,140.348 C54.6959351,140.564001 54.4399377,140.672 54.103936,140.672 C53.7679343,140.672 53.503937,140.564001 53.311936,140.348 C53.119935,140.131999 53.023936,139.848002 53.023936,139.496 C53.023936,138.967997 53.227934,138.484002 53.635936,138.044 C54.043938,137.603998 54.6119324,137.256001 55.339936,137 C56.0679396,136.743999 56.8799315,136.616 57.775936,136.616 C59.1199427,136.616 60.1119328,136.971996 60.751936,137.684 Z M56.119936,143.924 C55.0959309,144.412002 54.583936,145.159995 54.583936,146.168 C54.583936,146.760003 54.7599342,147.215998 55.111936,147.536 C55.4639378,147.856002 55.9119333,148.016 56.455936,148.016 C57.063939,148.016 57.6159335,147.900001 58.111936,147.668 C58.6079385,147.435999 59.1119334,147.080002 59.623936,146.6 C59.6079359,146.359999 59.599936,145.952003 59.599936,145.376 L59.623936,143.12 C58.3119294,143.168 57.1439411,143.435998 56.119936,143.924 Z M74.328064,137.924 C74.9680672,138.796004 75.288064,140.151991 75.288064,141.992 L75.288064,146.456 C75.288064,147.176004 75.2560643,147.719998 75.192064,148.088 L76.704064,148.016 L76.704064,149 L71.808064,149 L71.808064,148.28 C72.2720663,148.28 72.604063,148.164001 72.804064,147.932 C73.004065,147.699999 73.1240638,147.404002 73.164064,147.044 C73.2040642,146.683998 73.224064,146.120004 73.224064,145.352 L73.224064,141.992 C73.2080639,140.615993 72.9840662,139.580003 72.552064,138.884 C72.1200618,138.187997 71.4400686,137.84 70.512064,137.84 C69.9360611,137.84 69.3640668,137.983999 68.796064,138.272 C68.2280612,138.560001 67.7600658,138.935998 67.392064,139.4 C67.4080641,139.576001 67.416064,139.887998 67.416064,140.336 L67.392064,146.456 C67.392064,147.176004 67.3600643,147.719998 67.296064,148.088 L68.808064,148.016 L68.808064,149 L63.912064,149 L63.912064,148.28 C64.3760663,148.28 64.708063,148.164001 64.908064,147.932 C65.108065,147.699999 65.2240638,147.412002 65.256064,147.068 C65.2880642,146.723998 65.3120639,146.152004 65.328064,145.352 L65.352064,139.88 C65.352064,139.207997 65.3840637,138.688002 65.448064,138.32 L63.744064,138.416 L63.744064,137.408 C64.6880687,137.408 65.3360622,137.356001 65.688064,137.252 C66.0400658,137.147999 66.3360628,136.984001 66.576064,136.76 L67.272064,136.76 C67.3040642,137.064002 67.3360638,137.551997 67.368064,138.224 C67.9120667,137.743998 68.5320605,137.356001 69.228064,137.06 C69.9240675,136.763999 70.6080606,136.616 71.280064,136.616 C72.672071,136.616 73.6880608,137.051996 74.328064,137.924 Z M85.672192,137.684 C86.3121952,138.396004 86.6241921,139.519992 86.608192,141.056 L86.584192,146.456 C86.584192,146.968003 86.5521923,147.511997 86.488192,148.088 L88.192192,147.992 L88.192192,149 L84.760192,149 C84.7121918,148.759999 84.6561923,148.304003 84.592192,147.632 C83.4241862,148.800006 82.1681987,149.384 80.824192,149.384 C79.6561862,149.384 78.7641951,149.120003 78.148192,148.592 C77.5321889,148.063997 77.224192,147.376004 77.224192,146.528 C77.224192,145.599995 77.5961883,144.816003 78.340192,144.176 C79.0841957,143.535997 80.0201864,143.060002 81.148192,142.748 C82.2761976,142.435998 83.4081863,142.288 84.544192,142.304 L84.544192,140.816 C84.544192,139.775995 84.3921935,138.964003 84.088192,138.38 C83.7841905,137.795997 83.136197,137.504 82.144192,137.504 C81.6481895,137.504 81.1761942,137.607999 80.728192,137.816 C80.2801898,138.024001 79.952193,138.335998 79.744192,138.752 C79.952193,138.976001 80.056192,139.279998 80.056192,139.664 C80.056192,139.904001 79.9681929,140.131999 79.792192,140.348 C79.6161911,140.564001 79.3601937,140.672 79.024192,140.672 C78.6881903,140.672 78.424193,140.564001 78.232192,140.348 C78.040191,140.131999 77.944192,139.848002 77.944192,139.496 C77.944192,138.967997 78.14819,138.484002 78.556192,138.044 C78.964194,137.603998 79.5321884,137.256001 80.260192,137 C80.9881956,136.743999 81.8001875,136.616 82.696192,136.616 C84.0401987,136.616 85.0321888,136.971996 85.672192,137.684 Z M81.040192,143.924 C80.0161869,144.412002 79.504192,145.159995 79.504192,146.168 C79.504192,146.760003 79.6801902,147.215998 80.032192,147.536 C80.3841938,147.856002 80.8321893,148.016 81.376192,148.016 C81.984195,148.016 82.5361895,147.900001 83.032192,147.668 C83.5281945,147.435999 84.0321894,147.080002 84.544192,146.6 C84.5281919,146.359999 84.520192,145.952003 84.520192,145.376 L84.544192,143.12 C83.2321854,143.168 82.0641971,143.435998 81.040192,143.924 Z M94.65232,136.856 C95.1723226,137.016001 95.6563178,137.279998 96.10432,137.648 L96.05632,136.736 L97.06432,136.736 L97.06432,140.936 L96.29632,140.936 C96.2483198,140.007995 95.9643226,139.204003 95.44432,138.524 C94.9243174,137.843997 94.1923247,137.504 93.24832,137.504 C92.5283164,137.504 91.9563221,137.683998 91.53232,138.044 C91.1083179,138.404002 90.89632,138.831998 90.89632,139.328 C90.89632,139.792002 91.0363186,140.183998 91.31632,140.504 C91.5963214,140.824002 91.9443179,141.095999 92.36032,141.32 C92.7763221,141.544001 93.3363165,141.791999 94.04032,142.064 C94.8723242,142.400002 95.5443174,142.711999 96.05632,143 C96.5683226,143.288001 97.0043182,143.667998 97.36432,144.14 C97.7243218,144.612002 97.90432,145.183997 97.90432,145.856 C97.90432,146.624004 97.708322,147.271997 97.31632,147.8 C96.924318,148.328003 96.4123232,148.723999 95.78032,148.988 C95.1483168,149.252001 94.4723236,149.384 93.75232,149.384 C93.0003162,149.384 92.3123231,149.284001 91.68832,149.084 C91.0643169,148.883999 90.5283222,148.632002 90.08032,148.328 L90.17632,149.168 L89.16832,149.168 L89.02432,145.04 L89.76832,145.04 C89.8003202,145.696003 89.9803184,146.279997 90.30832,146.792 C90.6363216,147.304003 91.0683173,147.707999 91.60432,148.004 C92.1403227,148.300001 92.712317,148.448 93.32032,148.448 C94.0083234,148.448 94.6203173,148.284002 95.15632,147.956 C95.6923227,147.627998 95.96032,147.160003 95.96032,146.552 C95.96032,146.103998 95.8283213,145.728002 95.56432,145.424 C95.3003187,145.119998 94.972322,144.868001 94.58032,144.668 C94.188318,144.467999 93.6403235,144.232001 92.93632,143.96 C92.0883158,143.639998 91.4083226,143.340001 90.89632,143.06 C90.3843174,142.779999 89.9443218,142.400002 89.57632,141.92 C89.2083182,141.439998 89.02432,140.832004 89.02432,140.096 C89.02432,139.567997 89.1523187,139.040003 89.40832,138.512 C89.6643213,137.983997 90.096317,137.536002 90.70432,137.168 C91.312323,136.799998 92.120315,136.616 93.12832,136.616 C93.6243225,136.616 94.1323174,136.695999 94.65232,136.856 Z" id="Urbanas" fill="#FF9800"></path>
                    </g>
                </g>
            </g>
        </g>
    </g>
</svg>