<?xml version="1.0" encoding="UTF-8"?>
<svg width="117px" height="152px" viewBox="0 0 117 152" version="1.1" xmlns="http://www.w3.org/2000/svg" xmlns:xlink="http://www.w3.org/1999/xlink">
    <!-- Generator: Sketch 46.2 (44496) - http://www.bohemiancoding.com/sketch -->
    <title>CircleProyecto</title>
    <desc>Created with Sketch.</desc>
    <defs></defs>
    <g id="Arq-Carlos-Varela" stroke="none" stroke-width="1" fill="none" fill-rule="evenodd">
        <g id="Desktop" transform="translate(-167.000000, -1177.000000)">
            <g id="OBRAS" transform="translate(-3.000000, 800.000000)">
                <g id="Todos" transform="translate(171.000000, 378.000000)">
                    <g id="CircleProyecto">
                        <ellipse id="Oval-2" stroke="#FF9800" cx="57.5" cy="57.6184211" rx="57.5" ry="57.6184211"></ellipse>
                        <g id="planeamiento" transform="translate(34.140625, 25.208059)" fill-rule="nonzero" fill="#FF9800">
                            <path d="M47.4790054,5.34639736 L35.3154799,5.34639736 L31.6230277,5.34639736 C30.6869406,2.2030153 27.7186878,0 24.2578125,0 C20.7969372,0 17.8288148,2.2030153 16.8925973,5.34639736 L13.2001451,5.34639736 L1.03661965,5.34639736 C0.464066582,5.34639736 0,5.79514572 0,6.34879958 L0,63.5548226 C0,64.1086025 0.464196974,64.5572248 1.03661965,64.5572248 L47.4790054,64.5572248 C48.0515584,64.5572248 48.515625,64.1084764 48.515625,63.5548226 L48.515625,6.34879958 C48.515625,5.79501963 48.0515584,5.34639736 47.4790054,5.34639736 Z M14.2367647,10.6258418 L14.2367647,7.3512018 L17.7166773,7.3512018 C17.7216322,7.3512018 17.7264568,7.35057136 17.7314117,7.35057136 C17.7540999,7.35031918 17.7766578,7.34893221 17.7989549,7.34716697 C17.810951,7.34628435 17.8229471,7.34540174 17.8349432,7.34426694 C17.8573707,7.34187126 17.8792767,7.33834079 17.901313,7.33455814 C17.9133091,7.33241464 17.9253052,7.33052331 17.9373013,7.32812763 C17.9580337,7.32371454 17.9783749,7.31841883 17.9987161,7.31287095 C18.0114946,7.30934047 18.0241426,7.30618826 18.0365299,7.30215344 C18.0554368,7.29622729 18.0738221,7.28929243 18.0922075,7.28248366 C18.1053771,7.27756621 18.1185467,7.27277486 18.1314556,7.26735306 C18.1489282,7.26003994 18.1656184,7.25171811 18.182439,7.24352236 C18.1954783,7.23721795 18.2085175,7.23103962 18.2211656,7.22410476 C18.2377254,7.21515249 18.2537637,7.20544369 18.2698019,7.19548271 C18.2816676,7.18829568 18.2936637,7.18123473 18.3052687,7.17341725 C18.3215677,7.16257366 18.3370844,7.15084744 18.3527315,7.13912123 C18.3631629,7.13142984 18.3735943,7.12373845 18.3836345,7.11554271 C18.3995424,7.1026817 18.4145375,7.08893807 18.429663,7.07506836 C18.4385297,7.06687261 18.4475268,7.05905514 18.4560023,7.05060722 C18.4709974,7.03585489 18.4849494,7.02047211 18.4989014,7.00483716 C18.5065945,6.99613706 18.5148093,6.98756306 18.5222416,6.97861078 C18.5354113,6.96297583 18.5475378,6.94671044 18.5596642,6.93019287 C18.5670966,6.9201058 18.5747898,6.91027091 18.581831,6.89993167 C18.5925231,6.88429671 18.6023026,6.86815741 18.612082,6.85176592 C18.619384,6.83953536 18.6270771,6.82730479 18.6337271,6.81469596 C18.6416811,6.79981753 18.6491134,6.78456084 18.6564154,6.76930416 C18.663587,6.75417356 18.670889,6.73929513 18.6774086,6.72378627 C18.6830155,6.71016873 18.6881008,6.69629901 18.6931861,6.68230321 C18.6997057,6.66439867 18.7062253,6.64636804 18.7115714,6.62808523 C18.7154832,6.61522422 18.7186126,6.60211103 18.7218724,6.58899785 C18.7268273,6.56932807 18.7315214,6.54965829 18.7354332,6.52948415 C18.736346,6.52444062 18.7379107,6.51939709 18.7388234,6.51435355 C19.1924586,3.90104683 21.5133131,2.00442618 24.2575517,2.00442618 C27.00166,2.00442618 29.3227752,3.90104683 29.77628,6.51422747 C29.7771928,6.51977535 29.7788879,6.52507106 29.779931,6.53049286 C29.7830604,6.54688434 29.7868418,6.56327583 29.790884,6.57941513 C29.7945349,6.59429356 29.7983163,6.60904589 29.8026193,6.62367214 C29.807183,6.639181 29.8121379,6.6543116 29.8173536,6.66956829 C29.8226997,6.68495106 29.8285674,6.70020775 29.8346958,6.71521226 C29.8401723,6.72870371 29.8457792,6.74206908 29.8517772,6.75530835 C29.85934,6.77169983 29.8675547,6.78783914 29.8758998,6.80385236 C29.8818979,6.81507422 29.8876351,6.82629608 29.8940244,6.83726577 C29.904195,6.85491813 29.9151479,6.87194006 29.9263617,6.8887098 C29.9323597,6.89766208 29.9378362,6.90661435 29.944095,6.91544053 C29.9575255,6.93447987 29.9718686,6.9525105 29.9864726,6.97041504 C29.9914275,6.97659337 29.9961216,6.98314996 30.0014677,6.98907612 C30.0218089,7.01265463 30.0429325,7.03547662 30.06536,7.05703773 C30.0654904,7.05716381 30.0656208,7.0572899 30.0657512,7.05741599 C30.0881787,7.07897709 30.1115189,7.0994034 30.1356415,7.11894709 C30.1448994,7.12638631 30.1548092,7.13306899 30.1644582,7.14038211 C30.1795837,7.15173006 30.1945789,7.16307801 30.2103563,7.17354334 C30.2226132,7.18186517 30.2355221,7.18930438 30.2481701,7.19686968 C30.2619917,7.2053176 30.2758133,7.21376552 30.2900261,7.22145691 C30.3037173,7.22889612 30.3176693,7.23570489 30.3317517,7.24251366 C30.3460948,7.2495746 30.3605684,7.25638337 30.3753027,7.26281388 C30.3893851,7.26899221 30.4035979,7.27454009 30.4180714,7.28008798 C30.4339793,7.28626631 30.4500176,7.29181419 30.4663166,7.29723599 C30.4800078,7.30164908 30.4935687,7.30606218 30.5075206,7.310097 C30.5262971,7.31539271 30.545204,7.31993189 30.5643717,7.3242189 C30.5763678,7.32686675 30.5881031,7.32976678 30.60036,7.33216246 C30.624613,7.33670164 30.6491268,7.34010603 30.673771,7.34300606 C30.6813337,7.34388868 30.6890269,7.34527565 30.6965896,7.34590609 C30.7298397,7.3490583 30.7634809,7.35094962 30.7975134,7.35094962 C30.7980349,7.35094962 30.7985565,7.35082353 30.7992085,7.35082353 L34.2787299,7.35082353 L34.2787299,10.6254635 L34.2787299,13.3656151 L14.2367647,13.3656151 L14.2367647,10.6258418 Z M13.2001451,15.3707978 L35.3156103,15.3707978 C35.8881634,15.3707978 36.35223,14.9220495 36.35223,14.3683956 L36.35223,11.6283701 L42.0193448,11.6283701 L42.0193448,48.6518125 L32.5511609,48.6518125 C31.9786078,48.6518125 31.5145412,49.1005608 31.5145412,49.6542147 L31.5145412,58.8098666 L6.49641058,58.8098666 L6.49641058,11.6283701 L12.1635254,11.6283701 L12.1635254,14.3683956 C12.163395,14.9220495 12.627592,15.3707978 13.2001451,15.3707978 Z M40.5530822,50.656743 L33.5876501,57.3922555 L33.5876501,50.656743 L40.5530822,50.656743 Z M46.4423857,62.5522943 L2.0732393,62.5522943 L2.0732393,7.3512018 L12.163395,7.3512018 L12.163395,9.62343959 L5.45966054,9.62343959 C4.88710747,9.62343959 4.42304089,10.072188 4.42304089,10.6258418 L4.42304089,59.8122688 C4.42304089,60.3660487 4.88723786,60.814671 5.45966054,60.814671 L32.5510305,60.814671 C32.5851933,60.814671 32.6193561,60.8129058 32.6532581,60.8097536 C32.6689052,60.8082405 32.6839003,60.8054666 32.699417,60.8033231 C32.7174112,60.8008013 32.7356661,60.7987839 32.7533995,60.7952534 C32.7711329,60.7919751 32.7880839,60.7871837 32.8054261,60.7828967 C32.8209428,60.7791141 32.8365898,60.7758358 32.8517154,60.7714227 C32.868536,60.7665053 32.884835,60.7603269 32.9015253,60.7545269 C32.9169116,60.7492312 32.9322979,60.7441876 32.9475538,60.7382615 C32.9630705,60.7320831 32.9779352,60.72477 32.9930607,60.7178352 C33.0085774,60.7107742 33.0243549,60.7040915 33.0394804,60.696148 C33.053954,60.6887088 33.0676452,60.6801348 33.0817276,60.671939 C33.0967227,60.6632389 33.1118482,60.6550432 33.1264522,60.6455866 C33.1418385,60.6357517 33.1561816,60.624782 33.1707856,60.6140645 C33.1831729,60.6051122 33.1958209,60.5967904 33.207817,60.5873337 C33.2325916,60.567664 33.2561926,60.5469855 33.2788809,60.5251722 C33.2804456,60.5235331 33.2821407,60.5223983 33.2837054,60.5208852 L43.788509,50.3628311 C43.7899433,50.3614441 43.7909865,50.3600571 43.7924208,50.3586702 C43.8151091,50.3364786 43.8367542,50.3135306 43.8572258,50.2894477 C43.8670052,50.2778476 43.8756111,50.265617 43.884869,50.2536386 C43.8959524,50.2393906 43.9074269,50.2253948 43.9175975,50.2106425 C43.9273769,50.1963945 43.9359828,50.1816422 43.9451103,50.1668898 C43.9534554,50.1535245 43.9620613,50.1402852 43.9697545,50.1265416 C43.9780996,50.111411 43.9852712,50.0959021 43.9927035,50.0805193 C43.9996143,50.0662713 44.0069163,50.0522755 44.0133055,50.0377754 C44.0198251,50.0226448 44.0249105,50.007262 44.0306477,49.9920053 C44.036385,49.9764964 44.0426438,49.9609876 44.0475987,49.9451005 C44.0524232,49.9297177 44.0559438,49.9142088 44.0598556,49.8986999 C44.0640282,49.8825606 44.0687223,49.8665474 44.0721125,49.8500299 C44.0758939,49.8318731 44.0781106,49.8137164 44.0807184,49.7953075 C44.0828047,49.7811856 44.0855429,49.7671898 44.0871076,49.7529418 C44.0903674,49.7199067 44.0923233,49.6866194 44.0921929,49.6534581 L44.0921929,10.6258418 C44.0921929,10.0720619 43.627996,9.62343959 43.0555733,9.62343959 L36.3519692,9.62343959 L36.3519692,7.3512018 L46.4421249,7.3512018 L46.4421249,62.5522943 L46.4423857,62.5522943 Z" id="Shape"></path>
                            <path d="M24.2578125,18.4449214 C16.8267597,18.4449214 10.78125,24.0596164 10.78125,30.961118 C10.78125,37.8626196 16.8267597,43.4773147 24.2578125,43.4773147 C31.6888653,43.4773147 37.734375,37.8626196 37.734375,30.961118 C37.734375,24.0596164 31.6888653,18.4449214 24.2578125,18.4449214 Z M24.2578125,41.5113739 C17.9939812,41.5113739 12.8980371,36.7785766 12.8980371,30.961118 C12.8980371,25.1436595 17.9939812,20.4108621 24.2578125,20.4108621 C30.5216438,20.4108621 35.6175879,25.1436595 35.6175879,30.961118 C35.6175879,36.7785766 30.5216438,41.5113739 24.2578125,41.5113739 Z" id="Shape"></path>
                            <path d="M30.6973337,26.6222065 C30.2989655,26.2591147 29.6531087,26.2591147 29.2548689,26.6222065 L20.4560005,34.6447331 L17.9131159,32.3262799 C17.5147477,31.9631881 16.868891,31.9631881 16.4706511,32.3262799 C16.072283,32.6896056 16.072283,33.278343 16.4706511,33.6415517 L19.734704,36.6175239 C19.9338239,36.7990698 20.1949122,36.8898427 20.4558722,36.8898427 C20.7168322,36.8898427 20.9780488,36.7990698 21.1770405,36.6175239 L30.6972054,27.9375953 C31.0957018,27.5742696 31.0957018,26.9855322 30.6973337,26.6222065 Z" id="Shape"></path>
                        </g>
                        <path d="M27.7674083,130.833553 C28.8797414,131.591206 29.4358997,132.705813 29.4358997,134.177408 C29.4358997,135.022482 29.2141634,135.831119 28.7706841,136.603342 C28.3272049,137.375565 27.5638505,138.016647 26.4805979,138.526605 C25.3973454,139.036564 23.961512,139.291539 22.1730548,139.291539 C21.8386279,139.291539 21.5769063,139.284254 21.3878824,139.269684 L21.3878824,142.438697 C21.3878824,143.210921 21.3660723,143.786437 21.3224514,144.165263 L23.3290031,144.055987 L23.3290031,145.039474 L17.9854686,145.039474 L17.9854686,144.31825 C18.4943792,144.30368 18.8578813,144.18712 19.0759859,143.968566 C19.2940904,143.750012 19.4176811,143.491394 19.4467617,143.192704 C19.4758423,142.894014 19.4903824,142.373135 19.4903824,141.630053 L19.4903824,132.188579 C19.4903824,131.576629 19.5121925,131.052107 19.5558134,130.615 L17.9854686,130.702421 L17.9854686,129.740789 C20.021111,129.711649 21.6423304,129.697079 22.8491755,129.697079 C25.0156806,129.697079 26.6550751,130.0759 27.7674083,130.833553 Z M21.7695634,130.855408 C21.5732694,131.059391 21.4605837,131.303439 21.4315031,131.587559 C21.4024225,131.871679 21.3878824,132.392558 21.3878824,133.150211 L21.3878824,138.373618 C21.75139,138.417329 22.2239427,138.439184 22.8055548,138.439184 C23.6343521,138.439184 24.3940715,138.275271 25.0847359,137.947441 C25.7754002,137.61961 26.3206534,137.146084 26.7205117,136.526849 C27.12037,135.907613 27.3202962,135.182754 27.3202962,134.35225 C27.3202962,133.040928 26.9204439,132.079306 26.1207272,131.467355 C25.3210106,130.855405 24.2159642,130.549434 22.8055548,130.549434 C22.3111845,130.549434 21.9658575,130.651424 21.7695634,130.855408 Z M37.9347803,134.111842 C38.2255864,134.344966 38.3709872,134.687362 38.3709872,135.139039 C38.3709872,135.372163 38.2801117,135.605284 38.0983579,135.838408 C37.9166041,136.071532 37.6585176,136.188092 37.3240907,136.188092 C37.004204,136.188092 36.7424825,136.067889 36.5389183,135.82748 C36.335354,135.587071 36.2553836,135.299313 36.2990045,134.964197 C35.746473,134.949627 35.1903148,135.160893 34.6305131,135.598 C34.0707115,136.035107 33.5945237,136.617909 33.2019355,137.346421 L33.2237459,142.722816 C33.2237459,143.378477 33.1946657,143.873858 33.1365045,144.208974 L34.5105562,144.143408 L34.5105562,145.039474 L30.0394355,145.039474 L30.0394355,144.383816 C30.4611043,144.383816 30.762811,144.278183 30.9445648,144.066914 C31.1263186,143.855646 31.2353692,143.5861 31.27172,143.25827 C31.3080708,142.930439 31.3262459,142.416846 31.3262459,141.717474 L31.3262459,136.734474 C31.3262459,136.122523 31.355326,135.648997 31.4134872,135.313882 L29.8649528,135.379447 L29.8649528,134.483382 L30.5410734,134.483382 C31.0936049,134.483382 31.4934573,134.436029 31.7406424,134.341322 C31.9878276,134.246616 32.2204689,134.097273 32.4385734,133.893289 L33.0710734,133.893289 C33.1292347,134.461529 33.1655849,135.182746 33.1801252,136.056961 C33.5436327,135.45958 34.0634408,134.927774 34.7395648,134.461526 C35.4156889,133.995278 36.117248,133.762158 36.8442631,133.762158 C37.2804722,133.762158 37.6439743,133.878718 37.9347803,134.111842 Z M46.5863334,134.494309 C47.429671,134.982413 48.0948799,135.648991 48.58198,136.494066 C49.0690801,137.33914 49.3126266,138.278907 49.3126266,139.313395 C49.3126266,140.420734 49.0690801,141.440636 48.58198,142.373132 C48.0948799,143.305627 47.433306,144.041414 46.5972386,144.580513 C45.7611712,145.119612 44.8342408,145.389158 43.8164197,145.389158 C42.8131388,145.389158 41.8934784,145.152395 41.057411,144.678862 C40.2213436,144.205329 39.5597698,143.546035 39.0726697,142.700961 C38.5855695,141.855886 38.3420231,140.901549 38.3420231,139.837921 C38.3420231,138.701442 38.5819345,137.670612 39.0617645,136.745401 C39.5415945,135.820191 40.1995333,135.091689 41.0356007,134.559875 C41.8716681,134.028061 42.7985985,133.762158 43.8164197,133.762158 C44.8197005,133.762158 45.7429959,134.006206 46.5863334,134.494309 Z M41.3845662,135.925829 C40.8393049,136.814614 40.5666783,137.907366 40.5666783,139.204118 C40.5666783,140.136614 40.693904,141.007174 40.9483593,141.815822 C41.2028146,142.624471 41.5881268,143.27648 42.1043076,143.771868 C42.6204883,144.267257 43.249347,144.514947 43.9909024,144.514947 C45.0523445,144.514947 45.833874,144.077846 46.3355145,143.203632 C46.8371549,142.329417 47.0879714,141.243949 47.0879714,139.947197 C47.0879714,138.475602 46.8153448,137.215295 46.2700834,136.166237 C45.7248221,135.117179 44.9069423,134.592658 43.8164197,134.592658 C42.7404373,134.592658 41.9298276,135.037044 41.3845662,135.925829 Z M60.5378003,134.7675 C60.0434301,134.956913 59.6617528,135.259241 59.3927572,135.674493 C59.1237616,136.089745 58.8293249,136.734469 58.5094383,137.608684 L55.7831452,145.236171 C55.2596943,146.707766 54.8271268,147.818731 54.4854297,148.569099 C54.1437325,149.319466 53.7584203,149.90591 53.3294814,150.328447 C52.9005425,150.750985 52.3734644,150.96225 51.7482314,150.96225 C51.2684014,150.96225 50.8758191,150.84569 50.5704728,150.612566 C50.2651264,150.379442 50.1124555,150.051616 50.1124555,149.629079 C50.1124555,149.352244 50.203331,149.108196 50.3850848,148.896928 C50.5668386,148.685659 50.803115,148.580026 51.093921,148.580026 C51.3847271,148.580026 51.5991933,148.682017 51.7373262,148.886 C51.8754591,149.089983 51.9445245,149.301249 51.9445245,149.519803 C51.9445245,149.650935 51.9372544,149.752925 51.9227141,149.825776 C51.966335,149.854917 52.0463055,149.869487 52.1626279,149.869487 C52.3516519,149.869487 52.544308,149.796637 52.7406021,149.650934 C52.9368962,149.505232 53.1150122,149.293966 53.2749555,149.017132 C53.6093825,148.463462 54.1182854,147.217725 54.8016797,145.279882 L51.3992659,137.980224 C50.7885732,136.668901 50.4032609,135.663569 50.2433176,134.964197 L49.196421,135.007908 L49.196421,134.111842 L53.7111624,134.111842 L53.7111624,134.7675 L53.623921,134.7675 C52.9405268,134.811211 52.5988348,135.102611 52.5988348,135.641711 C52.5988348,136.005967 52.7733158,136.574198 53.1222831,137.346421 L55.6740934,142.832092 C56.1103025,141.593621 56.7355262,139.765082 57.5497831,137.346421 C58.0441534,135.903966 58.4003855,135.09533 58.61849,134.920487 L57.1135762,135.007908 L57.1135762,134.111842 L60.5378003,134.111842 L60.5378003,134.7675 Z M68.1424569,134.308539 C68.8113108,134.672796 69.3420239,135.215529 69.7346121,135.936757 C70.1272002,136.657984 70.3234914,137.543113 70.3234914,138.592171 L62.64625,138.723303 C62.6317097,140.471732 62.9188764,141.83403 63.5077586,142.810237 C64.0966409,143.786443 65.0090312,144.274539 66.2449569,144.274539 C66.9138108,144.274539 67.6008298,144.099699 68.3060345,143.750013 C69.0112392,143.400327 69.5528573,142.970511 69.9309052,142.460553 L70.4543534,142.897658 C69.901822,143.742732 69.1857228,144.369244 68.3060345,144.777211 C67.4263462,145.185177 66.5648462,145.389158 65.7215086,145.389158 C64.7182277,145.389158 63.8131075,145.152395 63.0061207,144.678862 C62.1991339,144.205329 61.5630052,143.527822 61.0977155,142.646322 C60.6324258,141.764822 60.3997845,140.748563 60.3997845,139.597513 C60.3997845,138.577596 60.6324258,137.619616 61.0977155,136.723546 C61.5630052,135.827476 62.213674,135.109902 63.0497414,134.570803 C63.8858088,134.031703 64.8345493,133.762158 65.8959914,133.762158 C66.7247886,133.762158 67.473603,133.944283 68.1424569,134.308539 Z M62.711681,137.805382 L68.273319,137.805382 C68.273319,136.931167 68.0770278,136.18081 67.6844397,135.554289 C67.2918515,134.927769 66.7029781,134.614513 65.9178017,134.614513 C64.1148042,134.614513 63.046108,135.678125 62.711681,137.805382 Z M78.9532341,134.133697 C79.5639268,134.381392 80.0401146,134.709217 80.3818117,135.117184 C80.7235088,135.525151 80.8943548,135.969537 80.8943548,136.450355 C80.8943548,136.785471 80.7998443,137.062302 80.6108203,137.280855 C80.4217964,137.499409 80.1600749,137.608684 79.8256479,137.608684 C79.5057613,137.608684 79.2658499,137.503051 79.1059066,137.291783 C78.9459632,137.080514 78.8659928,136.858321 78.8659928,136.625197 C78.8659928,136.260941 78.9750434,135.969541 79.1931479,135.750987 C79.0332046,135.299309 78.7242278,134.989696 78.2662083,134.822138 C77.8081887,134.65458 77.3538111,134.570803 76.9030617,134.570803 C76.2342078,134.570803 75.6344293,134.752928 75.1037083,135.117184 C74.5729872,135.48144 74.1549598,136.013247 73.8496134,136.712618 C73.5442671,137.41199 73.3915962,138.249767 73.3915962,139.225974 C73.3915962,140.20218 73.5479021,141.069097 73.8605186,141.82675 C74.1731351,142.584403 74.6129727,143.178132 75.1800445,143.607954 C75.7471163,144.037776 76.4014201,144.252684 77.1429755,144.252684 C77.7972891,144.252684 78.4406879,144.074201 79.073191,143.71723 C79.7056942,143.360259 80.2036921,142.912231 80.5671997,142.373132 L81.1342686,142.810237 C80.5962774,143.655311 79.9019884,144.296393 79.0513807,144.7335 C78.200773,145.170607 77.3683532,145.389158 76.5540962,145.389158 C75.5653556,145.389158 74.6602354,145.163322 73.8387083,144.711645 C73.0171812,144.259967 72.3665124,143.611601 71.8866824,142.766526 C71.4068524,141.921452 71.166941,140.923405 71.166941,139.772355 C71.166941,138.752438 71.4104874,137.779888 71.8975876,136.854678 C72.3846877,135.929467 73.0608017,135.182753 73.9259497,134.614513 C74.7910977,134.046273 75.7689183,133.762158 76.859441,133.762158 C77.6446174,133.762158 78.3425414,133.886003 78.9532341,134.133697 Z M84.9003045,134.111842 L88.5644424,134.111842 L88.5644424,134.964197 L84.9003045,135.007908 C84.8857642,137.237156 84.8748591,138.781579 84.867589,139.641224 C84.8603188,140.500868 84.8566838,140.981679 84.8566838,141.083671 C84.8566838,142.118159 84.9802745,142.886728 85.2274597,143.389401 C85.4746448,143.892075 85.9035773,144.143408 86.51427,144.143408 C86.8923179,144.143408 87.266725,144.026848 87.6375028,143.793724 C88.0082805,143.5606 88.3317974,143.240059 88.6080631,142.832092 L89.1969424,143.312908 C88.6298706,144.157982 88.0700774,144.715286 87.5175459,144.984836 C86.9650144,145.254385 86.4270312,145.389158 85.9035803,145.389158 C83.9115589,145.389158 82.9228331,144.048715 82.9373734,141.367789 L82.9809941,135.029763 L81.3015976,135.051618 L81.3015976,134.111842 C81.9995321,134.097272 82.5920406,133.780374 83.0791407,133.161138 C83.5662408,132.541903 83.9261079,131.838899 84.1587528,131.052105 L84.9003045,131.052105 L84.9003045,134.111842 Z M97.49953,134.494309 C98.3428676,134.982413 99.0080764,135.648991 99.4951766,136.494066 C99.9822767,137.33914 100.225823,138.278907 100.225823,139.313395 C100.225823,140.420734 99.9822767,141.440636 99.4951766,142.373132 C99.0080764,143.305627 98.3465026,144.041414 97.5104352,144.580513 C96.6743678,145.119612 95.7474374,145.389158 94.7296162,145.389158 C93.7263353,145.389158 92.806675,145.152395 91.9706076,144.678862 C91.1345402,144.205329 90.4729663,143.546035 89.9858662,142.700961 C89.4987661,141.855886 89.2552197,140.901549 89.2552197,139.837921 C89.2552197,138.701442 89.495131,137.670612 89.974961,136.745401 C90.454791,135.820191 91.1127298,135.091689 91.9487972,134.559875 C92.7848646,134.028061 93.711795,133.762158 94.7296162,133.762158 C95.7328971,133.762158 96.6561925,134.006206 97.49953,134.494309 Z M92.2977628,135.925829 C91.7525014,136.814614 91.4798748,137.907366 91.4798748,139.204118 C91.4798748,140.136614 91.6071006,141.007174 91.8615559,141.815822 C92.1160112,142.624471 92.5013234,143.27648 93.0175041,143.771868 C93.5336849,144.267257 94.1625435,144.514947 94.904099,144.514947 C95.9655411,144.514947 96.7470706,144.077846 97.248711,143.203632 C97.7503515,142.329417 98.0011679,141.243949 98.0011679,139.947197 C98.0011679,138.475602 97.7285413,137.215295 97.18328,136.166237 C96.6380187,135.117179 95.8201389,134.592658 94.7296162,134.592658 C93.6536338,134.592658 92.8430241,135.037044 92.2977628,135.925829 Z" id="Proyecto" fill="#FF9800"></path>
                    </g>
                </g>
            </g>
        </g>
    </g>
</svg>