<?xml version="1.0" encoding="UTF-8"?>
<svg width="117px" height="147px" viewBox="0 0 117 147" version="1.1" xmlns="http://www.w3.org/2000/svg" xmlns:xlink="http://www.w3.org/1999/xlink">
    <!-- Generator: Sketch 46.2 (44496) - http://www.bohemiancoding.com/sketch -->
    <title>CircleDireccion</title>
    <desc>Created with Sketch.</desc>
    <defs></defs>
    <g id="Arq-Carlos-Varela" stroke="none" stroke-width="1" fill="none" fill-rule="evenodd">
        <g id="Desktop" transform="translate(-456.000000, -1177.000000)">
            <g id="OBRAS" transform="translate(-3.000000, 800.000000)">
                <g id="Todos" transform="translate(171.000000, 378.000000)">
                    <g id="CircleDireccion" transform="translate(289.000000, 0.000000)">
                        <ellipse id="Oval-2" stroke="#FF9800" cx="57.5" cy="57.6184211" rx="57.5" ry="57.6184211"></ellipse>
                        <g id="direccion" transform="translate(21.562500, 25.208059)" fill-rule="nonzero" fill="#FF9800">
                            <path d="M64.9642156,8.06797745 L50.0195761,8.06797745 L50.0195761,5.1249278 C50.0195761,4.3134101 49.3719874,3.65324564 48.5734803,3.65324564 C47.7749731,3.65324564 47.1270752,4.3134101 47.1270752,5.1249278 L47.1270752,8.06797745 L32.1836727,8.06797745 C30.0565882,8.06797745 28.3269018,9.82883556 28.3269018,11.9921485 L28.3269018,17.158612 L26.3195006,16.477365 C25.794997,16.2876228 21.1165245,14.6293451 16.8069982,14.4138004 L16.2327039,15.5805735 L16.2166224,15.5805735 L17.8408515,28.4437111 L15.9126207,31.8726016 L13.9843898,28.4437111 L15.6076911,15.5805735 L15.5906819,15.5805735 L15.0173154,14.4115978 C10.5475928,14.6346944 5.66748331,16.4169496 5.44914635,16.4971888 C5.369976,16.5261379 5.31832972,16.5871827 5.24472605,16.6246276 C5.08638536,16.7010909 4.94165207,16.7876234 4.80310397,16.8964971 C4.68558549,16.9896375 4.58755034,17.0871833 4.49260778,17.1992036 C4.3871504,17.3187758 4.29560969,17.4424386 4.21489305,17.583408 C4.13386715,17.7250066 4.07448939,17.8697519 4.02098756,18.0267691 C3.99160794,18.112987 3.93532277,18.1800103 3.91460241,18.2718921 L0.0581407215,35.9301901 C-0.229161035,37.2520923 0.588210917,38.5607787 1.88771789,38.8559332 C2.06554191,38.8962102 2.24089185,38.91509 2.41222143,38.91509 C3.51751365,38.91509 4.51456518,38.1350387 4.76506509,36.9934387 L8.32494725,20.6995227 C8.57359161,20.6208567 8.85501745,20.5365269 9.16118401,20.4496797 L9.16118401,37.1907329 L7.24315872,61.4632619 C7.1160532,63.0825214 8.30144355,64.5019693 9.89474673,64.6303521 C9.97360782,64.6363308 10.0509226,64.6401067 10.130093,64.6401067 C11.6207221,64.6401067 12.8871383,63.473019 13.0086772,61.9327402 L14.7420748,39.9959598 C15.1008154,40.1570676 15.4945023,40.2489495 15.9086003,40.2489495 C16.3239353,40.2489495 16.7194778,40.1570676 17.0751258,39.9959598 L18.8094512,61.9327402 C18.93099,63.4733337 20.1974063,64.6401067 21.6880354,64.6401067 C21.7668965,64.6401067 21.8442113,64.6379041 21.9233816,64.6303521 C23.5163756,64.5019693 24.7017659,63.0803187 24.5746604,61.4632619 L22.6557073,37.1907329 L22.6557073,20.450309 C23.8806829,20.8036763 24.7073326,21.1035509 24.72929,21.1104735 C24.7385678,21.1142494 24.7481548,21.1123614 24.7602159,21.1142494 C24.7698029,21.11834 24.7772251,21.125892 24.7865029,21.1296679 L28.3210258,22.328222 L28.3210258,35.5365458 C28.3210258,37.7017467 30.0507123,39.4607169 32.1777968,39.4607169 L39.1979796,39.4607169 L33.0421761,62.8477822 C32.8359003,63.6334975 33.2945316,64.4402953 34.0639684,64.6489173 C34.1889091,64.6832156 34.3169424,64.6986342 34.4384812,64.6986342 C35.0777199,64.6986342 35.6616012,64.2656569 35.8350956,63.6064364 L42.1943916,39.4588289 L47.1242918,39.4588289 L47.1242918,56.5708706 C47.1242918,57.3833323 47.7721898,58.0425528 48.5703877,58.0425528 C49.3688948,58.0425528 50.0167927,57.3833323 50.0167927,56.5708706 L50.0167927,39.4588289 L54.946693,39.4588289 L61.3041335,63.6064364 C61.4791741,64.2656569 62.0630554,64.6986342 62.7032219,64.6986342 C62.823833,64.6986342 62.9518662,64.6832156 63.078044,64.6489173 C63.8462437,64.4402953 64.3079676,63.6319242 64.0989085,62.8477822 L57.9427957,39.4607169 L64.9632878,39.4607169 C67.0891352,39.4607169 68.8197495,37.7017467 68.8197495,35.5365458 L68.8197495,11.9918339 C68.8209865,9.82852089 67.0882075,8.06797745 64.9642156,8.06797745 Z M66.8924464,35.5362311 C66.8924464,36.6171009 66.0280671,37.4981593 64.9642156,37.4981593 L32.1836727,37.4981593 C31.1188934,37.4981593 30.2554419,36.6167863 30.2554419,35.5362311 L30.2554419,22.9833518 L36.3614547,25.0554123 C36.6156657,25.1397422 36.8717323,25.1809632 37.1259433,25.1809632 C38.1335096,25.1809632 39.0770593,24.5296093 39.4122962,23.5034909 C39.4688907,23.3310552 39.4574481,23.1583049 39.4744573,22.9833518 L53.9647951,16.161128 C54.2060173,16.0481637 54.3114747,15.7548972 54.1985951,15.5097741 C54.087571,15.2646511 53.801197,15.1554628 53.5584286,15.271259 L39.3686907,21.9515695 C39.1370556,21.2511281 38.6301798,20.6526378 37.8885764,20.3996481 L30.2569882,17.8121685 L30.2569882,11.9918339 C30.2569882,10.910964 31.1204397,10.0299057 32.185219,10.0299057 L64.9660711,10.0299057 C66.0299226,10.0299057 66.894302,10.9112787 66.894302,11.9918339 L66.894302,35.5359164 L66.8924464,35.5359164 L66.8924464,35.5362311 Z" id="Shape"></path>
                            <path d="M15.9126207,13.8857947 C19.2748862,13.8857947 22.0053353,9.91473875 22.0053353,6.49088295 C22.0053353,3.06513917 19.2748862,0.288861283 15.9126207,0.288861283 C12.545407,0.288861283 9.81495787,3.06702715 9.81495787,6.49088295 C9.81495787,9.91473875 12.545407,13.8857947 15.9126207,13.8857947 Z" id="Shape"></path>
                            <path d="M51.4412404,25.5182827 L52.439529,24.8848646 L51.46227,23.2920369 L50.465837,23.9251403 C50.009989,23.4289156 49.4697133,23.0409353 48.8821209,22.7715832 L49.145919,21.6085861 L47.3478862,21.1859927 L47.0859437,22.3518218 C46.4399013,22.3260194 45.786746,22.4342637 45.1651351,22.6797014 L44.5401223,21.6633376 L42.9749617,22.6576749 L43.5999745,23.6740387 C43.1104172,24.137853 42.7281729,24.6866265 42.4665397,25.2873195 L41.3216623,25.018282 L40.907255,26.8471075 L42.0521324,27.1155156 C42.0295565,27.7709601 42.1350139,28.4345859 42.3759267,29.0698919 L41.3760919,29.704254 L42.3555156,31.2973963 L43.3553505,30.6611463 C43.8071781,31.1611469 44.3477631,31.5481833 44.9390666,31.8118715 L44.6752686,32.9767565 L46.471755,33.4002939 L46.7370994,32.2354088 C47.3794306,32.2602673 48.032586,32.1529669 48.657908,31.9078439 L49.2795189,32.9232637 L50.8425147,31.9289264 L50.2230686,30.9144506 C50.7107703,30.4534682 51.0930146,29.8996601 51.3546479,29.3040017 L52.4995253,29.5724099 L52.912077,27.7426404 L51.765344,27.471715 C51.7879199,26.8153265 51.6824626,26.1504421 51.4412404,25.5182827 Z M48.6619284,30.1551671 C47.1100659,31.1400645 45.0670999,30.6608316 44.0950984,29.0812198 C43.1271172,27.50444 43.5981189,25.4226249 45.1478166,24.4358395 C46.7012253,23.4509421 48.7463561,23.9292309 49.7180484,25.5088428 C50.6863388,27.0865666 50.211626,29.1702696 48.6619284,30.1551671 Z" id="Shape"></path>
                            <path d="M61.431239,22.5340121 L60.544593,22.8404945 C60.2807949,22.3710163 59.9325691,21.9685614 59.5237285,21.651695 L59.9381358,20.7983271 L58.6179084,20.1353306 L58.2053567,20.9909012 C57.7099235,20.8530785 57.1829459,20.8137456 56.6575146,20.8883209 L56.3544406,19.9839774 L54.9627744,20.4647835 L55.2624466,21.369127 C54.8010319,21.6353325 54.4054894,21.9927905 54.0949932,22.4084612 L53.2528806,21.9871265 L52.6015808,23.3291673 L53.4433842,23.7508166 C53.3079287,24.2549079 53.2683435,24.7892069 53.3419472,25.3288551 L52.4549919,25.6343936 L52.9256844,27.0513242 L53.8163507,26.7448418 C54.0782932,27.216208 54.4283746,27.6183482 54.836906,27.9336413 L54.4228079,28.7870093 L55.7408705,29.4509497 L56.1552777,28.597267 C56.6522572,28.7360337 57.1761422,28.7737934 57.7052846,28.6989034 L58.0046475,29.6032469 L59.3981693,29.1233848 L59.0969508,28.2209292 C59.5599118,27.9534651 59.9554543,27.5963218 60.2662597,27.1803364 L61.1062076,27.6019857 L61.7559611,26.2605743 L60.9178688,25.837981 C61.0533243,25.3342044 61.0913632,24.7986468 61.019615,24.2630891 L61.9065703,23.956292 L61.431239,22.5340121 Z M58.0266049,27.3373536 C56.6442165,27.8143837 55.1470929,27.0604495 54.6764005,25.6561054 C54.2094191,24.2508173 54.9494763,22.7228103 56.3300092,22.2454654 C57.7123976,21.7712672 59.2110675,22.5242575 59.6802136,23.9289163 C60.1490505,25.3342044 59.4068285,26.8603234 58.0266049,27.3373536 Z" id="Shape"></path>
                        </g>
                        <path d="M25.1983559,131.642197 C26.7977891,132.938949 27.5974938,134.862193 27.5974938,137.411987 C27.5974938,138.78159 27.2776119,140.049183 26.6378386,141.214803 C25.9980653,142.380422 25.0529598,143.309262 23.8024938,144.001349 C22.5520278,144.693435 21.047129,145.039474 19.2877524,145.039474 L13.5516317,145.039474 L13.5516317,144.31825 C14.0605423,144.30368 14.4240444,144.18712 14.642149,143.968566 C14.8602535,143.750012 14.9838442,143.491394 15.0129248,143.192704 C15.0420054,142.894014 15.0565455,142.373135 15.0565455,141.630053 L15.0565455,132.188579 C15.0565455,131.576629 15.0783556,131.052107 15.1219766,130.615 L13.5516317,130.702421 L13.5516317,129.740789 L18.6988731,129.718934 C21.43245,129.704364 23.5989226,130.345445 25.1983559,131.642197 Z M17.3684421,130.833553 C17.1503375,131.037536 17.0267468,131.288869 16.9976662,131.587559 C16.9685856,131.886249 16.9540455,132.407128 16.9540455,133.150211 L16.9540455,142.460553 C16.9540455,143.218206 16.9322354,143.786437 16.8886145,144.165263 C17.3975251,144.194404 18.1754196,144.208974 19.2223214,144.208974 C20.4437068,144.208974 21.5269431,143.910288 22.4720628,143.312908 C23.4171824,142.715528 24.1514567,141.892321 24.6749076,140.843263 C25.1983585,139.794205 25.46008,138.621318 25.46008,137.324566 C25.46008,135.19731 24.8784766,133.532684 23.7152524,132.330638 C22.5520282,131.128593 20.799948,130.527579 18.4589593,130.527579 C17.9500487,130.527579 17.5865466,130.629569 17.3684421,130.833553 Z M31.6579693,129.511309 C31.883344,129.766289 31.9960297,130.075902 31.9960297,130.440158 C31.9960297,130.789844 31.876074,131.092172 31.636159,131.347151 C31.396244,131.602131 31.1163473,131.729618 30.7964607,131.729618 C30.4911143,131.729618 30.2221228,131.602131 29.9894779,131.347151 C29.7568331,131.092172 29.6405124,130.789844 29.6405124,130.440158 C29.6405124,130.090472 29.7604681,129.784501 30.0003831,129.522237 C30.2402981,129.259972 30.5129247,129.128842 30.818271,129.128842 C31.152698,129.128842 31.4325946,129.25633 31.6579693,129.511309 Z M31.7997366,142.722816 C31.7997366,143.378477 31.7706564,143.873858 31.7124952,144.208974 L33.0865469,144.143408 L33.0865469,145.039474 L28.6372366,145.039474 L28.6372366,144.383816 C29.0589053,144.383816 29.3606121,144.278183 29.5423659,144.066914 C29.7241196,143.855646 29.8331703,143.5861 29.869521,143.25827 C29.9058718,142.930439 29.9240469,142.416846 29.9240469,141.717474 L29.9240469,136.734474 C29.9240469,136.311936 29.9531271,135.838411 30.0112883,135.313882 L28.4627538,135.401303 L28.4627538,134.483382 C29.3206316,134.483382 29.9349502,134.432386 30.3057279,134.330395 C30.6765056,134.228403 30.9636723,134.082703 31.1672366,133.893289 L31.7997366,133.893289 L31.7997366,142.722816 Z M41.7381,134.111842 C42.0289061,134.344966 42.1743069,134.687362 42.1743069,135.139039 C42.1743069,135.372163 42.0834314,135.605284 41.9016776,135.838408 C41.7199238,136.071532 41.4618373,136.188092 41.1274103,136.188092 C40.8075237,136.188092 40.5458022,136.067889 40.3422379,135.82748 C40.1386737,135.587071 40.0587032,135.299313 40.1023241,134.964197 C39.5497926,134.949627 38.9936344,135.160893 38.4338328,135.598 C37.8740311,136.035107 37.3978433,136.617909 37.0052552,137.346421 L37.0270655,142.722816 C37.0270655,143.378477 36.9979853,143.873858 36.9398241,144.208974 L38.3138759,144.143408 L38.3138759,145.039474 L33.8427552,145.039474 L33.8427552,144.383816 C34.2644239,144.383816 34.5661307,144.278183 34.7478845,144.066914 C34.9296383,143.855646 35.0386889,143.5861 35.0750397,143.25827 C35.1113904,142.930439 35.1295655,142.416846 35.1295655,141.717474 L35.1295655,136.734474 C35.1295655,136.122523 35.1586457,135.648997 35.2168069,135.313882 L33.6682724,135.379447 L33.6682724,134.483382 L34.3443931,134.483382 C34.8969246,134.483382 35.2967769,134.436029 35.5439621,134.341322 C35.7911472,134.246616 36.0237886,134.097273 36.2418931,133.893289 L36.8743931,133.893289 C36.9325543,134.461529 36.9689045,135.182746 36.9834448,136.056961 C37.3469524,135.45958 37.8667604,134.927774 38.5428845,134.461526 C39.2190086,133.995278 39.9205676,133.762158 40.6475828,133.762158 C41.0837918,133.762158 41.4472939,133.878718 41.7381,134.111842 Z M49.9098255,134.308539 C50.5786794,134.672796 51.1093925,135.215529 51.5019807,135.936757 C51.8945689,136.657984 52.09086,137.543113 52.09086,138.592171 L44.4136186,138.723303 C44.3990783,140.471732 44.686245,141.83403 45.2751272,142.810237 C45.8640095,143.786443 46.7763998,144.274539 48.0123255,144.274539 C48.6811794,144.274539 49.3681984,144.099699 50.0734031,143.750013 C50.7786078,143.400327 51.3202259,142.970511 51.6982738,142.460553 L52.2217221,142.897658 C51.6691906,143.742732 50.9530914,144.369244 50.0734031,144.777211 C49.1937148,145.185177 48.3322148,145.389158 47.4888772,145.389158 C46.4855964,145.389158 45.5804761,145.152395 44.7734893,144.678862 C43.9665025,144.205329 43.3303738,143.527822 42.8650841,142.646322 C42.3997945,141.764822 42.1671531,140.748563 42.1671531,139.597513 C42.1671531,138.577596 42.3997945,137.619616 42.8650841,136.723546 C43.3303738,135.827476 43.9810426,135.109902 44.81711,134.570803 C45.6531774,134.031703 46.6019179,133.762158 47.66336,133.762158 C48.4921572,133.762158 49.2409716,133.944283 49.9098255,134.308539 Z M44.4790497,137.805382 L50.0406876,137.805382 C50.0406876,136.931167 49.8443964,136.18081 49.4518083,135.554289 C49.0592201,134.927769 48.4703467,134.614513 47.6851703,134.614513 C45.8821728,134.614513 44.8134766,135.678125 44.4790497,137.805382 Z M60.7206028,134.133697 C61.3312955,134.381392 61.8074832,134.709217 62.1491803,135.117184 C62.4908775,135.525151 62.6617234,135.969537 62.6617234,136.450355 C62.6617234,136.785471 62.5672129,137.062302 62.378189,137.280855 C62.189165,137.499409 61.9274435,137.608684 61.5930166,137.608684 C61.2731299,137.608684 61.0332185,137.503051 60.8732752,137.291783 C60.7133318,137.080514 60.6333614,136.858321 60.6333614,136.625197 C60.6333614,136.260941 60.742412,135.969541 60.9605166,135.750987 C60.8005732,135.299309 60.4915964,134.989696 60.0335769,134.822138 C59.5755574,134.65458 59.1211797,134.570803 58.6704303,134.570803 C58.0015764,134.570803 57.4017979,134.752928 56.8710769,135.117184 C56.3403559,135.48144 55.9223284,136.013247 55.6169821,136.712618 C55.3116357,137.41199 55.1589648,138.249767 55.1589648,139.225974 C55.1589648,140.20218 55.3152707,141.069097 55.6278872,141.82675 C55.9405037,142.584403 56.3803413,143.178132 56.9474131,143.607954 C57.5144849,144.037776 58.1687887,144.252684 58.9103441,144.252684 C59.5646578,144.252684 60.2080565,144.074201 60.8405597,143.71723 C61.4730628,143.360259 61.9710607,142.912231 62.3345683,142.373132 L62.9016372,142.810237 C62.363646,143.655311 61.669357,144.296393 60.8187493,144.7335 C59.9681416,145.170607 59.1357218,145.389158 58.3214648,145.389158 C57.3327243,145.389158 56.427604,145.163322 55.6060769,144.711645 C54.7845498,144.259967 54.133881,143.611601 53.654051,142.766526 C53.174221,141.921452 52.9343097,140.923405 52.9343097,139.772355 C52.9343097,138.752438 53.1778561,137.779888 53.6649562,136.854678 C54.1520563,135.929467 54.8281703,135.182753 55.6933183,134.614513 C56.5584663,134.046273 57.536287,133.762158 58.6268097,133.762158 C59.411986,133.762158 60.10991,133.886003 60.7206028,134.133697 Z M71.2914662,134.133697 C71.9021589,134.381392 72.3783467,134.709217 72.7200438,135.117184 C73.0617409,135.525151 73.2325869,135.969537 73.2325869,136.450355 C73.2325869,136.785471 73.1380763,137.062302 72.9490524,137.280855 C72.7600285,137.499409 72.498307,137.608684 72.16388,137.608684 C71.8439933,137.608684 71.6040819,137.503051 71.4441386,137.291783 C71.2841953,137.080514 71.2042248,136.858321 71.2042248,136.625197 C71.2042248,136.260941 71.3132755,135.969541 71.53138,135.750987 C71.3714367,135.299309 71.0624599,134.989696 70.6044403,134.822138 C70.1464208,134.65458 69.6920432,134.570803 69.2412938,134.570803 C68.5724399,134.570803 67.9726614,134.752928 67.4419403,135.117184 C66.9112193,135.48144 66.4931919,136.013247 66.1878455,136.712618 C65.8824992,137.41199 65.7298283,138.249767 65.7298283,139.225974 C65.7298283,140.20218 65.8861342,141.069097 66.1987507,141.82675 C66.5113672,142.584403 66.9512048,143.178132 67.5182766,143.607954 C68.0853484,144.037776 68.7396522,144.252684 69.4812076,144.252684 C70.1355212,144.252684 70.7789199,144.074201 71.4114231,143.71723 C72.0439263,143.360259 72.5419242,142.912231 72.9054317,142.373132 L73.4725007,142.810237 C72.9345095,143.655311 72.2402205,144.296393 71.3896128,144.7335 C70.5390051,145.170607 69.7065852,145.389158 68.8923283,145.389158 C67.9035877,145.389158 66.9984674,145.163322 66.1769403,144.711645 C65.3554132,144.259967 64.7047445,143.611601 64.2249145,142.766526 C63.7450845,141.921452 63.5051731,140.923405 63.5051731,139.772355 C63.5051731,138.752438 63.7487195,137.779888 64.2358197,136.854678 C64.7229198,135.929467 65.3990337,135.182753 66.2641817,134.614513 C67.1293297,134.046273 68.1071504,133.762158 69.1976731,133.762158 C69.9828494,133.762158 70.6807735,133.886003 71.2914662,134.133697 Z M77.2712521,129.511309 C77.4966268,129.766289 77.6093124,130.075902 77.6093124,130.440158 C77.6093124,130.789844 77.4893567,131.092172 77.2494417,131.347151 C77.0095267,131.602131 76.7296301,131.729618 76.4097434,131.729618 C76.1043971,131.729618 75.8354055,131.602131 75.6027607,131.347151 C75.3701158,131.092172 75.2537952,130.789844 75.2537952,130.440158 C75.2537952,130.090472 75.3737509,129.784501 75.6136659,129.522237 C75.8535809,129.259972 76.1262074,129.128842 76.4315538,129.128842 C76.7659808,129.128842 77.0458774,129.25633 77.2712521,129.511309 Z M77.4130193,142.722816 C77.4130193,143.378477 77.3839391,143.873858 77.3257779,144.208974 L78.6998297,144.143408 L78.6998297,145.039474 L74.2505193,145.039474 L74.2505193,144.383816 C74.6721881,144.383816 74.9738948,144.278183 75.1556486,144.066914 C75.3374024,143.855646 75.446453,143.5861 75.4828038,143.25827 C75.5191545,142.930439 75.5373297,142.416846 75.5373297,141.717474 L75.5373297,136.734474 C75.5373297,136.311936 75.5664098,135.838411 75.624571,135.313882 L74.0760366,135.401303 L74.0760366,134.483382 C74.9339144,134.483382 75.548233,134.432386 75.9190107,134.330395 C76.2897884,134.228403 76.5769551,134.082703 76.7805193,133.893289 L77.4130193,133.893289 L77.4130193,142.722816 Z M87.6349172,134.494309 C88.4782548,134.982413 89.1434637,135.648991 89.6305638,136.494066 C90.1176639,137.33914 90.3612103,138.278907 90.3612103,139.313395 C90.3612103,140.420734 90.1176639,141.440636 89.6305638,142.373132 C89.1434637,143.305627 88.4818898,144.041414 87.6458224,144.580513 C86.809755,145.119612 85.8828246,145.389158 84.8650034,145.389158 C83.8617226,145.389158 82.9420622,145.152395 82.1059948,144.678862 C81.2699274,144.205329 80.6083536,143.546035 80.1212534,142.700961 C79.6341533,141.855886 79.3906069,140.901549 79.3906069,139.837921 C79.3906069,138.701442 79.6305183,137.670612 80.1103483,136.745401 C80.5901783,135.820191 81.2481171,135.091689 82.0841845,134.559875 C82.9202519,134.028061 83.8471823,133.762158 84.8650034,133.762158 C85.8682843,133.762158 86.7915797,134.006206 87.6349172,134.494309 Z M82.43315,135.925829 C81.8878887,136.814614 81.6152621,137.907366 81.6152621,139.204118 C81.6152621,140.136614 81.7424878,141.007174 81.9969431,141.815822 C82.2513984,142.624471 82.6367106,143.27648 83.1528914,143.771868 C83.6690721,144.267257 84.2979308,144.514947 85.0394862,144.514947 C86.1009283,144.514947 86.8824578,144.077846 87.3840983,143.203632 C87.8857387,142.329417 88.1365552,141.243949 88.1365552,139.947197 C88.1365552,138.475602 87.8639286,137.215295 87.3186672,136.166237 C86.7734059,135.117179 85.9555261,134.592658 84.8650034,134.592658 C83.7890211,134.592658 82.9784113,135.037044 82.43315,135.925829 Z M100.757591,134.95327 C101.339203,135.747348 101.630005,136.982158 101.630005,138.657737 L101.630005,142.722816 C101.630005,143.378477 101.600925,143.873858 101.542763,144.208974 L102.916815,144.143408 L102.916815,145.039474 L98.4675048,145.039474 L98.4675048,144.383816 C98.8891736,144.383816 99.1908804,144.278183 99.3726341,144.066914 C99.5543879,143.855646 99.6634386,143.5861 99.6997893,143.25827 C99.7361401,142.930439 99.7543152,142.416846 99.7543152,141.717474 L99.7543152,138.657737 C99.7397749,137.404695 99.5362137,136.461286 99.1436255,135.82748 C98.7510373,135.193674 98.1330838,134.876776 97.2897462,134.876776 C96.7662953,134.876776 96.2464873,135.007907 95.7303066,135.270171 C95.2141258,135.532436 94.7888283,135.874831 94.4544014,136.297368 C94.4689417,136.457641 94.4762117,136.741757 94.4762117,137.149724 L94.4544014,142.722816 C94.4544014,143.378477 94.4253212,143.873858 94.36716,144.208974 L95.7412117,144.143408 L95.7412117,145.039474 L91.2919014,145.039474 L91.2919014,144.383816 C91.7135702,144.383816 92.0152769,144.278183 92.1970307,144.066914 C92.3787845,143.855646 92.4842001,143.593385 92.5132807,143.280125 C92.5423613,142.966865 92.5641714,142.445986 92.5787117,141.717474 L92.6005221,136.734474 C92.6005221,136.122523 92.6296022,135.648997 92.6877634,135.313882 L91.139229,135.401303 L91.139229,134.483382 C91.9971068,134.483382 92.5859802,134.436029 92.9058669,134.341322 C93.2257536,134.246616 93.4947451,134.097273 93.7128497,133.893289 L94.3453497,133.893289 C94.3744303,134.170124 94.4035104,134.61451 94.432591,135.226461 C94.9269613,134.789353 95.4903896,134.43603 96.1228928,134.16648 C96.7553959,133.896931 97.3769845,133.762158 97.9876772,133.762158 C99.2526836,133.762158 100.175979,134.159191 100.757591,134.95327 Z" id="Direccion" fill="#FF9800"></path>
                    </g>
                </g>
            </g>
        </g>
    </g>
</svg>