<?xml version="1.0" encoding="UTF-8"?>
<svg width="48px" height="48px" viewBox="0 0 48 48" version="1.1" xmlns="http://www.w3.org/2000/svg" xmlns:xlink="http://www.w3.org/1999/xlink">
    <!-- Generator: Sketch 46.2 (44496) - http://www.bohemiancoding.com/sketch -->
    <title>email</title>
    <desc>Created with Sketch.</desc>
    <defs></defs>
    <g id="Arq-Carlos-Varela" stroke="none" stroke-width="1" fill="none" fill-rule="evenodd">
        <g id="Desktop" transform="translate(-305.000000, -4619.000000)" fill="#FFFFFF">
            <g id="Contacto" transform="translate(-3.000000, 4334.000000)">
                <g id="Formulario" transform="translate(307.000000, 73.000000)">
                    <g id="Telefono" transform="translate(0.000000, 212.000000)">
                        <g id="email" transform="translate(0.900000, 0.000000)">
                            <path d="M5.1,-1.0658141e-14 L42.62,-1.0658141e-14 C45.3814237,-1.11654063e-14 47.62,2.23857625 47.62,5 L47.62,43 C47.62,45.7614237 45.3814237,48 42.62,48 L5.1,48 C2.33857625,48 0.1,45.7614237 0.1,43 L0.1,5 L0.1,5 C0.1,2.23857625 2.33857625,-1.01508757e-14 5.1,-1.0658141e-14 L5.1,-1.0658141e-14 Z M37.7008873,17.4142065 C37.6997504,16.6339602 37.0630013,16 36.2809385,16 C36.2802888,16 36.2796391,16 36.2790977,16 L11.4179468,16.034074 C11.038691,16.03456 10.6822826,16.1823581 10.4144485,16.4501982 C10.1466684,16.7180923 9.99951394,17.0740064 10.0000012,17.4521685 L10.0192212,31.3857395 C10.0197084,31.7640096 10.1678916,32.1194918 10.4364296,32.3866299 C10.7044803,32.6532819 11.0604556,32.8 11.4390617,32.8 C11.4397114,32.8 11.4404152,32.8 11.4409566,32.8 L36.3020534,32.765926 C37.08482,32.764846 37.7209194,32.1287798 37.719999,31.3478315 L37.7008873,17.4142065 Z" id="Combined-Shape"></path>
                            <path d="M39.3386258,16.5876047 C39.3373543,15.7150349 38.6252612,15.0060606 37.7506599,15.0060606 C37.7499334,15.0060606 37.7492068,15.0060606 37.7486013,15.0060606 L9.94572698,15.0441665 C9.52159532,15.04471 9.1230145,15.2099964 8.82348855,15.509529 C8.52402314,15.8091219 8.35945643,16.20715 8.36000135,16.6300586 L8.38149553,32.2123349 C8.38204045,32.6353643 8.54775756,33.0329093 8.84807062,33.3316568 C9.14783876,33.6298608 9.54593521,33.7939394 9.9693403,33.7939394 C9.97006687,33.7939394 9.97085398,33.7939394 9.97145945,33.7939394 L37.7742733,33.7558335 C38.6496616,33.7546257 39.3610282,33.0432963 39.3599989,32.1699414 L39.3386258,16.5876047 Z M36.0064223,16.5921943 L23.8612413,25.0131661 L11.6925076,16.6255294 L36.0064223,16.5921943 Z M28.9972002,26.6024401 L36.2005359,32.1742895 L11.49906,32.2081077 L18.7462923,26.6024401 C19.0927422,26.3343705 19.1558321,25.8370015 18.8871246,25.4913312 C18.6183565,25.1457818 18.1196915,25.0828558 17.7731205,25.3508649 L9.96818991,31.3879561 L9.94881487,17.3488764 L23.4110745,26.6281661 C23.5469419,26.7218304 23.7046668,26.7685719 23.8624523,26.7685719 C24.0209037,26.7685719 24.1794763,26.7212869 24.3156465,26.6268979 L37.7517498,17.3109517 L37.7720936,31.3857217 L29.9702508,25.3509253 C29.6239826,25.0829765 29.1250754,25.1458421 28.8563679,25.4913916 C28.5875998,25.8369411 28.6506292,26.3344309 28.9972002,26.6024401 Z" id="Shape-Copy" stroke="#FFFFFF" stroke-width="0.3" fill-rule="nonzero"></path>
                        </g>
                    </g>
                </g>
            </g>
        </g>
    </g>
</svg>