<?xml version="1.0" encoding="UTF-8"?>
<svg width="48px" height="48px" viewBox="0 0 48 48" version="1.1" xmlns="http://www.w3.org/2000/svg" xmlns:xlink="http://www.w3.org/1999/xlink">
    <!-- Generator: Sketch 46.2 (44496) - http://www.bohemiancoding.com/sketch -->
    <title>empresa</title>
    <desc>Created with Sketch.</desc>
    <defs></defs>
    <g id="Arq-Carlos-Varela" stroke="none" stroke-width="1" fill="none" fill-rule="evenodd">
        <g id="Desktop" transform="translate(-305.000000, -4562.000000)">
            <g id="Contacto" transform="translate(-3.000000, 4334.000000)">
                <g id="Formulario" transform="translate(307.000000, 73.000000)">
                    <g id="email" transform="translate(1.000000, 155.000000)">
                        <g id="empresa">
                            <path d="M5,0 L42.52,0 C45.2814237,-5.07265313e-16 47.52,2.23857625 47.52,5 L47.52,43 C47.52,45.7614237 45.2814237,48 42.52,48 L5,48 L5,48 C2.23857625,48 3.38176876e-16,45.7614237 0,43 L0,5 L0,5 C-3.38176876e-16,2.23857625 2.23857625,5.07265313e-16 5,0 L5,0 Z M37.61811,34.3100376 C37.61811,34.3032089 37.61811,34.2963802 37.61811,34.2895516 C37.61811,34.2349222 37.6113615,34.1802928 37.6113615,34.1188348 C37.5708702,32.7667577 37.4831391,29.6050824 34.5542707,28.5944389 C34.5340251,28.5876103 34.5070309,28.5807816 34.4867853,28.5739529 C31.4431916,27.7886556 28.9124873,26.0132008 28.8854931,25.9927148 C28.4738319,25.6990819 27.9069541,25.801512 27.6167667,26.218061 C27.3265793,26.63461 27.4278074,27.2082185 27.8394687,27.5018514 C27.9541939,27.5837954 30.6401148,29.4753376 34.00089,30.3494077 C35.573301,30.9161875 35.7487631,32.6165269 35.7960029,34.1734641 C35.7960029,34.2349222 35.7960029,34.2895516 35.8027515,34.3441809 C35.8095,34.9587614 35.7690088,35.9079469 35.6610321,36.4542407 C34.5677678,37.0824785 30.2824419,39.2539963 23.7633476,39.2539963 C17.2712476,39.2539963 12.9589275,37.0756498 11.8589147,36.447412 C11.750938,35.9011182 11.7036982,34.9519328 11.7171953,34.3373523 C11.7171953,34.2827229 11.7239438,34.2280935 11.7239438,34.1666355 C11.7711836,32.6096982 11.9466458,30.9093588 13.5190567,30.342579 C16.879832,29.468509 19.5657528,27.5701381 19.6804781,27.4950227 C20.0921393,27.2013898 20.1933675,26.6277813 19.90318,26.2112323 C19.6129926,25.7946833 19.0461149,25.6922532 18.6344536,25.9858861 C18.6074595,26.0063722 16.0902523,27.7818269 13.0331615,28.5671242 C13.0061673,28.5739529 12.9859217,28.5807816 12.965676,28.5876103 C10.0368076,29.6050824 9.94907653,32.7667577 9.90858527,34.1120061 C9.90858527,34.1734641 9.90858527,34.2280935 9.90183672,34.2827229 C9.90183672,34.2895516 9.90183672,34.2963802 9.90183672,34.3032089 C9.89508818,34.6582999 9.88833963,36.4815553 10.2460125,37.3965974 C10.313498,37.5741429 10.4349718,37.7243737 10.5969368,37.8268038 C10.7993932,37.9633772 15.6515969,41.0909091 23.7700962,41.0909091 C31.8885955,41.0909091 36.7407992,37.9565485 36.9432556,37.8268038 C37.0984721,37.7243737 37.2266944,37.5741429 37.2941799,37.3965974 C37.6316071,36.488384 37.6248586,34.6651285 37.61811,34.3100376 Z M23.6470127,25.8181818 C23.6812513,25.8181818 23.7154899,25.8181818 23.7565761,25.8181818 C23.7702716,25.8181818 23.783967,25.8181818 23.7976624,25.8181818 C23.8182056,25.8181818 23.8455964,25.8181818 23.8661396,25.8181818 C25.8725198,25.7839424 27.495428,25.0786109 28.693778,23.7295786 C31.3301479,20.757599 30.8918942,15.6627769 30.8439602,15.1765775 C30.6727674,11.5266578 28.9471434,9.78044861 27.5228189,8.96555097 C26.4614232,8.35608972 25.221987,8.02739152 23.8387487,8 L23.7908147,8 C23.783967,8 23.7702716,8 23.7634239,8 L23.7223376,8 C22.9622413,8 21.4694396,8.12326183 20.0382674,8.93815946 C18.6002474,9.75305709 16.8472326,11.4992663 16.6760398,15.1765775 C16.6281058,15.6627769 16.1898521,20.757599 18.826222,23.7295786 C20.0177243,25.0786109 21.6406325,25.7839424 23.6470127,25.8181818 Z" id="Combined-Shape" fill="#FFFFFF"></path>
                            <g id="name" transform="translate(9.900000, 8.000000)"></g>
                        </g>
                    </g>
                </g>
            </g>
        </g>
    </g>
</svg>