<?xml version="1.0" encoding="UTF-8"?>
<svg width="24px" height="26px" viewBox="0 0 24 26" version="1.1" xmlns="http://www.w3.org/2000/svg" xmlns:xlink="http://www.w3.org/1999/xlink">
    <!-- Generator: Sketch 46.2 (44496) - http://www.bohemiancoding.com/sketch -->
    <title>facebook</title>
    <desc>Created with Sketch.</desc>
    <defs></defs>
    <g id="Arq-Carlos-Varela" stroke="none" stroke-width="1" fill="none" fill-rule="evenodd">
        <g id="Desktop" transform="translate(-788.000000, -6153.000000)" fill-rule="nonzero" fill="#FFFFFF">
            <g id="Footer" transform="translate(2.000000, 6133.000000)">
                <g id="Redes" transform="translate(786.000000, 20.000000)">
                    <g id="fb">
                        <g id="facebook">
                            <path d="M23.8823529,12.6320755 C23.8823529,5.65570218 18.5359448,0 11.9411765,0 C5.34636909,0 0,5.65570218 0,12.6320755 C0,19.6084075 5.34636909,25.2641509 11.9411765,25.2641509 C18.5359448,25.2641509 23.8823529,19.6084075 23.8823529,12.6320755 Z M1.0855544,12.6320755 C1.0855544,6.28961771 5.94561323,1.14836299 11.9411765,1.14836299 C17.9367397,1.14836299 22.7967985,6.28961771 22.7967985,12.6320755 C22.7967985,18.9745332 17.9367397,24.115788 11.9411765,24.115788 C5.94561323,24.115788 1.0855544,18.9745332 1.0855544,12.6320755 Z" id="Shape"></path>
                            <path d="M12.2444313,19.8504043 L12.2444313,12.6223968 L14.549813,12.6223968 L14.9140601,10.2271118 L12.2444313,10.2271118 L12.2444313,9.02605203 C12.2444313,8.40104916 12.4424965,7.804489 13.3096403,7.804489 L15.0427807,7.804489 L15.0427807,5.41374663 L12.5822538,5.41374663 C10.5134665,5.41374663 9.94893893,6.82311336 9.94893893,8.77673842 L9.94893893,10.2260068 L8.52941176,10.2260068 L8.52941176,12.6223968 L9.94893893,12.6223968 L9.94893893,19.8504043 L12.2444313,19.8504043 L12.2444313,19.8504043 Z" id="Shape"></path>
                        </g>
                    </g>
                </g>
            </g>
        </g>
    </g>
</svg>