<?xml version="1.0" encoding="UTF-8"?>
<svg width="30px" height="36px" viewBox="0 0 30 36" version="1.1" xmlns="http://www.w3.org/2000/svg" xmlns:xlink="http://www.w3.org/1999/xlink">
    <!-- Generator: Sketch 46.2 (44496) - http://www.bohemiancoding.com/sketch -->
    <title>gps</title>
    <desc>Created with Sketch.</desc>
    <defs></defs>
    <g id="Arq-Carlos-Varela" stroke="none" stroke-width="1" fill="none" fill-rule="evenodd">
        <g id="Desktop" transform="translate(-71.000000, -6187.000000)" fill-rule="nonzero" fill="#FFFFFF">
            <g id="Footer" transform="translate(2.000000, 6133.000000)">
                <g id="gps" transform="translate(69.000000, 49.000000)">
                    <g transform="translate(0.000000, 5.000000)" id="Shape">
                        <path d="M18.9679634,26.4522321 C21.8032037,21.6613095 25.3867277,14.9260417 25.3867277,11.4639881 C25.3867277,5.62395833 20.7254005,0.875 14.993135,0.875 C9.26086957,0.875 4.59954233,5.62395833 4.59954233,11.4639881 C4.59954233,14.9260417 8.18306636,21.6613095 11.0183066,26.4522321 C7.65446224,26.7110119 0,27.6412202 0,30.7255952 C0,33.7610119 7.77116705,35.1458333 15,35.1458333 C22.221968,35.1458333 30,33.7610119 30,30.7255952 C29.993135,27.6412202 22.3318078,26.7110119 18.9679634,26.4522321 Z M6.03432494,11.4639881 C6.03432494,6.42827381 10.0572082,2.3297619 14.993135,2.3297619 C19.9359268,2.3297619 23.9588101,6.42827381 23.9588101,11.4639881 C23.9588101,15.863244 17.0800915,26.8998512 14.993135,30.1450893 C12.9061785,26.8998512 6.03432494,15.863244 6.03432494,11.4639881 Z M14.993135,33.6840774 C6.21281465,33.6840774 1.42791762,31.725744 1.42791762,30.7186012 C1.42791762,29.9422619 4.58581236,28.2706845 11.8627002,27.8440476 C13.228833,30.0891369 14.2654462,31.6767857 14.402746,31.865625 C14.5881007,32.1174107 15.1304348,32.4181548 15.590389,31.865625 C15.7345538,31.6907738 16.7643021,30.0891369 18.1304348,27.8440476 C25.4073227,28.2706845 28.5652174,29.9352679 28.5652174,30.7186012 C28.5583524,31.7327381 23.7734554,33.6840774 14.993135,33.6840774 Z"></path>
                        <path d="M21,10.6666667 C21,7.9624431 18.7617602,5.77083333 16,5.77083333 C13.2382398,5.77083333 11,7.9624431 11,10.6666667 C11,13.3708902 13.2382398,15.5625 16,15.5625 C18.7617602,15.5625 21,13.3708902 21,10.6666667 Z M12.6666667,10.6666667 C12.6666667,8.86465262 14.1596452,7.40277778 16,7.40277778 C17.8403548,7.40277778 19.3333333,8.86465262 19.3333333,10.6666667 C19.3333333,12.4686807 17.8403548,13.9305556 16,13.9305556 C14.1596452,13.9305556 12.6666667,12.4686807 12.6666667,10.6666667 Z"></path>
                    </g>
                </g>
            </g>
        </g>
    </g>
</svg>