<?xml version="1.0" encoding="UTF-8"?>
<svg width="24px" height="26px" viewBox="0 0 24 26" version="1.1" xmlns="http://www.w3.org/2000/svg" xmlns:xlink="http://www.w3.org/1999/xlink">
    <!-- Generator: Sketch 46.2 (44496) - http://www.bohemiancoding.com/sketch -->
    <title>phoneFooter</title>
    <desc>Created with Sketch.</desc>
    <defs></defs>
    <g id="Arq-Carlos-Varela" stroke="none" stroke-width="1" fill="none" fill-rule="evenodd">
        <g id="Desktop" transform="translate(-788.000000, -6230.000000)" fill-rule="nonzero" fill="#FFFFFF">
            <g id="Footer" transform="translate(2.000000, 6133.000000)">
                <g id="Redes" transform="translate(786.000000, 20.000000)">
                    <g id="phone" transform="translate(0.000000, 77.735849)">
                        <g id="phoneFooter">
                            <path d="M18.7349203,15.6977732 C18.2491594,15.1618863 17.6632417,14.8753725 17.042269,14.8753725 C16.4263041,14.8753725 15.8353785,15.1565805 15.3295863,15.6924674 L13.7471075,17.363798 C13.6169035,17.2895166 13.4866996,17.2205411 13.3615035,17.1515655 C13.1812211,17.0560609 13.0109544,16.9658621 12.8657269,16.8703575 C11.383405,15.872865 10.0362949,14.5729412 8.74427113,12.8909991 C8.11829061,12.0526809 7.6976317,11.347008 7.3921532,10.6307235 C7.80279642,10.2327876 8.18339258,9.81893434 8.55397305,9.42099849 C8.69419269,9.27243578 8.83441233,9.11856725 8.97463197,8.97000453 C10.0262792,7.85578417 10.0262792,6.4126035 8.97463197,5.29838313 L7.6074905,3.84989666 C7.45224733,3.68541651 7.29199632,3.51563055 7.14176099,3.34584459 C6.84129034,3.01688429 6.52579615,2.67731237 6.20028628,2.35896369 C5.71452539,1.84960581 5.13361547,1.57900943 4.52265847,1.57900943 C3.91170148,1.57900943 3.32077587,1.84960581 2.81999145,2.35896369 C2.8149836,2.3642695 2.8149836,2.3642695 2.80997576,2.36957531 L1.10730873,4.18946858 C0.466304672,4.86861242 0.100732045,5.69631898 0.0206065381,6.65667082 C-0.0995817227,8.20596771 0.331092878,9.64914838 0.661610596,10.5935828 C1.47288136,12.9122223 2.68477965,15.0610759 4.49261141,17.363798 C6.68604717,20.1387373 9.32518106,22.3300373 12.3399033,23.8740284 C13.4917074,24.4523618 15.0291156,25.1368115 16.7468062,25.2535393 C16.8519709,25.2588451 16.9621435,25.2641509 17.0623003,25.2641509 C18.2191124,25.2641509 19.1906341,24.8237686 19.9518265,23.9483097 C19.9568343,23.9376981 19.96685,23.9323923 19.9718578,23.9217807 C20.2322657,23.5875146 20.5327364,23.2850833 20.8482306,22.9614289 C21.0635679,22.7438906 21.283913,22.5157407 21.4992503,22.2769792 C21.9950269,21.7304806 22.2554348,21.0937833 22.2554348,20.4411685 C22.2554348,19.7832479 21.990019,19.1518564 21.4842268,18.6212752 L18.7349203,15.6977732 Z M20.5277285,21.2847925 C20.5227207,21.2847925 20.5227207,21.2900983 20.5277285,21.2847925 C20.3324226,21.5076366 20.1321088,21.7092574 19.9167715,21.9321015 C19.5912617,22.2610618 19.260744,22.6059395 18.9502576,22.9932637 C18.4444653,23.5662913 17.8485319,23.8368877 17.0673082,23.8368877 C16.9921905,23.8368877 16.912065,23.8368877 16.8369474,23.8315819 C15.3496176,23.7307715 13.9674526,23.1152974 12.9308289,22.5900221 C10.0963891,21.1362298 7.6074905,19.0722692 5.53925085,16.4565042 C3.83157597,14.2758158 2.6897875,12.2596075 1.93360302,10.0948365 C1.46787351,8.77368952 1.29760681,7.74436213 1.37272447,6.77339867 C1.42280291,6.15261875 1.6481559,5.63795506 2.06380697,5.19757272 L3.77148184,3.38829108 C4.01686621,3.14422376 4.27727411,3.01157848 4.53267416,3.01157848 C4.84816835,3.01157848 5.1035684,3.21319931 5.26381941,3.38298527 C5.26882726,3.38829108 5.2738351,3.39359689 5.27884295,3.3989027 C5.58432144,3.70133394 5.87477641,4.01437681 6.1802549,4.34864292 C6.33549807,4.51842888 6.49574909,4.68821484 6.6560001,4.86330661 L8.02314157,6.31179309 C8.55397305,6.87420908 8.55397305,7.39417859 8.02314157,7.95659458 C7.87791409,8.11046311 7.73769445,8.26433163 7.59246697,8.41289435 C7.17180805,8.86919412 6.77118052,9.29365902 6.33549807,9.7075123 C6.32548238,9.71812392 6.3154667,9.72342973 6.31045885,9.73404136 C5.87978425,10.1903411 5.95990976,10.6360293 6.05005095,10.9384605 C6.0550588,10.9543779 6.06006664,10.9702954 6.06507449,10.9862128 C6.42063142,11.8988124 6.92141584,12.7583538 7.68260816,13.7823754 L7.68761601,13.7876812 C9.06978101,15.591657 10.5270637,16.997697 12.1345817,18.0747767 C12.3399033,18.2127278 12.5502327,18.3241498 12.7505465,18.430266 C12.9308289,18.5257706 13.1010956,18.6159694 13.2463231,18.711474 C13.2663544,18.7220856 13.2863858,18.7380031 13.3064172,18.7486147 C13.4766839,18.8388135 13.6369349,18.88126 13.8021938,18.88126 C14.2178448,18.88126 14.4782527,18.6053578 14.5633861,18.515159 L16.2760688,16.7005716 C16.4463355,16.520174 16.7167591,16.3026357 17.0322533,16.3026357 C17.3427396,16.3026357 17.5981397,16.5095623 17.7533828,16.6899599 C17.7583907,16.6952657 17.7583907,16.6952657 17.7633985,16.7005716 L20.5227207,19.6240736 C21.0385286,20.1652663 21.0385286,20.7223765 20.5277285,21.2847925 Z" id="Shape"></path>
                            <path d="M12.7205225,6.15863309 C14.0272374,6.39219877 15.2142533,7.0504293 16.161871,8.05900835 C17.1094887,9.06758739 17.7229464,10.3309654 17.9473822,11.7217428 C18.0022443,12.0720913 18.2865296,12.3162736 18.6107146,12.3162736 C18.6506143,12.3162736 18.6855265,12.3109653 18.7254262,12.305657 C19.0944984,12.2419572 19.338884,11.8703755 19.2790345,11.4775605 C19.0097115,9.79482597 18.2615923,8.26072416 17.1194636,7.04512099 C15.9773349,5.82951782 14.5359585,5.03327121 12.9549332,4.74662243 C12.585861,4.6829227 12.2417262,4.94302993 12.1768892,5.33053661 C12.1120522,5.7180433 12.3514503,6.09493336 12.7205225,6.15863309 Z" id="Shape"></path>
                            <path d="M23.7288014,11.1669788 C23.2821471,8.3779832 22.0475745,5.84010409 20.1505482,3.8204866 C18.253522,1.80086912 15.8696928,0.486514888 13.2499899,0.0109964865 C12.8836329,-0.0584612576 12.5373504,0.208683912 12.4721087,0.59871586 C12.4118857,0.994090711 12.6577965,1.36275104 13.029172,1.43220879 C15.367834,1.85429816 17.5007338,3.03507981 19.1970165,4.83563825 C20.8932993,6.6415396 21.9973886,8.91227354 22.3938571,11.4020665 C22.4490615,11.7546981 22.735121,12.0004717 23.0613292,12.0004717 C23.1014779,12.0004717 23.1366081,11.9951288 23.1767568,11.9897859 C23.5431137,11.931014 23.7940431,11.5570107 23.7288014,11.1669788 Z" id="Shape"></path>
                        </g>
                    </g>
                </g>
            </g>
        </g>
    </g>
</svg>