<?xml version="1.0" encoding="UTF-8"?>
<svg width="48px" height="48px" viewBox="0 0 48 48" version="1.1" xmlns="http://www.w3.org/2000/svg" xmlns:xlink="http://www.w3.org/1999/xlink">
    <!-- Generator: Sketch 46.2 (44496) - http://www.bohemiancoding.com/sketch -->
    <title>phone</title>
    <desc>Created with Sketch.</desc>
    <defs></defs>
    <g id="Arq-Carlos-Varela" stroke="none" stroke-width="1" fill="none" fill-rule="evenodd">
        <g id="Desktop" transform="translate(-305.000000, -4504.000000)" fill="#FFFFFF">
            <g id="Contacto" transform="translate(-3.000000, 4334.000000)">
                <g id="Formulario" transform="translate(307.000000, 73.000000)">
                    <g id="Empresa/Nombre" transform="translate(1.000000, 97.000000)">
                        <g id="phone">
                            <path d="M5,0 L42.52,0 L42.52,8.8817842e-16 C45.2814237,3.80913106e-16 47.52,2.23857625 47.52,5 L47.52,43 C47.52,45.7614237 45.2814237,48 42.52,48 L5,48 C2.23857625,48 3.38176876e-16,45.7614237 0,43 L0,5 L0,5 C-3.38176876e-16,2.23857625 2.23857625,1.39544373e-15 5,8.8817842e-16 L5,0 Z M32.8815574,27.2563172 C32.337027,26.6544803 31.6802221,26.3327061 30.9841213,26.3327061 C30.2936342,26.3327061 29.6312157,26.6485215 29.0642304,27.2503584 L27.290296,29.1273746 C27.1443394,29.0439516 26.9983828,28.9664875 26.8580398,28.8890233 C26.6559461,28.7817652 26.4650797,28.6804659 26.3022819,28.5732079 C24.6406219,27.452957 23.1305322,25.9930556 21.6821934,24.1041219 C20.9804789,23.1626344 20.5089267,22.3701165 20.16649,21.565681 C20.6268147,21.1187724 21.0534572,20.6539875 21.4688722,20.2070789 C21.6260562,20.040233 21.7832403,19.8674283 21.9404244,19.7005824 C23.1193048,18.4492384 23.1193048,16.8284498 21.9404244,15.5771057 L20.4078798,13.9503584 C20.2338546,13.7656362 20.0542157,13.5749552 19.8858042,13.3842742 C19.5489812,13.0148297 19.1953171,12.6334677 18.8304255,12.2759409 C18.285895,11.7038978 17.634704,11.4 16.9498306,11.4 C16.2649572,11.4 15.6025387,11.7038978 15.041167,12.2759409 C15.0355533,12.2818996 15.0355533,12.2818996 15.0299396,12.2878584 L13.1212761,14.3317204 C12.4027204,15.0944444 11.9929191,16.0240143 11.9030996,17.1025538 C11.7683704,18.8425179 12.25115,20.4633065 12.6216553,21.5239695 C13.5310773,24.127957 14.8895967,26.5412634 16.9161483,29.1273746 C19.374956,32.2438172 22.3333845,34.7047939 25.7128417,36.4387993 C27.0039965,37.0883065 28.7274074,37.8569892 30.6529121,37.9880824 C30.7708001,37.9940412 30.8943019,38 31.0065762,38 C32.3033447,38 33.3924056,37.5054211 34.2456905,36.5222222 C34.2513042,36.5103047 34.2625316,36.5043459 34.2681454,36.4924283 C34.5600586,36.1170251 34.8968816,35.7773746 35.2505457,35.4138889 C35.4919355,35.1695789 35.738939,34.9133513 35.9803288,34.6452061 C36.5360868,34.0314516 36.828,33.3163978 36.828,32.5834677 C36.828,31.8445789 36.530473,31.1354839 35.9634877,30.5396057 L32.8815574,27.2563172 Z M26.3871562,17.17555 C27.9129972,17.4344085 29.2990665,18.1639187 30.4055924,19.2817165 C31.5121183,20.3995143 32.2284482,21.7997032 32.4905202,23.3410876 C32.5545822,23.7293753 32.8865399,24 33.2650883,24 C33.3116788,24 33.3524456,23.9941169 33.3990362,23.9882337 C33.8299989,23.9176359 34.1153661,23.5058157 34.0454802,23.0704629 C33.7309939,21.2055054 32.8574208,19.5052761 31.5237659,18.1580355 C30.190111,16.810795 28.5070269,15.928323 26.6608758,15.6106331 C26.2299131,15.5400353 25.8280695,15.8283095 25.7523598,16.2577792 C25.6766501,16.6872489 25.9561935,17.1049523 26.3871562,17.17555 Z M39.5885737,21.7248668 C39.0944691,18.7965366 37.7287419,16.1318683 35.6301854,14.0113533 C33.531629,11.8908383 30.894554,10.5108206 27.9965475,10.0115459 C27.5912707,9.93861809 27.2082009,10.2191095 27.1360283,10.6286269 C27.0694075,11.0437542 27.3414426,11.4308324 27.7522711,11.5037601 C30.3393804,11.9469365 32.6988685,13.1867085 34.5753555,15.0772206 C36.4518425,16.9733425 37.6732245,19.3575194 38.1118117,21.9716993 C38.1728808,22.3419479 38.4893298,22.6 38.8501927,22.6 C38.8946066,22.6 38.9334688,22.5943902 38.9778827,22.5887803 C39.3831594,22.5270722 39.6607463,22.1343843 39.5885737,21.7248668 Z" id="Combined-Shape"></path>
                        </g>
                    </g>
                </g>
            </g>
        </g>
    </g>
</svg>