<?xml version="1.0" encoding="UTF-8"?>
<svg width="24px" height="27px" viewBox="0 0 24 27" version="1.1" xmlns="http://www.w3.org/2000/svg" xmlns:xlink="http://www.w3.org/1999/xlink">
    <!-- Generator: Sketch 46.2 (44496) - http://www.bohemiancoding.com/sketch -->
    <title>wpp</title>
    <desc>Created with Sketch.</desc>
    <defs></defs>
    <g id="Arq-Carlos-Varela" stroke="none" stroke-width="1" fill="none" fill-rule="evenodd">
        <g id="Desktop" transform="translate(-788.000000, -6191.000000)" fill-rule="nonzero" fill="#FFFFFF">
            <g id="Footer" transform="translate(2.000000, 6133.000000)">
                <g id="Redes" transform="translate(786.000000, 20.000000)">
                    <g id="wpp" transform="translate(0.000000, 38.867925)">
                        <g id="WhatsApp">
                            <path d="M23.7391304,12.3078496 C23.7391304,19.1007686 18.5234375,24.6167559 12.0881828,24.6167559 C10.0476199,24.6167559 8.12571174,24.056751 6.45605651,23.0861604 L0,25.2641509 L2.10684069,18.6575833 C1.04252298,16.8049018 0.430284616,14.6311381 0.430284616,12.3089063 C0.430284616,5.51287005 5.64791379,0 12.0881331,0 C18.5234375,0 23.7391304,5.51287005 23.7391304,12.3078496 Z M12.0881331,1.96009635 C6.68651471,1.96009635 2.28685823,6.59922353 2.28685823,12.3089063 C2.28685823,14.5763476 2.9812116,16.6732882 4.15236818,18.3786111 L2.93176387,22.2114137 L6.69738725,20.9450492 C8.24243023,22.0271758 10.0960251,22.6514288 12.0881331,22.6514288 C17.4858295,22.6514288 21.884493,18.0101882 21.884493,12.3005055 C21.884493,6.60028024 17.4858295,1.96009635 12.0881331,1.96009635 Z M17.9685406,15.1437494 C17.899284,15.0205896 17.7093868,14.9458271 17.4274951,14.7837274 C17.1337378,14.6331987 15.7351018,13.912098 15.4660684,13.8131368 C15.2098934,13.7120622 15.0199466,13.6626081 14.8300495,13.9626088 C14.631216,14.2604961 14.0901704,14.9468839 13.9249971,15.1436966 C13.7489513,15.3436795 13.5847213,15.3689877 13.3018366,15.2195157 C13.0229236,15.0711004 12.0970695,14.751075 11.0080279,13.7194592 C10.16131,12.9247056 9.58466802,11.9383172 9.41949473,11.632029 C9.2493568,11.3278014 9.39973549,11.1657017 9.54217077,11.0172864 C9.67571936,10.8804421 9.82902718,10.6614912 9.97046954,10.4867638 C10.1178694,10.3130931 10.1643384,10.1888765 10.2583189,9.98884079 C10.3532923,9.78251764 10.3047878,9.60884691 10.2345879,9.45303463 C10.1643384,9.3025059 9.58868937,7.82141741 9.35326654,7.21613239 C9.11292873,6.61296079 8.87949175,6.71297865 8.71426881,6.71297865 C8.54214504,6.71297865 8.35621959,6.68772321 8.16235073,6.68772321 C7.97443942,6.68772321 7.66385207,6.76142892 7.39874075,7.06771709 C7.14057991,7.36666111 6.39970794,8.09616271 6.39970794,9.58253476 C6.39970794,11.06468 7.42247169,12.504768 7.56887867,12.7026375 C7.71131395,12.9026203 9.54217077,16.041691 12.4492604,17.2502005 C15.3523784,18.4586571 15.3523784,18.0596952 15.8805655,18.0091844 C16.3958943,17.9586735 17.5719658,17.2765126 17.8073887,16.57755 C18.0387405,15.8669107 18.0387405,15.2690227 17.9685406,15.1437494 Z"></path>
                        </g>
                    </g>
                </g>
            </g>
        </g>
    </g>
</svg>